solid Created by Gmsh
facet normal 0 -1 0
  outer loop
    vertex 15.6554885206874 10 0.463401205536973
    vertex 12.49999999999997 10 5.310889132455356
    vertex 9.999999999999972 10 0.980762113533165
  endloop
endfacet
facet normal 0 -1 -0
  outer loop
    vertex -20.51851937522286 10 -12.9336282735329
    vertex -20.8375637719526 10 -17.54371419592586
    vertex -15.75101607668544 10 -15.91614250348776
  endloop
endfacet
facet normal -0 -1 0
  outer loop
    vertex -15.66472318671821 10 0.6265446522030942
    vertex -20.64367146529339 10 2.617387215012932
    vertex -20.50302475901538 10 -2.140492046094463
  endloop
endfacet
facet normal 0 -1 0
  outer loop
    vertex -15.75101607668544 10 -15.91614250348776
    vertex -16.65514092554167 10 -11.20223726646469
    vertex -20.51851937522286 10 -12.9336282735329
  endloop
endfacet
facet normal 0 -1 0
  outer loop
    vertex 15.7145372296634 10 9.822219168532081
    vertex 20.66987298107781 10 7.5
    vertex 20.56374511175445 10 12.39792335814524
  endloop
endfacet
facet normal -0 -1 0
  outer loop
    vertex -15.72989488450865 10 9.838057079515165
    vertex -20.69248944917229 10 12.46806591575817
    vertex -20.66987298107781 10 7.5
  endloop
endfacet
facet normal 0 -1 0
  outer loop
    vertex -20.50302475901538 10 -2.140492046094463
    vertex -16.64286456768321 10 -4.036188083325251
    vertex -15.66472318671821 10 0.6265446522030942
  endloop
endfacet
facet normal 0 -1 0
  outer loop
    vertex 15.6554885206874 10 0.463401205536973
    vertex 17.01313446053501 10 5.060868316992289
    vertex 12.49999999999997 10 5.310889132455356
  endloop
endfacet
facet normal 0 -1 0
  outer loop
    vertex -15.72989488450865 10 9.838057079515165
    vertex -16.90265585019133 10 14.99999999999999
    vertex -20.69248944917229 10 12.46806591575817
  endloop
endfacet
facet normal -0 -1 0
  outer loop
    vertex 20.56374511175445 10 12.39792335814524
    vertex 16.90116389080628 10 14.99171452587717
    vertex 15.7145372296634 10 9.822219168532081
  endloop
endfacet
facet normal 0 -1 0
  outer loop
    vertex 9.999999999999972 10 0.980762113533165
    vertex 12.2744812085741 10 -2.958754900577864
    vertex 15.6554885206874 10 0.463401205536973
  endloop
endfacet
facet normal 0 -1 0
  outer loop
    vertex 12.17309748373079 10 -7.061453087808497
    vertex 12.2744812085741 10 -2.958754900577864
    vertex 7.884613282885837 10 -3.95498030575284
  endloop
endfacet
facet normal 0 -1 0
  outer loop
    vertex 15.7145372296634 10 9.822219168532081
    vertex 17.01313446053501 10 5.060868316992289
    vertex 20.66987298107781 10 7.5
  endloop
endfacet
facet normal 0 -1 0
  outer loop
    vertex -20.66987298107781 10 7.5
    vertex -16.98237706870869 10 5.046484698000133
    vertex -15.72989488450865 10 9.838057079515165
  endloop
endfacet
facet normal 0 -1 0
  outer loop
    vertex 7.884613282885837 10 -3.95498030575284
    vertex 8.527729358174478 10 -8.48482618155087
    vertex 12.17309748373079 10 -7.061453087808497
  endloop
endfacet
facet normal 0 -1 0
  outer loop
    vertex -15.75101607668544 10 -15.91614250348776
    vertex -20.8375637719526 10 -17.54371419592586
    vertex -17.47881315359562 10 -20.76613977472084
  endloop
endfacet
facet normal 0 -1 0
  outer loop
    vertex 16.76814524800279 10 -15.08119767642921
    vertex 17.09080164542631 10 -20.29278796740301
    vertex 20.76613977472084 10 -17.47881315359562
  endloop
endfacet
facet normal 0 -1 0
  outer loop
    vertex -19.8766586214116 10 -7.580449520222274
    vertex -16.65514092554167 10 -11.20223726646469
    vertex -14.80685415208962 10 -7.658097724403558
  endloop
endfacet
facet normal 0 -1 0
  outer loop
    vertex 4.999999999999996 10 -16.33974596215561
    vertex 9.556901135633293 10 -16.67022752644167
    vertex 7.112423724442102 10 -12.3003539310817
  endloop
endfacet
facet normal 0 -1 0
  outer loop
    vertex -14.80685415208962 10 -7.658097724403558
    vertex -16.64286456768321 10 -4.036188083325251
    vertex -19.8766586214116 10 -7.580449520222274
  endloop
endfacet
facet normal 0 -1 0
  outer loop
    vertex -20.85251297925592 10 17.47033841503386
    vertex -16.90265585019133 10 14.99999999999999
    vertex -17.20466949304551 10 20.30728280115161
  endloop
endfacet
facet normal -0 -1 0
  outer loop
    vertex -12.40533815279636 10 13.91449427572276
    vertex -16.90265585019133 10 14.99999999999999
    vertex -15.72989488450865 10 9.838057079515165
  endloop
endfacet
facet normal 0 -1 0
  outer loop
    vertex 15.7145372296634 10 9.822219168532081
    vertex 16.90116389080628 10 14.99171452587717
    vertex 12.40545439360054 10 13.91399102703821
  endloop
endfacet
facet normal 0 -1 -0
  outer loop
    vertex 16.76814524800279 10 -15.08119767642921
    vertex 13.54495338957329 10 -17.24242428084709
    vertex 17.09080164542631 10 -20.29278796740301
  endloop
endfacet
facet normal 0 -1 0
  outer loop
    vertex -15.66472318671821 10 0.6265446522030942
    vertex -16.98237706870869 10 5.046484698000133
    vertex -20.64367146529339 10 2.617387215012932
  endloop
endfacet
facet normal 0 -1 -0
  outer loop
    vertex 17.22779727052849 10 20.22523585948801
    vertex 16.90116389080628 10 14.99171452587717
    vertex 21.00540870587414 10 17.32576995094434
  endloop
endfacet
facet normal 0 -1 0
  outer loop
    vertex -20.51851937522286 10 -12.9336282735329
    vertex -16.65514092554167 10 -11.20223726646469
    vertex -19.8766586214116 10 -7.580449520222274
  endloop
endfacet
facet normal 0 -1 0
  outer loop
    vertex 7.112423724442102 10 -12.3003539310817
    vertex 9.556901135633293 10 -16.67022752644167
    vertex 12.01463136566409 10 -12.45863449006857
  endloop
endfacet
facet normal 0 -1 0
  outer loop
    vertex -16.90265585019133 10 14.99999999999999
    vertex -13.76232073153042 10 17.51253446154923
    vertex -17.20466949304551 10 20.30728280115161
  endloop
endfacet
facet normal 0 -1 -0
  outer loop
    vertex -12.50000000000003 10 5.310889132455369
    vertex -15.66472318671821 10 0.6265446522030942
    vertex -9.9771756287501 10 0.9675756472697368
  endloop
endfacet
facet normal 0 -1 -0
  outer loop
    vertex 1.634787530539287e-05 10 -16.33982024208897
    vertex -2.499980927478805 10 -20.66995964100006
    vertex 2.499999999999999 10 -20.66987298107781
  endloop
endfacet
facet normal 0 -1 0
  outer loop
    vertex 2.499999999999999 10 -20.66987298107781
    vertex 4.999999999999996 10 -16.33974596215561
    vertex 1.634787530539287e-05 10 -16.33982024208897
  endloop
endfacet
facet normal 0 -1 0
  outer loop
    vertex -9.999999999350884 10 9.641016148428037
    vertex -7.49619581718335 10 5.308690838554686
    vertex -4.999999996105164 10 9.641016133680438
  endloop
endfacet
facet normal 0 -1 0
  outer loop
    vertex -9.9771756287501 10 0.9675756472697368
    vertex -7.49619581718335 10 5.308690838554686
    vertex -12.50000000000003 10 5.310889132455369
  endloop
endfacet
facet normal 0 -1 0
  outer loop
    vertex 2.499999999999999 10 -20.66987298107781
    vertex 7.452771190588611 10 -20.77287179570348
    vertex 4.999999999999996 10 -16.33974596215561
  endloop
endfacet
facet normal 0 -1 0
  outer loop
    vertex 20.77350269189625 10 2.499999999999999
    vertex 15.6554885206874 10 0.463401205536973
    vertex 20.69457616462926 10 -2.512726843807409
  endloop
endfacet
facet normal 0 -1 0
  outer loop
    vertex -4.999901912748133 10 -16.34019164175581
    vertex -2.499980927478805 10 -20.66995964100006
    vertex 1.634787530539287e-05 10 -16.33982024208897
  endloop
endfacet
facet normal 0 -1 0
  outer loop
    vertex -7.499992374425382 10 -3.349399553755586
    vertex -12.36306211918123 10 -3.428445778109052
    vertex -9.999977748725287 10 -7.679593027553867
  endloop
endfacet
facet normal 0 -1 0
  outer loop
    vertex -4.999999996105164 10 9.641016133680438
    vertex -2.499365721756332 10 5.310521624325329
    vertex 2.336915253901376e-08 10 9.641016045194876
  endloop
endfacet
facet normal 0 -1 0
  outer loop
    vertex -12.50000000000003 10 5.310889132455369
    vertex -7.49619581718335 10 5.308690838554686
    vertex -9.999999999350884 10 9.641016148428037
  endloop
endfacet
facet normal 0 -1 -0
  outer loop
    vertex -9.999977748725287 10 -7.679593027553867
    vertex -12.32265640229887 10 -11.92286831067698
    vertex -7.499885564872827 10 -12.01013890276698
  endloop
endfacet
facet normal 0 -1 0
  outer loop
    vertex 5.000000020030699 10 9.641016060363828
    vertex 7.499999999999977 10 13.97114317029975
    vertex 2.499999999999972 10 13.97114317029975
  endloop
endfacet
facet normal 0 -1 0
  outer loop
    vertex -7.49619581718335 10 5.308690838554686
    vertex -2.499365721756332 10 5.310521624325329
    vertex -4.999999996105164 10 9.641016133680438
  endloop
endfacet
facet normal -0 -1 0
  outer loop
    vertex 4.999999999999996 10 -16.33974596215561
    vertex 2.415196796107637 10 -12.0066529965819
    vertex 1.634787530539287e-05 10 -16.33982024208897
  endloop
endfacet
facet normal -0 -1 0
  outer loop
    vertex 20.69457616462926 10 -2.512726843807409
    vertex 15.6554885206874 10 0.463401205536973
    vertex 16.38433535264593 10 -5.076361062844443
  endloop
endfacet
facet normal -0 -1 0
  outer loop
    vertex -7.500000000000002 10 -20.66987298107781
    vertex -9.99941147648877 10 -16.34242003975681
    vertex -12.4964688589326 10 -20.68591744668498
  endloop
endfacet
facet normal 0 -1 0
  outer loop
    vertex -7.500000000000002 10 -20.66987298107781
    vertex -2.499980927478805 10 -20.66995964100006
    vertex -4.999901912748133 10 -16.34019164175581
  endloop
endfacet
facet normal 0 -1 -0
  outer loop
    vertex 20.66987298107781 10 -7.500000000000002
    vertex 16.34242003975681 10 -9.999411476488772
    vertex 20.68591744668498 10 -12.4964688589326
  endloop
endfacet
facet normal 0 -1 0
  outer loop
    vertex 20.66987298107781 10 -7.500000000000002
    vertex 20.69457616462926 10 -2.512726843807409
    vertex 16.38433535264593 10 -5.076361062844443
  endloop
endfacet
facet normal 0 -1 0
  outer loop
    vertex -4.999901912748133 10 -16.34019164175581
    vertex 1.634787530539287e-05 10 -16.33982024208897
    vertex -2.500000000000013 10 -12.00961894323341
  endloop
endfacet
facet normal 0 -1 0
  outer loop
    vertex -2.499996291454233 10 -3.349381755929469
    vertex -7.499992374425382 10 -3.349399553755586
    vertex -4.99998092747882 10 -7.679578584233486
  endloop
endfacet
facet normal -0 -1 0
  outer loop
    vertex -4.99998092747882 10 -7.679578584233486
    vertex -7.499992374425382 10 -3.349399553755586
    vertex -9.999977748725287 10 -7.679593027553867
  endloop
endfacet
facet normal -0 -1 0
  outer loop
    vertex 7.499999999999973 10 5.310889132455358
    vertex 5.000000020030699 10 9.641016060363828
    vertex 2.500000120184327 10 5.310888586373029
  endloop
endfacet
facet normal 0 -1 -0
  outer loop
    vertex 2.336915253901376e-08 10 9.641016045194876
    vertex -2.499365721756332 10 5.310521624325329
    vertex 2.500000120184327 10 5.310888586373029
  endloop
endfacet
facet normal 0 -1 -0
  outer loop
    vertex -12.36306211918123 10 -3.428445778109052
    vertex -14.80685415208962 10 -7.658097724403558
    vertex -9.999977748725287 10 -7.679593027553867
  endloop
endfacet
facet normal 0 -1 0
  outer loop
    vertex -14.80685415208962 10 -7.658097724403558
    vertex -12.32265640229887 10 -11.92286831067698
    vertex -9.999977748725287 10 -7.679593027553867
  endloop
endfacet
facet normal -0 -1 0
  outer loop
    vertex 10.00000000333843 10 9.641016136208595
    vertex 7.499999999999977 10 13.97114317029975
    vertex 5.000000020030699 10 9.641016060363828
  endloop
endfacet
facet normal 0 -1 0
  outer loop
    vertex -9.9771756287501 10 0.9675756472697368
    vertex -15.66472318671821 10 0.6265446522030942
    vertex -12.36306211918123 10 -3.428445778109052
  endloop
endfacet
facet normal 0 -1 0
  outer loop
    vertex -4.999901912748133 10 -16.34019164175581
    vertex -2.500000000000013 10 -12.00961894323341
    vertex -7.499885564872827 10 -12.01013890276698
  endloop
endfacet
facet normal 0 -1 0
  outer loop
    vertex -2.500000000000013 10 -12.00961894323341
    vertex 3.178753514558134e-06 10 -7.679506367631596
    vertex -4.99998092747882 10 -7.679578584233486
  endloop
endfacet
facet normal -0 -1 0
  outer loop
    vertex 3.178753514558134e-06 10 -7.679506367631596
    vertex -2.499996291454233 10 -3.349381755929469
    vertex -4.99998092747882 10 -7.679578584233486
  endloop
endfacet
facet normal 0 -1 0
  outer loop
    vertex 3.178753514558134e-06 10 -7.679506367631596
    vertex 2.499999999999979 10 -3.349364905389027
    vertex -2.499996291454233 10 -3.349381755929469
  endloop
endfacet
facet normal -0 -1 0
  outer loop
    vertex 2.499999999999979 10 -3.349364905389027
    vertex 6.18090939615475e-07 10 0.9807593051097581
    vertex -2.499996291454233 10 -3.349381755929469
  endloop
endfacet
facet normal 0 -1 0
  outer loop
    vertex 6.18090939615475e-07 10 0.9807593051097581
    vertex -4.999999278893899 10 0.9807588370391871
    vertex -2.499996291454233 10 -3.349381755929469
  endloop
endfacet
facet normal 0 -1 -0
  outer loop
    vertex -4.999999278893899 10 0.9807588370391871
    vertex -7.499992374425382 10 -3.349399553755586
    vertex -2.499996291454233 10 -3.349381755929469
  endloop
endfacet
facet normal -0 -1 0
  outer loop
    vertex 6.18090939615475e-07 10 0.9807593051097581
    vertex -2.499365721756332 10 5.310521624325329
    vertex -4.999999278893899 10 0.9807588370391871
  endloop
endfacet
facet normal 0 -1 0
  outer loop
    vertex 2.500000120184327 10 5.310888586373029
    vertex -2.499365721756332 10 5.310521624325329
    vertex 6.18090939615475e-07 10 0.9807593051097581
  endloop
endfacet
facet normal 0 -1 0
  outer loop
    vertex -4.999999278893899 10 0.9807588370391871
    vertex -9.9771756287501 10 0.9675756472697368
    vertex -7.499992374425382 10 -3.349399553755586
  endloop
endfacet
facet normal 0 -1 0
  outer loop
    vertex 7.499999999999973 10 5.310889132455358
    vertex 10.00000000333843 10 9.641016136208595
    vertex 5.000000020030699 10 9.641016060363828
  endloop
endfacet
facet normal 0 -1 -0
  outer loop
    vertex -2.500000000000027 10 13.97114317029975
    vertex -4.999999996105164 10 9.641016133680438
    vertex 2.336915253901376e-08 10 9.641016045194876
  endloop
endfacet
facet normal 0 -1 0
  outer loop
    vertex 10.00000000333843 10 9.641016136208595
    vertex 12.40545439360054 10 13.91399102703821
    vertex 7.499999999999977 10 13.97114317029975
  endloop
endfacet
facet normal 0 -1 -0
  outer loop
    vertex -7.500000000000025 10 13.97114317029975
    vertex -9.999999999350884 10 9.641016148428037
    vertex -4.999999996105164 10 9.641016133680438
  endloop
endfacet
facet normal 0 -1 0
  outer loop
    vertex -7.500000000000025 10 13.97114317029975
    vertex -12.40533815279636 10 13.91449427572276
    vertex -9.999999999350884 10 9.641016148428037
  endloop
endfacet
facet normal 0 -1 -0
  outer loop
    vertex -12.40533815279636 10 13.91449427572276
    vertex -15.72989488450865 10 9.838057079515165
    vertex -9.999999999350884 10 9.641016148428037
  endloop
endfacet
facet normal -0 -1 0
  outer loop
    vertex -7.499992374425382 10 -3.349399553755586
    vertex -9.9771756287501 10 0.9675756472697368
    vertex -12.36306211918123 10 -3.428445778109052
  endloop
endfacet
facet normal 0 -1 -0
  outer loop
    vertex 12.17309748373079 10 -7.061453087808497
    vertex 12.01463136566409 10 -12.45863449006857
    vertex 16.34242003975681 10 -9.999411476488772
  endloop
endfacet
facet normal 0 -1 0
  outer loop
    vertex -15 10 -25
    vertex -17.47881315359562 10 -20.76613977472084
    vertex -20 10 -25
  endloop
endfacet
facet normal 0 -1 0
  outer loop
    vertex -5 10 -25
    vertex -7.500000000000002 10 -20.66987298107781
    vertex -10 10 -25
  endloop
endfacet
facet normal 0 -1 0
  outer loop
    vertex -7.500000000000002 10 -20.66987298107781
    vertex -12.4964688589326 10 -20.68591744668498
    vertex -10 10 -25
  endloop
endfacet
facet normal 0 -1 0
  outer loop
    vertex 0 10 -25
    vertex -2.499980927478805 10 -20.66995964100006
    vertex -5 10 -25
  endloop
endfacet
facet normal 0 -1 0
  outer loop
    vertex 5 10 -25
    vertex 2.499999999999999 10 -20.66987298107781
    vertex 0 10 -25
  endloop
endfacet
facet normal 0 -1 0
  outer loop
    vertex 2.499999999999999 10 -20.66987298107781
    vertex -2.499980927478805 10 -20.66995964100006
    vertex 0 10 -25
  endloop
endfacet
facet normal 0 -1 0
  outer loop
    vertex 15 10 -25
    vertex 12.21662714353167 10 -20.90733469879357
    vertex 10 10 -25
  endloop
endfacet
facet normal -0 -1 0
  outer loop
    vertex 12.21662714353167 10 -20.90733469879357
    vertex 7.452771190588611 10 -20.77287179570348
    vertex 10 10 -25
  endloop
endfacet
facet normal 0 -1 -0
  outer loop
    vertex 25 10 -15
    vertex 20.76613977472084 10 -17.47881315359562
    vertex 25 10 -20
  endloop
endfacet
facet normal 0 -1 -0
  outer loop
    vertex 25 10 -5
    vertex 20.66987298107781 10 -7.500000000000002
    vertex 25 10 -10
  endloop
endfacet
facet normal 0 -1 0
  outer loop
    vertex 20.66987298107781 10 -7.500000000000002
    vertex 20.68591744668498 10 -12.4964688589326
    vertex 25 10 -10
  endloop
endfacet
facet normal 0 -1 -0
  outer loop
    vertex 25 10 0
    vertex 20.69457616462926 10 -2.512726843807409
    vertex 25 10 -5
  endloop
endfacet
facet normal 0 -1 -0
  outer loop
    vertex 25 10 5
    vertex 20.77350269189625 10 2.499999999999999
    vertex 25 10 0
  endloop
endfacet
facet normal 0 -1 -0
  outer loop
    vertex 20.77350269189625 10 2.499999999999999
    vertex 20.69457616462926 10 -2.512726843807409
    vertex 25 10 0
  endloop
endfacet
facet normal 0 -1 -0
  outer loop
    vertex 25 10 15
    vertex 20.56374511175445 10 12.39792335814524
    vertex 25 10 10
  endloop
endfacet
facet normal 0 -1 0
  outer loop
    vertex 20.56374511175445 10 12.39792335814524
    vertex 20.66987298107781 10 7.5
    vertex 25 10 10
  endloop
endfacet
facet normal 0 -1 0
  outer loop
    vertex 15 10 25
    vertex 17.22779727052849 10 20.22523585948801
    vertex 20 10 25
  endloop
endfacet
facet normal 0 -1 0
  outer loop
    vertex 5 10 25
    vertex 7.5 10 20.66987298107781
    vertex 10 10 25
  endloop
endfacet
facet normal 0 -1 0
  outer loop
    vertex 7.5 10 20.66987298107781
    vertex 12.2950057521039 10 20.92268749865723
    vertex 10 10 25
  endloop
endfacet
facet normal 0 -1 0
  outer loop
    vertex 0 10 25
    vertex 2.5 10 20.66987298107781
    vertex 5 10 25
  endloop
endfacet
facet normal 0 -1 0
  outer loop
    vertex -5 10 25
    vertex -2.5 10 20.66987298107781
    vertex 0 10 25
  endloop
endfacet
facet normal 0 -1 0
  outer loop
    vertex -2.5 10 20.66987298107781
    vertex 2.5 10 20.66987298107781
    vertex 0 10 25
  endloop
endfacet
facet normal 0 -1 0
  outer loop
    vertex -15 10 25
    vertex -12.29894016161892 10 21.02038715518301
    vertex -10 10 25
  endloop
endfacet
facet normal 0 -1 0
  outer loop
    vertex -12.29894016161892 10 21.02038715518301
    vertex -7.5 10 20.66987298107781
    vertex -10 10 25
  endloop
endfacet
facet normal 0 -1 0
  outer loop
    vertex -25 10 15
    vertex -20.85251297925592 10 17.47033841503386
    vertex -25 10 20
  endloop
endfacet
facet normal 0 -1 0
  outer loop
    vertex -25 10 5
    vertex -20.66987298107781 10 7.5
    vertex -25 10 10
  endloop
endfacet
facet normal 0 -1 0
  outer loop
    vertex -20.66987298107781 10 7.5
    vertex -20.69248944917229 10 12.46806591575817
    vertex -25 10 10
  endloop
endfacet
facet normal 0 -1 0
  outer loop
    vertex -25 10 0
    vertex -20.64367146529339 10 2.617387215012932
    vertex -25 10 5
  endloop
endfacet
facet normal 0 -1 0
  outer loop
    vertex -25 10 -5
    vertex -20.50302475901538 10 -2.140492046094463
    vertex -25 10 0
  endloop
endfacet
facet normal 0 -1 0
  outer loop
    vertex -20.50302475901538 10 -2.140492046094463
    vertex -20.64367146529339 10 2.617387215012932
    vertex -25 10 0
  endloop
endfacet
facet normal 0 -1 0
  outer loop
    vertex -25 10 -15
    vertex -20.51851937522286 10 -12.9336282735329
    vertex -25 10 -10
  endloop
endfacet
facet normal 0 -1 0
  outer loop
    vertex -20.51851937522286 10 -12.9336282735329
    vertex -19.8766586214116 10 -7.580449520222274
    vertex -25 10 -10
  endloop
endfacet
facet normal -0 -1 0
  outer loop
    vertex -7.499885564872827 10 -12.01013890276698
    vertex -12.32265640229887 10 -11.92286831067698
    vertex -9.99941147648877 10 -16.34242003975681
  endloop
endfacet
facet normal -0 -1 0
  outer loop
    vertex -2.500000000000013 10 -12.00961894323341
    vertex -4.99998092747882 10 -7.679578584233486
    vertex -7.499885564872827 10 -12.01013890276698
  endloop
endfacet
facet normal 0 -1 0
  outer loop
    vertex -4.99998092747882 10 -7.679578584233486
    vertex -9.999977748725287 10 -7.679593027553867
    vertex -7.499885564872827 10 -12.01013890276698
  endloop
endfacet
facet normal 0 -1 0
  outer loop
    vertex 3.178753514558134e-06 10 -7.679506367631596
    vertex 4.716984826706421 10 -7.791986823939391
    vertex 2.499999999999979 10 -3.349364905389027
  endloop
endfacet
facet normal 0 -1 0
  outer loop
    vertex 2.499999999999979 10 -3.349364905389027
    vertex 5.000000103015134 10 0.9807616454625978
    vertex 6.18090939615475e-07 10 0.9807593051097581
  endloop
endfacet
facet normal -0 -1 0
  outer loop
    vertex -4.999999278893899 10 0.9807588370391871
    vertex -7.49619581718335 10 5.308690838554686
    vertex -9.9771756287501 10 0.9675756472697368
  endloop
endfacet
facet normal 0 -1 0
  outer loop
    vertex 5.000000020030699 10 9.641016060363828
    vertex 2.336915253901376e-08 10 9.641016045194876
    vertex 2.500000120184327 10 5.310888586373029
  endloop
endfacet
facet normal 0 -1 0
  outer loop
    vertex 7.499999999999973 10 5.310889132455358
    vertex 12.49999999999997 10 5.310889132455356
    vertex 10.00000000333843 10 9.641016136208595
  endloop
endfacet
facet normal -0 -1 0
  outer loop
    vertex -2.500000000000027 10 13.97114317029975
    vertex -7.500000000000025 10 13.97114317029975
    vertex -4.999999996105164 10 9.641016133680438
  endloop
endfacet
facet normal -0 -1 0
  outer loop
    vertex -4.999901912748133 10 -16.34019164175581
    vertex -7.499885564872827 10 -12.01013890276698
    vertex -9.99941147648877 10 -16.34242003975681
  endloop
endfacet
facet normal 0 -1 0
  outer loop
    vertex 3.178753514558134e-06 10 -7.679506367631596
    vertex 2.415196796107637 10 -12.0066529965819
    vertex 4.716984826706421 10 -7.791986823939391
  endloop
endfacet
facet normal 0 -1 0
  outer loop
    vertex 2.499999999999979 10 -3.349364905389027
    vertex 7.884613282885837 10 -3.95498030575284
    vertex 5.000000103015134 10 0.9807616454625978
  endloop
endfacet
facet normal -0 -1 0
  outer loop
    vertex 5.000000103015134 10 0.9807616454625978
    vertex 2.500000120184327 10 5.310888586373029
    vertex 6.18090939615475e-07 10 0.9807593051097581
  endloop
endfacet
facet normal 0 -1 0
  outer loop
    vertex -4.999999278893899 10 0.9807588370391871
    vertex -2.499365721756332 10 5.310521624325329
    vertex -7.49619581718335 10 5.308690838554686
  endloop
endfacet
facet normal 0 -1 0
  outer loop
    vertex 5.000000103015134 10 0.9807616454625978
    vertex 7.499999999999973 10 5.310889132455358
    vertex 2.500000120184327 10 5.310888586373029
  endloop
endfacet
facet normal -0 -1 0
  outer loop
    vertex 5.000000020030699 10 9.641016060363828
    vertex 2.499999999999972 10 13.97114317029975
    vertex 2.336915253901376e-08 10 9.641016045194876
  endloop
endfacet
facet normal -0 -1 0
  outer loop
    vertex 2.499999999999972 10 13.97114317029975
    vertex -2.500000000000027 10 13.97114317029975
    vertex 2.336915253901376e-08 10 9.641016045194876
  endloop
endfacet
facet normal 0 -1 0
  outer loop
    vertex -15 10 -25
    vertex -12.4964688589326 10 -20.68591744668498
    vertex -17.47881315359562 10 -20.76613977472084
  endloop
endfacet
facet normal 0 -1 0
  outer loop
    vertex -5 10 -25
    vertex -2.499980927478805 10 -20.66995964100006
    vertex -7.500000000000002 10 -20.66987298107781
  endloop
endfacet
facet normal 0 -1 0
  outer loop
    vertex 5 10 -25
    vertex 7.452771190588611 10 -20.77287179570348
    vertex 2.499999999999999 10 -20.66987298107781
  endloop
endfacet
facet normal -0 -1 0
  outer loop
    vertex 25 10 -15
    vertex 20.68591744668498 10 -12.4964688589326
    vertex 20.76613977472084 10 -17.47881315359562
  endloop
endfacet
facet normal -0 -1 0
  outer loop
    vertex 25 10 -5
    vertex 20.69457616462926 10 -2.512726843807409
    vertex 20.66987298107781 10 -7.500000000000002
  endloop
endfacet
facet normal -0 -1 0
  outer loop
    vertex 25 10 5
    vertex 20.66987298107781 10 7.5
    vertex 20.77350269189625 10 2.499999999999999
  endloop
endfacet
facet normal 0 -1 -0
  outer loop
    vertex 15 10 25
    vertex 12.2950057521039 10 20.92268749865723
    vertex 17.22779727052849 10 20.22523585948801
  endloop
endfacet
facet normal 0 -1 -0
  outer loop
    vertex 5 10 25
    vertex 2.5 10 20.66987298107781
    vertex 7.5 10 20.66987298107781
  endloop
endfacet
facet normal 0 -1 -0
  outer loop
    vertex -5 10 25
    vertex -7.5 10 20.66987298107781
    vertex -2.5 10 20.66987298107781
  endloop
endfacet
facet normal 0 -1 0
  outer loop
    vertex -25 10 15
    vertex -20.69248944917229 10 12.46806591575817
    vertex -20.85251297925592 10 17.47033841503386
  endloop
endfacet
facet normal 0 -1 0
  outer loop
    vertex -25 10 5
    vertex -20.64367146529339 10 2.617387215012932
    vertex -20.66987298107781 10 7.5
  endloop
endfacet
facet normal 0 -1 0
  outer loop
    vertex -25 10 -5
    vertex -19.8766586214116 10 -7.580449520222274
    vertex -20.50302475901538 10 -2.140492046094463
  endloop
endfacet
facet normal 0 -1 0
  outer loop
    vertex -7.500000000000002 10 -20.66987298107781
    vertex -4.999901912748133 10 -16.34019164175581
    vertex -9.99941147648877 10 -16.34242003975681
  endloop
endfacet
facet normal -0 -1 0
  outer loop
    vertex 20.66987298107781 10 -7.500000000000002
    vertex 16.38433535264593 10 -5.076361062844443
    vertex 16.34242003975681 10 -9.999411476488772
  endloop
endfacet
facet normal -0 -1 0
  outer loop
    vertex -9.99941147648877 10 -16.34242003975681
    vertex -15.75101607668544 10 -15.91614250348776
    vertex -12.4964688589326 10 -20.68591744668498
  endloop
endfacet
facet normal 0 -1 0
  outer loop
    vertex 1.634787530539287e-05 10 -16.33982024208897
    vertex 2.415196796107637 10 -12.0066529965819
    vertex -2.500000000000013 10 -12.00961894323341
  endloop
endfacet
facet normal 0 -1 0
  outer loop
    vertex 4.716984826706421 10 -7.791986823939391
    vertex 7.884613282885837 10 -3.95498030575284
    vertex 2.499999999999979 10 -3.349364905389027
  endloop
endfacet
facet normal 0 -1 0
  outer loop
    vertex 5.000000103015134 10 0.9807616454625978
    vertex 9.999999999999972 10 0.980762113533165
    vertex 7.499999999999973 10 5.310889132455358
  endloop
endfacet
facet normal 0 -1 0
  outer loop
    vertex 5.000000103015134 10 0.9807616454625978
    vertex 7.884613282885837 10 -3.95498030575284
    vertex 9.999999999999972 10 0.980762113533165
  endloop
endfacet
facet normal 0 -1 0
  outer loop
    vertex 9.999999999999972 10 0.980762113533165
    vertex 12.49999999999997 10 5.310889132455356
    vertex 7.499999999999973 10 5.310889132455358
  endloop
endfacet
facet normal 0 -1 0
  outer loop
    vertex 10.00000000333843 10 9.641016136208595
    vertex 15.7145372296634 10 9.822219168532081
    vertex 12.40545439360054 10 13.91399102703821
  endloop
endfacet
facet normal 0 -1 0
  outer loop
    vertex -15.72989488450865 10 9.838057079515165
    vertex -12.50000000000003 10 5.310889132455369
    vertex -9.999999999350884 10 9.641016148428037
  endloop
endfacet
facet normal 0 -1 0
  outer loop
    vertex 16.38433535264593 10 -5.076361062844443
    vertex 12.17309748373079 10 -7.061453087808497
    vertex 16.34242003975681 10 -9.999411476488772
  endloop
endfacet
facet normal 0 -1 0
  outer loop
    vertex 12.01463136566409 10 -12.45863449006857
    vertex 16.76814524800279 10 -15.08119767642921
    vertex 16.34242003975681 10 -9.999411476488772
  endloop
endfacet
facet normal 0 -1 0
  outer loop
    vertex -10 10 -25
    vertex -12.4964688589326 10 -20.68591744668498
    vertex -15 10 -25
  endloop
endfacet
facet normal 0 -1 0
  outer loop
    vertex 10 10 -25
    vertex 7.452771190588611 10 -20.77287179570348
    vertex 5 10 -25
  endloop
endfacet
facet normal 0 -1 -0
  outer loop
    vertex 25 10 -10
    vertex 20.68591744668498 10 -12.4964688589326
    vertex 25 10 -15
  endloop
endfacet
facet normal 0 -1 -0
  outer loop
    vertex 25 10 10
    vertex 20.66987298107781 10 7.5
    vertex 25 10 5
  endloop
endfacet
facet normal 0 -1 0
  outer loop
    vertex 10 10 25
    vertex 12.2950057521039 10 20.92268749865723
    vertex 15 10 25
  endloop
endfacet
facet normal 0 -1 0
  outer loop
    vertex -10 10 25
    vertex -7.5 10 20.66987298107781
    vertex -5 10 25
  endloop
endfacet
facet normal 0 -1 0
  outer loop
    vertex -25 10 10
    vertex -20.69248944917229 10 12.46806591575817
    vertex -25 10 15
  endloop
endfacet
facet normal 0 -1 0
  outer loop
    vertex -25 10 -10
    vertex -19.8766586214116 10 -7.580449520222274
    vertex -25 10 -5
  endloop
endfacet
facet normal -0 -1 0
  outer loop
    vertex -12.4964688589326 10 -20.68591744668498
    vertex -15.75101607668544 10 -15.91614250348776
    vertex -17.47881315359562 10 -20.76613977472084
  endloop
endfacet
facet normal 0 -1 -0
  outer loop
    vertex 20.68591744668498 10 -12.4964688589326
    vertex 16.76814524800279 10 -15.08119767642921
    vertex 20.76613977472084 10 -17.47881315359562
  endloop
endfacet
facet normal 0 -1 0
  outer loop
    vertex -2.500000000000013 10 -12.00961894323341
    vertex 2.415196796107637 10 -12.0066529965819
    vertex 3.178753514558134e-06 10 -7.679506367631596
  endloop
endfacet
facet normal 0 -1 0
  outer loop
    vertex 16.34242003975681 10 -9.999411476488772
    vertex 16.76814524800279 10 -15.08119767642921
    vertex 20.68591744668498 10 -12.4964688589326
  endloop
endfacet
facet normal 0 -1 0
  outer loop
    vertex 10.00000000333843 10 9.641016136208595
    vertex 12.49999999999997 10 5.310889132455356
    vertex 15.7145372296634 10 9.822219168532081
  endloop
endfacet
facet normal 0 -1 -0
  outer loop
    vertex -12.32265640229887 10 -11.92286831067698
    vertex -15.75101607668544 10 -15.91614250348776
    vertex -9.99941147648877 10 -16.34242003975681
  endloop
endfacet
facet normal 0 -1 0
  outer loop
    vertex 17.22779727052849 10 20.22523585948801
    vertex 13.84484225588986 10 17.43073616258956
    vertex 16.90116389080628 10 14.99171452587717
  endloop
endfacet
facet normal 0 -1 0
  outer loop
    vertex -19.8766586214116 10 -7.580449520222274
    vertex -16.64286456768321 10 -4.036188083325251
    vertex -20.50302475901538 10 -2.140492046094463
  endloop
endfacet
facet normal 0 -1 0
  outer loop
    vertex 4.999999999999996 10 -16.33974596215561
    vertex 7.112423724442102 10 -12.3003539310817
    vertex 2.415196796107637 10 -12.0066529965819
  endloop
endfacet
facet normal 0 -1 0
  outer loop
    vertex 20 10 -25
    vertex 17.09080164542631 10 -20.29278796740301
    vertex 15 10 -25
  endloop
endfacet
facet normal 0 -1 -0
  outer loop
    vertex 25 10 20
    vertex 21.00540870587414 10 17.32576995094434
    vertex 25 10 15
  endloop
endfacet
facet normal 0 -1 0
  outer loop
    vertex -20 10 25
    vertex -17.20466949304551 10 20.30728280115161
    vertex -15 10 25
  endloop
endfacet
facet normal 0 -1 0
  outer loop
    vertex -25 10 -20
    vertex -20.8375637719526 10 -17.54371419592586
    vertex -25 10 -15
  endloop
endfacet
facet normal 0 -1 0
  outer loop
    vertex 7.452771190588611 10 -20.77287179570348
    vertex 9.556901135633293 10 -16.67022752644167
    vertex 4.999999999999996 10 -16.33974596215561
  endloop
endfacet
facet normal 0 -1 -0
  outer loop
    vertex 15.6554885206874 10 0.463401205536973
    vertex 12.2744812085741 10 -2.958754900577864
    vertex 16.38433535264593 10 -5.076361062844443
  endloop
endfacet
facet normal -0 -1 0
  outer loop
    vertex 20.77350269189625 10 2.499999999999999
    vertex 17.01313446053501 10 5.060868316992289
    vertex 15.6554885206874 10 0.463401205536973
  endloop
endfacet
facet normal 0 -1 -0
  outer loop
    vertex -15.72989488450865 10 9.838057079515165
    vertex -16.98237706870869 10 5.046484698000133
    vertex -12.50000000000003 10 5.310889132455369
  endloop
endfacet
facet normal 0 -1 0
  outer loop
    vertex 12.49999999999997 10 5.310889132455356
    vertex 17.01313446053501 10 5.060868316992289
    vertex 15.7145372296634 10 9.822219168532081
  endloop
endfacet
facet normal 0 -1 0
  outer loop
    vertex 2.415196796107637 10 -12.0066529965819
    vertex 7.112423724442102 10 -12.3003539310817
    vertex 4.716984826706421 10 -7.791986823939391
  endloop
endfacet
facet normal 0 -1 0
  outer loop
    vertex 15 10 -25
    vertex 17.09080164542631 10 -20.29278796740301
    vertex 12.21662714353167 10 -20.90733469879357
  endloop
endfacet
facet normal -0 -1 0
  outer loop
    vertex 25 10 15
    vertex 21.00540870587414 10 17.32576995094434
    vertex 20.56374511175445 10 12.39792335814524
  endloop
endfacet
facet normal 0 -1 -0
  outer loop
    vertex -15 10 25
    vertex -17.20466949304551 10 20.30728280115161
    vertex -12.29894016161892 10 21.02038715518301
  endloop
endfacet
facet normal 0 -1 0
  outer loop
    vertex -25 10 -15
    vertex -20.8375637719526 10 -17.54371419592586
    vertex -20.51851937522286 10 -12.9336282735329
  endloop
endfacet
facet normal 0 -1 -0
  outer loop
    vertex -15.66472318671821 10 0.6265446522030942
    vertex -16.64286456768321 10 -4.036188083325251
    vertex -12.36306211918123 10 -3.428445778109052
  endloop
endfacet
facet normal -0 -1 0
  outer loop
    vertex -12.32265640229887 10 -11.92286831067698
    vertex -16.65514092554167 10 -11.20223726646469
    vertex -15.75101607668544 10 -15.91614250348776
  endloop
endfacet
facet normal 0 -1 0
  outer loop
    vertex 12.21662714353167 10 -20.90733469879357
    vertex 9.556901135633293 10 -16.67022752644167
    vertex 7.452771190588611 10 -20.77287179570348
  endloop
endfacet
facet normal 0 -1 0
  outer loop
    vertex 7.884613282885837 10 -3.95498030575284
    vertex 12.2744812085741 10 -2.958754900577864
    vertex 9.999999999999972 10 0.980762113533165
  endloop
endfacet
facet normal 0 -1 0
  outer loop
    vertex 12.17309748373079 10 -7.061453087808497
    vertex 8.527729358174478 10 -8.48482618155087
    vertex 12.01463136566409 10 -12.45863449006857
  endloop
endfacet
facet normal 0 -1 0
  outer loop
    vertex -20 10 -25
    vertex -21.33974596215562 10 -21.33974596215562
    vertex -25 10 -25
  endloop
endfacet
facet normal 0 -1 0
  outer loop
    vertex -25 10 -25
    vertex -21.33974596215562 10 -21.33974596215562
    vertex -25 10 -20
  endloop
endfacet
facet normal 0 -1 0
  outer loop
    vertex 25 10 -25
    vertex 21.33974596215562 10 -21.33974596215562
    vertex 20 10 -25
  endloop
endfacet
facet normal 0 -1 -0
  outer loop
    vertex 25 10 -20
    vertex 21.33974596215562 10 -21.33974596215562
    vertex 25 10 -25
  endloop
endfacet
facet normal 0 -1 -0
  outer loop
    vertex 25 10 25
    vertex 21.33974596215562 10 21.33974596215562
    vertex 25 10 20
  endloop
endfacet
facet normal 0 -1 0
  outer loop
    vertex 20 10 25
    vertex 21.33974596215562 10 21.33974596215562
    vertex 25 10 25
  endloop
endfacet
facet normal 0 -1 0
  outer loop
    vertex -25 10 25
    vertex -21.33974596215562 10 21.33974596215562
    vertex -20 10 25
  endloop
endfacet
facet normal 0 -1 0
  outer loop
    vertex -25 10 20
    vertex -21.33974596215562 10 21.33974596215562
    vertex -25 10 25
  endloop
endfacet
facet normal 0 -1 0
  outer loop
    vertex 4.716984826706421 10 -7.791986823939391
    vertex 8.527729358174478 10 -8.48482618155087
    vertex 7.884613282885837 10 -3.95498030575284
  endloop
endfacet
facet normal 0 -1 0
  outer loop
    vertex 12.01463136566409 10 -12.45863449006857
    vertex 8.527729358174478 10 -8.48482618155087
    vertex 7.112423724442102 10 -12.3003539310817
  endloop
endfacet
facet normal -0 -1 0
  outer loop
    vertex 16.38433535264593 10 -5.076361062844443
    vertex 12.2744812085741 10 -2.958754900577864
    vertex 12.17309748373079 10 -7.061453087808497
  endloop
endfacet
facet normal 0 -1 0
  outer loop
    vertex -20.69248944917229 10 12.46806591575817
    vertex -16.90265585019133 10 14.99999999999999
    vertex -20.85251297925592 10 17.47033841503386
  endloop
endfacet
facet normal 0 -1 -0
  outer loop
    vertex 20.66987298107781 10 7.5
    vertex 17.01313446053501 10 5.060868316992289
    vertex 20.77350269189625 10 2.499999999999999
  endloop
endfacet
facet normal 0 -1 0
  outer loop
    vertex -12.50000000000003 10 5.310889132455369
    vertex -16.98237706870869 10 5.046484698000133
    vertex -15.66472318671821 10 0.6265446522030942
  endloop
endfacet
facet normal 0 -1 0
  outer loop
    vertex -20.64367146529339 10 2.617387215012932
    vertex -16.98237706870869 10 5.046484698000133
    vertex -20.66987298107781 10 7.5
  endloop
endfacet
facet normal 0 -1 0
  outer loop
    vertex 12.01463136566409 10 -12.45863449006857
    vertex 13.54495338957329 10 -17.24242428084709
    vertex 16.76814524800279 10 -15.08119767642921
  endloop
endfacet
facet normal -0 -1 0
  outer loop
    vertex 17.09080164542631 10 -20.29278796740301
    vertex 13.54495338957329 10 -17.24242428084709
    vertex 12.21662714353167 10 -20.90733469879357
  endloop
endfacet
facet normal 0 -1 0
  outer loop
    vertex 21.00540870587414 10 17.32576995094434
    vertex 16.90116389080628 10 14.99171452587717
    vertex 20.56374511175445 10 12.39792335814524
  endloop
endfacet
facet normal 0 -1 0
  outer loop
    vertex 12.2950057521039 10 20.92268749865723
    vertex 13.84484225588986 10 17.43073616258956
    vertex 17.22779727052849 10 20.22523585948801
  endloop
endfacet
facet normal 0 -1 0
  outer loop
    vertex -12.36306211918123 10 -3.428445778109052
    vertex -16.64286456768321 10 -4.036188083325251
    vertex -14.80685415208962 10 -7.658097724403558
  endloop
endfacet
facet normal 0 -1 -0
  outer loop
    vertex 7.5 10 20.66987298107781
    vertex 4.999999999999991 10 17.32050807568878
    vertex 10.00000000000001 10 17.32050807568879
  endloop
endfacet
facet normal 0 -1 0
  outer loop
    vertex 10.00000000000001 10 17.32050807568879
    vertex 4.999999999999991 10 17.32050807568878
    vertex 7.499999999999977 10 13.97114317029975
  endloop
endfacet
facet normal 0 -1 0
  outer loop
    vertex 12.40545439360054 10 13.91399102703821
    vertex 10.00000000000001 10 17.32050807568879
    vertex 7.499999999999977 10 13.97114317029975
  endloop
endfacet
facet normal 0 -1 0
  outer loop
    vertex 2.5 10 20.66987298107781
    vertex 4.999999999999991 10 17.32050807568878
    vertex 7.5 10 20.66987298107781
  endloop
endfacet
facet normal -0 -1 0
  outer loop
    vertex -8.141635513917814e-15 10 17.32050807568878
    vertex -5.000000000000006 10 17.32050807568879
    vertex -2.500000000000027 10 13.97114317029975
  endloop
endfacet
facet normal -0 -1 0
  outer loop
    vertex -7.500000000000025 10 13.97114317029975
    vertex -9.999999999999995 10 17.32050807568879
    vertex -12.40533815279636 10 13.91449427572276
  endloop
endfacet
facet normal 0 -1 -0
  outer loop
    vertex -2.5 10 20.66987298107781
    vertex -5.000000000000006 10 17.32050807568879
    vertex -8.141635513917814e-15 10 17.32050807568878
  endloop
endfacet
facet normal 0 -1 0
  outer loop
    vertex 2.499999999999972 10 13.97114317029975
    vertex -8.141635513917814e-15 10 17.32050807568878
    vertex -2.500000000000027 10 13.97114317029975
  endloop
endfacet
facet normal 0 -1 0
  outer loop
    vertex -2.500000000000027 10 13.97114317029975
    vertex -5.000000000000006 10 17.32050807568879
    vertex -7.500000000000025 10 13.97114317029975
  endloop
endfacet
facet normal 0 -1 0
  outer loop
    vertex -7.5 10 20.66987298107781
    vertex -5.000000000000006 10 17.32050807568879
    vertex -2.5 10 20.66987298107781
  endloop
endfacet
facet normal 0 -1 0
  outer loop
    vertex 7.499999999999977 10 13.97114317029975
    vertex 4.999999999999991 10 17.32050807568878
    vertex 2.499999999999972 10 13.97114317029975
  endloop
endfacet
facet normal 0 -1 0
  outer loop
    vertex -2.5 10 20.66987298107781
    vertex -8.141635513917814e-15 10 17.32050807568878
    vertex 2.5 10 20.66987298107781
  endloop
endfacet
facet normal 0 -1 0
  outer loop
    vertex 7.5 10 20.66987298107781
    vertex 10.00000000000001 10 17.32050807568879
    vertex 12.2950057521039 10 20.92268749865723
  endloop
endfacet
facet normal 0 -1 0
  outer loop
    vertex -12.29894016161892 10 21.02038715518301
    vertex -9.999999999999995 10 17.32050807568879
    vertex -7.5 10 20.66987298107781
  endloop
endfacet
facet normal -0 -1 0
  outer loop
    vertex -5.000000000000006 10 17.32050807568879
    vertex -9.999999999999995 10 17.32050807568879
    vertex -7.500000000000025 10 13.97114317029975
  endloop
endfacet
facet normal 0 -1 -0
  outer loop
    vertex -7.5 10 20.66987298107781
    vertex -9.999999999999995 10 17.32050807568879
    vertex -5.000000000000006 10 17.32050807568879
  endloop
endfacet
facet normal -0 -1 0
  outer loop
    vertex 4.999999999999991 10 17.32050807568878
    vertex -8.141635513917814e-15 10 17.32050807568878
    vertex 2.499999999999972 10 13.97114317029975
  endloop
endfacet
facet normal 0 -1 -0
  outer loop
    vertex 2.5 10 20.66987298107781
    vertex -8.141635513917814e-15 10 17.32050807568878
    vertex 4.999999999999991 10 17.32050807568878
  endloop
endfacet
facet normal 0 -1 0
  outer loop
    vertex 9.556901135633293 10 -16.67022752644167
    vertex 13.54495338957329 10 -17.24242428084709
    vertex 12.01463136566409 10 -12.45863449006857
  endloop
endfacet
facet normal 0 -1 -0
  outer loop
    vertex -14.80685415208962 10 -7.658097724403558
    vertex -16.65514092554167 10 -11.20223726646469
    vertex -12.32265640229887 10 -11.92286831067698
  endloop
endfacet
facet normal 0 -1 0
  outer loop
    vertex -17.20466949304551 10 20.30728280115161
    vertex -13.76232073153042 10 17.51253446154923
    vertex -12.29894016161892 10 21.02038715518301
  endloop
endfacet
facet normal 0 -1 0
  outer loop
    vertex 20 10 -25
    vertex 21.33974596215562 10 -21.33974596215562
    vertex 17.09080164542631 10 -20.29278796740301
  endloop
endfacet
facet normal -0 -1 0
  outer loop
    vertex 25 10 20
    vertex 21.33974596215562 10 21.33974596215562
    vertex 21.00540870587414 10 17.32576995094434
  endloop
endfacet
facet normal 0 -1 -0
  outer loop
    vertex -20 10 25
    vertex -21.33974596215562 10 21.33974596215562
    vertex -17.20466949304551 10 20.30728280115161
  endloop
endfacet
facet normal 0 -1 0
  outer loop
    vertex -25 10 -20
    vertex -21.33974596215562 10 -21.33974596215562
    vertex -20.8375637719526 10 -17.54371419592586
  endloop
endfacet
facet normal 0 -1 0
  outer loop
    vertex -17.47881315359562 10 -20.76613977472084
    vertex -21.33974596215562 10 -21.33974596215562
    vertex -20 10 -25
  endloop
endfacet
facet normal 0 -1 0
  outer loop
    vertex 20.76613977472084 10 -17.47881315359562
    vertex 21.33974596215562 10 -21.33974596215562
    vertex 25 10 -20
  endloop
endfacet
facet normal 0 -1 0
  outer loop
    vertex 17.22779727052849 10 20.22523585948801
    vertex 21.33974596215562 10 21.33974596215562
    vertex 20 10 25
  endloop
endfacet
facet normal 0 -1 0
  outer loop
    vertex -20.85251297925592 10 17.47033841503386
    vertex -21.33974596215562 10 21.33974596215562
    vertex -25 10 20
  endloop
endfacet
facet normal 0 -1 -0
  outer loop
    vertex -20.8375637719526 10 -17.54371419592586
    vertex -21.33974596215562 10 -21.33974596215562
    vertex -17.47881315359562 10 -20.76613977472084
  endloop
endfacet
facet normal 0 -1 0
  outer loop
    vertex 17.09080164542631 10 -20.29278796740301
    vertex 21.33974596215562 10 -21.33974596215562
    vertex 20.76613977472084 10 -17.47881315359562
  endloop
endfacet
facet normal 0 -1 0
  outer loop
    vertex 21.00540870587414 10 17.32576995094434
    vertex 21.33974596215562 10 21.33974596215562
    vertex 17.22779727052849 10 20.22523585948801
  endloop
endfacet
facet normal -0 -1 0
  outer loop
    vertex -17.20466949304551 10 20.30728280115161
    vertex -21.33974596215562 10 21.33974596215562
    vertex -20.85251297925592 10 17.47033841503386
  endloop
endfacet
facet normal 0 -1 0
  outer loop
    vertex 7.112423724442102 10 -12.3003539310817
    vertex 8.527729358174478 10 -8.48482618155087
    vertex 4.716984826706421 10 -7.791986823939391
  endloop
endfacet
facet normal 0 -1 0
  outer loop
    vertex 12.21662714353167 10 -20.90733469879357
    vertex 13.54495338957329 10 -17.24242428084709
    vertex 9.556901135633293 10 -16.67022752644167
  endloop
endfacet
facet normal 0 -1 0
  outer loop
    vertex -12.40533815279636 10 13.91449427572276
    vertex -13.76232073153042 10 17.51253446154923
    vertex -16.90265585019133 10 14.99999999999999
  endloop
endfacet
facet normal -0 -1 0
  outer loop
    vertex 16.90116389080628 10 14.99171452587717
    vertex 13.84484225588986 10 17.43073616258956
    vertex 12.40545439360054 10 13.91399102703821
  endloop
endfacet
facet normal 0 -1 0
  outer loop
    vertex 12.40545439360054 10 13.91399102703821
    vertex 13.84484225588986 10 17.43073616258956
    vertex 10.00000000000001 10 17.32050807568879
  endloop
endfacet
facet normal 0 -1 0
  outer loop
    vertex 10.00000000000001 10 17.32050807568879
    vertex 13.84484225588986 10 17.43073616258956
    vertex 12.2950057521039 10 20.92268749865723
  endloop
endfacet
facet normal -0 -1 0
  outer loop
    vertex -9.999999999999995 10 17.32050807568879
    vertex -13.76232073153042 10 17.51253446154923
    vertex -12.40533815279636 10 13.91449427572276
  endloop
endfacet
facet normal 0 -1 -0
  outer loop
    vertex -12.29894016161892 10 21.02038715518301
    vertex -13.76232073153042 10 17.51253446154923
    vertex -9.999999999999995 10 17.32050807568879
  endloop
endfacet
endsolid Created by Gmsh
