solid Created by Gmsh
facet normal 0 0 -1
  outer loop
    vertex 0.463401205536973 15.6554885206874 -10
    vertex 5.310889132455356 12.49999999999997 -10
    vertex 0.980762113533165 9.999999999999972 -10
  endloop
endfacet
facet normal -0 0 -1
  outer loop
    vertex -12.9336282735329 -20.51851937522286 -10
    vertex -17.54371419592586 -20.8375637719526 -10
    vertex -15.91614250348776 -15.75101607668544 -10
  endloop
endfacet
facet normal 0 -0 -1
  outer loop
    vertex 0.6265446522030942 -15.66472318671821 -10
    vertex 2.617387215012932 -20.64367146529339 -10
    vertex -2.140492046094463 -20.50302475901538 -10
  endloop
endfacet
facet normal 0 0 -1
  outer loop
    vertex -15.91614250348776 -15.75101607668544 -10
    vertex -11.20223726646469 -16.65514092554167 -10
    vertex -12.9336282735329 -20.51851937522286 -10
  endloop
endfacet
facet normal 0 0 -1
  outer loop
    vertex 9.822219168532081 15.7145372296634 -10
    vertex 7.5 20.66987298107781 -10
    vertex 12.39792335814524 20.56374511175445 -10
  endloop
endfacet
facet normal 0 -0 -1
  outer loop
    vertex 9.838057079515165 -15.72989488450865 -10
    vertex 12.46806591575817 -20.69248944917229 -10
    vertex 7.5 -20.66987298107781 -10
  endloop
endfacet
facet normal 0 0 -1
  outer loop
    vertex -2.140492046094463 -20.50302475901538 -10
    vertex -4.036188083325251 -16.64286456768321 -10
    vertex 0.6265446522030942 -15.66472318671821 -10
  endloop
endfacet
facet normal 0 0 -1
  outer loop
    vertex 0.463401205536973 15.6554885206874 -10
    vertex 5.060868316992289 17.01313446053501 -10
    vertex 5.310889132455356 12.49999999999997 -10
  endloop
endfacet
facet normal 0 0 -1
  outer loop
    vertex 9.838057079515165 -15.72989488450865 -10
    vertex 14.99999999999999 -16.90265585019133 -10
    vertex 12.46806591575817 -20.69248944917229 -10
  endloop
endfacet
facet normal 0 -0 -1
  outer loop
    vertex 12.39792335814524 20.56374511175445 -10
    vertex 14.99171452587717 16.90116389080628 -10
    vertex 9.822219168532081 15.7145372296634 -10
  endloop
endfacet
facet normal 0 0 -1
  outer loop
    vertex 0.980762113533165 9.999999999999972 -10
    vertex -2.958754900577864 12.2744812085741 -10
    vertex 0.463401205536973 15.6554885206874 -10
  endloop
endfacet
facet normal 0 0 -1
  outer loop
    vertex -7.061453087808497 12.17309748373079 -10
    vertex -2.958754900577864 12.2744812085741 -10
    vertex -3.95498030575284 7.884613282885837 -10
  endloop
endfacet
facet normal 0 0 -1
  outer loop
    vertex 9.822219168532081 15.7145372296634 -10
    vertex 5.060868316992289 17.01313446053501 -10
    vertex 7.5 20.66987298107781 -10
  endloop
endfacet
facet normal 0 0 -1
  outer loop
    vertex 7.5 -20.66987298107781 -10
    vertex 5.046484698000133 -16.98237706870869 -10
    vertex 9.838057079515165 -15.72989488450865 -10
  endloop
endfacet
facet normal 0 0 -1
  outer loop
    vertex -3.95498030575284 7.884613282885837 -10
    vertex -8.48482618155087 8.527729358174478 -10
    vertex -7.061453087808497 12.17309748373079 -10
  endloop
endfacet
facet normal 0 0 -1
  outer loop
    vertex -15.91614250348776 -15.75101607668544 -10
    vertex -17.54371419592586 -20.8375637719526 -10
    vertex -20.76613977472084 -17.47881315359562 -10
  endloop
endfacet
facet normal 0 0 -1
  outer loop
    vertex -15.08119767642921 16.76814524800279 -10
    vertex -20.29278796740301 17.09080164542631 -10
    vertex -17.47881315359562 20.76613977472084 -10
  endloop
endfacet
facet normal 0 0 -1
  outer loop
    vertex -7.580449520222274 -19.8766586214116 -10
    vertex -11.20223726646469 -16.65514092554167 -10
    vertex -7.658097724403558 -14.80685415208962 -10
  endloop
endfacet
facet normal 0 0 -1
  outer loop
    vertex -16.33974596215561 4.999999999999996 -10
    vertex -16.67022752644167 9.556901135633293 -10
    vertex -12.3003539310817 7.112423724442102 -10
  endloop
endfacet
facet normal 0 0 -1
  outer loop
    vertex -7.658097724403558 -14.80685415208962 -10
    vertex -4.036188083325251 -16.64286456768321 -10
    vertex -7.580449520222274 -19.8766586214116 -10
  endloop
endfacet
facet normal 0 0 -1
  outer loop
    vertex 17.47033841503386 -20.85251297925592 -10
    vertex 14.99999999999999 -16.90265585019133 -10
    vertex 20.30728280115161 -17.20466949304551 -10
  endloop
endfacet
facet normal 0 -0 -1
  outer loop
    vertex 13.91449427572276 -12.40533815279636 -10
    vertex 14.99999999999999 -16.90265585019133 -10
    vertex 9.838057079515165 -15.72989488450865 -10
  endloop
endfacet
facet normal 0 0 -1
  outer loop
    vertex 9.822219168532081 15.7145372296634 -10
    vertex 14.99171452587717 16.90116389080628 -10
    vertex 13.91399102703821 12.40545439360054 -10
  endloop
endfacet
facet normal -0 0 -1
  outer loop
    vertex -15.08119767642921 16.76814524800279 -10
    vertex -17.24242428084709 13.54495338957329 -10
    vertex -20.29278796740301 17.09080164542631 -10
  endloop
endfacet
facet normal 0 0 -1
  outer loop
    vertex 0.6265446522030942 -15.66472318671821 -10
    vertex 5.046484698000133 -16.98237706870869 -10
    vertex 2.617387215012932 -20.64367146529339 -10
  endloop
endfacet
facet normal -0 0 -1
  outer loop
    vertex 20.22523585948801 17.22779727052849 -10
    vertex 14.99171452587717 16.90116389080628 -10
    vertex 17.32576995094434 21.00540870587414 -10
  endloop
endfacet
facet normal 0 0 -1
  outer loop
    vertex -12.9336282735329 -20.51851937522286 -10
    vertex -11.20223726646469 -16.65514092554167 -10
    vertex -7.580449520222274 -19.8766586214116 -10
  endloop
endfacet
facet normal 0 0 -1
  outer loop
    vertex -12.3003539310817 7.112423724442102 -10
    vertex -16.67022752644167 9.556901135633293 -10
    vertex -12.45863449006857 12.01463136566409 -10
  endloop
endfacet
facet normal 0 0 -1
  outer loop
    vertex 14.99999999999999 -16.90265585019133 -10
    vertex 17.51253446154923 -13.76232073153042 -10
    vertex 20.30728280115161 -17.20466949304551 -10
  endloop
endfacet
facet normal -0 0 -1
  outer loop
    vertex 5.310889132455369 -12.50000000000003 -10
    vertex 0.6265446522030942 -15.66472318671821 -10
    vertex 0.9675756472697368 -9.9771756287501 -10
  endloop
endfacet
facet normal -0 0 -1
  outer loop
    vertex -16.33982024208897 1.634787530539287e-05 -10
    vertex -20.66995964100006 -2.499980927478805 -10
    vertex -20.66987298107781 2.499999999999999 -10
  endloop
endfacet
facet normal 0 0 -1
  outer loop
    vertex -20.66987298107781 2.499999999999999 -10
    vertex -16.33974596215561 4.999999999999996 -10
    vertex -16.33982024208897 1.634787530539287e-05 -10
  endloop
endfacet
facet normal 0 0 -1
  outer loop
    vertex 9.641016148428037 -9.999999999350884 -10
    vertex 5.308690838554686 -7.49619581718335 -10
    vertex 9.641016133680438 -4.999999996105164 -10
  endloop
endfacet
facet normal 0 0 -1
  outer loop
    vertex 0.9675756472697368 -9.9771756287501 -10
    vertex 5.308690838554686 -7.49619581718335 -10
    vertex 5.310889132455369 -12.50000000000003 -10
  endloop
endfacet
facet normal 0 0 -1
  outer loop
    vertex -20.66987298107781 2.499999999999999 -10
    vertex -20.77287179570348 7.452771190588611 -10
    vertex -16.33974596215561 4.999999999999996 -10
  endloop
endfacet
facet normal 0 0 -1
  outer loop
    vertex 2.499999999999999 20.77350269189625 -10
    vertex 0.463401205536973 15.6554885206874 -10
    vertex -2.512726843807409 20.69457616462926 -10
  endloop
endfacet
facet normal 0 0 -1
  outer loop
    vertex -16.34019164175581 -4.999901912748133 -10
    vertex -20.66995964100006 -2.499980927478805 -10
    vertex -16.33982024208897 1.634787530539287e-05 -10
  endloop
endfacet
facet normal 0 0 -1
  outer loop
    vertex -3.349399553755586 -7.499992374425382 -10
    vertex -3.428445778109052 -12.36306211918123 -10
    vertex -7.679593027553867 -9.999977748725287 -10
  endloop
endfacet
facet normal 0 0 -1
  outer loop
    vertex 9.641016133680438 -4.999999996105164 -10
    vertex 5.310521624325329 -2.499365721756332 -10
    vertex 9.641016045194876 2.336915253901376e-08 -10
  endloop
endfacet
facet normal 0 0 -1
  outer loop
    vertex 5.310889132455369 -12.50000000000003 -10
    vertex 5.308690838554686 -7.49619581718335 -10
    vertex 9.641016148428037 -9.999999999350884 -10
  endloop
endfacet
facet normal -0 0 -1
  outer loop
    vertex -7.679593027553867 -9.999977748725287 -10
    vertex -11.92286831067698 -12.32265640229887 -10
    vertex -12.01013890276698 -7.499885564872827 -10
  endloop
endfacet
facet normal 0 0 -1
  outer loop
    vertex 9.641016060363828 5.000000020030699 -10
    vertex 13.97114317029975 7.499999999999977 -10
    vertex 13.97114317029975 2.499999999999972 -10
  endloop
endfacet
facet normal 0 0 -1
  outer loop
    vertex 5.308690838554686 -7.49619581718335 -10
    vertex 5.310521624325329 -2.499365721756332 -10
    vertex 9.641016133680438 -4.999999996105164 -10
  endloop
endfacet
facet normal 0 -0 -1
  outer loop
    vertex -16.33974596215561 4.999999999999996 -10
    vertex -12.0066529965819 2.415196796107637 -10
    vertex -16.33982024208897 1.634787530539287e-05 -10
  endloop
endfacet
facet normal 0 -0 -1
  outer loop
    vertex -2.512726843807409 20.69457616462926 -10
    vertex 0.463401205536973 15.6554885206874 -10
    vertex -5.076361062844443 16.38433535264593 -10
  endloop
endfacet
facet normal 0 -0 -1
  outer loop
    vertex -20.66987298107781 -7.500000000000002 -10
    vertex -16.34242003975681 -9.99941147648877 -10
    vertex -20.68591744668498 -12.4964688589326 -10
  endloop
endfacet
facet normal 0 0 -1
  outer loop
    vertex -20.66987298107781 -7.500000000000002 -10
    vertex -20.66995964100006 -2.499980927478805 -10
    vertex -16.34019164175581 -4.999901912748133 -10
  endloop
endfacet
facet normal -0 0 -1
  outer loop
    vertex -7.500000000000002 20.66987298107781 -10
    vertex -9.999411476488772 16.34242003975681 -10
    vertex -12.4964688589326 20.68591744668498 -10
  endloop
endfacet
facet normal 0 0 -1
  outer loop
    vertex -7.500000000000002 20.66987298107781 -10
    vertex -2.512726843807409 20.69457616462926 -10
    vertex -5.076361062844443 16.38433535264593 -10
  endloop
endfacet
facet normal 0 0 -1
  outer loop
    vertex -16.34019164175581 -4.999901912748133 -10
    vertex -16.33982024208897 1.634787530539287e-05 -10
    vertex -12.00961894323341 -2.500000000000013 -10
  endloop
endfacet
facet normal 0 0 -1
  outer loop
    vertex -3.349381755929469 -2.499996291454233 -10
    vertex -3.349399553755586 -7.499992374425382 -10
    vertex -7.679578584233486 -4.99998092747882 -10
  endloop
endfacet
facet normal 0 -0 -1
  outer loop
    vertex -7.679578584233486 -4.99998092747882 -10
    vertex -3.349399553755586 -7.499992374425382 -10
    vertex -7.679593027553867 -9.999977748725287 -10
  endloop
endfacet
facet normal 0 -0 -1
  outer loop
    vertex 5.310889132455358 7.499999999999973 -10
    vertex 9.641016060363828 5.000000020030699 -10
    vertex 5.310888586373029 2.500000120184327 -10
  endloop
endfacet
facet normal -0 0 -1
  outer loop
    vertex 9.641016045194876 2.336915253901376e-08 -10
    vertex 5.310521624325329 -2.499365721756332 -10
    vertex 5.310888586373029 2.500000120184327 -10
  endloop
endfacet
facet normal -0 0 -1
  outer loop
    vertex -3.428445778109052 -12.36306211918123 -10
    vertex -7.658097724403558 -14.80685415208962 -10
    vertex -7.679593027553867 -9.999977748725287 -10
  endloop
endfacet
facet normal 0 0 -1
  outer loop
    vertex -7.658097724403558 -14.80685415208962 -10
    vertex -11.92286831067698 -12.32265640229887 -10
    vertex -7.679593027553867 -9.999977748725287 -10
  endloop
endfacet
facet normal 0 -0 -1
  outer loop
    vertex 9.641016136208595 10.00000000333843 -10
    vertex 13.97114317029975 7.499999999999977 -10
    vertex 9.641016060363828 5.000000020030699 -10
  endloop
endfacet
facet normal 0 0 -1
  outer loop
    vertex 0.9675756472697368 -9.9771756287501 -10
    vertex 0.6265446522030942 -15.66472318671821 -10
    vertex -3.428445778109052 -12.36306211918123 -10
  endloop
endfacet
facet normal 0 0 -1
  outer loop
    vertex -16.34019164175581 -4.999901912748133 -10
    vertex -12.00961894323341 -2.500000000000013 -10
    vertex -12.01013890276698 -7.499885564872827 -10
  endloop
endfacet
facet normal 0 0 -1
  outer loop
    vertex -12.00961894323341 -2.500000000000013 -10
    vertex -7.679506367631596 3.178753514558134e-06 -10
    vertex -7.679578584233486 -4.99998092747882 -10
  endloop
endfacet
facet normal 0 -0 -1
  outer loop
    vertex -7.679506367631596 3.178753514558134e-06 -10
    vertex -3.349381755929469 -2.499996291454233 -10
    vertex -7.679578584233486 -4.99998092747882 -10
  endloop
endfacet
facet normal 0 0 -1
  outer loop
    vertex -7.679506367631596 3.178753514558134e-06 -10
    vertex -3.349364905389027 2.499999999999979 -10
    vertex -3.349381755929469 -2.499996291454233 -10
  endloop
endfacet
facet normal 0 -0 -1
  outer loop
    vertex -3.349364905389027 2.499999999999979 -10
    vertex 0.9807593051097581 6.18090939615475e-07 -10
    vertex -3.349381755929469 -2.499996291454233 -10
  endloop
endfacet
facet normal 0 0 -1
  outer loop
    vertex 0.9807593051097581 6.18090939615475e-07 -10
    vertex 0.9807588370391871 -4.999999278893899 -10
    vertex -3.349381755929469 -2.499996291454233 -10
  endloop
endfacet
facet normal -0 0 -1
  outer loop
    vertex 0.9807588370391871 -4.999999278893899 -10
    vertex -3.349399553755586 -7.499992374425382 -10
    vertex -3.349381755929469 -2.499996291454233 -10
  endloop
endfacet
facet normal 0 -0 -1
  outer loop
    vertex 0.9807593051097581 6.18090939615475e-07 -10
    vertex 5.310521624325329 -2.499365721756332 -10
    vertex 0.9807588370391871 -4.999999278893899 -10
  endloop
endfacet
facet normal 0 0 -1
  outer loop
    vertex 5.310888586373029 2.500000120184327 -10
    vertex 5.310521624325329 -2.499365721756332 -10
    vertex 0.9807593051097581 6.18090939615475e-07 -10
  endloop
endfacet
facet normal 0 0 -1
  outer loop
    vertex 0.9807588370391871 -4.999999278893899 -10
    vertex 0.9675756472697368 -9.9771756287501 -10
    vertex -3.349399553755586 -7.499992374425382 -10
  endloop
endfacet
facet normal 0 0 -1
  outer loop
    vertex 5.310889132455358 7.499999999999973 -10
    vertex 9.641016136208595 10.00000000333843 -10
    vertex 9.641016060363828 5.000000020030699 -10
  endloop
endfacet
facet normal -0 0 -1
  outer loop
    vertex 13.97114317029975 -2.500000000000027 -10
    vertex 9.641016133680438 -4.999999996105164 -10
    vertex 9.641016045194876 2.336915253901376e-08 -10
  endloop
endfacet
facet normal 0 0 -1
  outer loop
    vertex 9.641016136208595 10.00000000333843 -10
    vertex 13.91399102703821 12.40545439360054 -10
    vertex 13.97114317029975 7.499999999999977 -10
  endloop
endfacet
facet normal -0 0 -1
  outer loop
    vertex 13.97114317029975 -7.500000000000025 -10
    vertex 9.641016148428037 -9.999999999350884 -10
    vertex 9.641016133680438 -4.999999996105164 -10
  endloop
endfacet
facet normal 0 0 -1
  outer loop
    vertex 13.97114317029975 -7.500000000000025 -10
    vertex 13.91449427572276 -12.40533815279636 -10
    vertex 9.641016148428037 -9.999999999350884 -10
  endloop
endfacet
facet normal -0 0 -1
  outer loop
    vertex 13.91449427572276 -12.40533815279636 -10
    vertex 9.838057079515165 -15.72989488450865 -10
    vertex 9.641016148428037 -9.999999999350884 -10
  endloop
endfacet
facet normal 0 -0 -1
  outer loop
    vertex -3.349399553755586 -7.499992374425382 -10
    vertex 0.9675756472697368 -9.9771756287501 -10
    vertex -3.428445778109052 -12.36306211918123 -10
  endloop
endfacet
facet normal -0 0 -1
  outer loop
    vertex -7.061453087808497 12.17309748373079 -10
    vertex -12.45863449006857 12.01463136566409 -10
    vertex -9.999411476488772 16.34242003975681 -10
  endloop
endfacet
facet normal 0 0 -1
  outer loop
    vertex -25 -15 -10
    vertex -20.76613977472084 -17.47881315359562 -10
    vertex -25 -20 -10
  endloop
endfacet
facet normal 0 0 -1
  outer loop
    vertex -25 -5 -10
    vertex -20.66987298107781 -7.500000000000002 -10
    vertex -25 -10 -10
  endloop
endfacet
facet normal 0 0 -1
  outer loop
    vertex -20.66987298107781 -7.500000000000002 -10
    vertex -20.68591744668498 -12.4964688589326 -10
    vertex -25 -10 -10
  endloop
endfacet
facet normal 0 0 -1
  outer loop
    vertex -25 0 -10
    vertex -20.66995964100006 -2.499980927478805 -10
    vertex -25 -5 -10
  endloop
endfacet
facet normal 0 0 -1
  outer loop
    vertex -25 5 -10
    vertex -20.66987298107781 2.499999999999999 -10
    vertex -25 0 -10
  endloop
endfacet
facet normal 0 0 -1
  outer loop
    vertex -20.66987298107781 2.499999999999999 -10
    vertex -20.66995964100006 -2.499980927478805 -10
    vertex -25 0 -10
  endloop
endfacet
facet normal 0 0 -1
  outer loop
    vertex -25 15 -10
    vertex -20.90733469879357 12.21662714353167 -10
    vertex -25 10 -10
  endloop
endfacet
facet normal 0 -0 -1
  outer loop
    vertex -20.90733469879357 12.21662714353167 -10
    vertex -20.77287179570348 7.452771190588611 -10
    vertex -25 10 -10
  endloop
endfacet
facet normal -0 0 -1
  outer loop
    vertex -15 25 -10
    vertex -17.47881315359562 20.76613977472084 -10
    vertex -20 25 -10
  endloop
endfacet
facet normal -0 0 -1
  outer loop
    vertex -5 25 -10
    vertex -7.500000000000002 20.66987298107781 -10
    vertex -10 25 -10
  endloop
endfacet
facet normal 0 0 -1
  outer loop
    vertex -7.500000000000002 20.66987298107781 -10
    vertex -12.4964688589326 20.68591744668498 -10
    vertex -10 25 -10
  endloop
endfacet
facet normal -0 0 -1
  outer loop
    vertex 0 25 -10
    vertex -2.512726843807409 20.69457616462926 -10
    vertex -5 25 -10
  endloop
endfacet
facet normal -0 0 -1
  outer loop
    vertex 5 25 -10
    vertex 2.499999999999999 20.77350269189625 -10
    vertex 0 25 -10
  endloop
endfacet
facet normal -0 0 -1
  outer loop
    vertex 2.499999999999999 20.77350269189625 -10
    vertex -2.512726843807409 20.69457616462926 -10
    vertex 0 25 -10
  endloop
endfacet
facet normal -0 0 -1
  outer loop
    vertex 15 25 -10
    vertex 12.39792335814524 20.56374511175445 -10
    vertex 10 25 -10
  endloop
endfacet
facet normal 0 0 -1
  outer loop
    vertex 12.39792335814524 20.56374511175445 -10
    vertex 7.5 20.66987298107781 -10
    vertex 10 25 -10
  endloop
endfacet
facet normal 0 0 -1
  outer loop
    vertex 25 15 -10
    vertex 20.22523585948801 17.22779727052849 -10
    vertex 25 20 -10
  endloop
endfacet
facet normal 0 0 -1
  outer loop
    vertex 25 5 -10
    vertex 20.66987298107781 7.5 -10
    vertex 25 10 -10
  endloop
endfacet
facet normal 0 0 -1
  outer loop
    vertex 20.66987298107781 7.5 -10
    vertex 20.92268749865723 12.2950057521039 -10
    vertex 25 10 -10
  endloop
endfacet
facet normal 0 0 -1
  outer loop
    vertex 25 0 -10
    vertex 20.66987298107781 2.5 -10
    vertex 25 5 -10
  endloop
endfacet
facet normal 0 0 -1
  outer loop
    vertex 25 -5 -10
    vertex 20.66987298107781 -2.5 -10
    vertex 25 0 -10
  endloop
endfacet
facet normal 0 0 -1
  outer loop
    vertex 20.66987298107781 -2.5 -10
    vertex 20.66987298107781 2.5 -10
    vertex 25 0 -10
  endloop
endfacet
facet normal 0 0 -1
  outer loop
    vertex 25 -15 -10
    vertex 21.02038715518301 -12.29894016161892 -10
    vertex 25 -10 -10
  endloop
endfacet
facet normal 0 0 -1
  outer loop
    vertex 21.02038715518301 -12.29894016161892 -10
    vertex 20.66987298107781 -7.5 -10
    vertex 25 -10 -10
  endloop
endfacet
facet normal 0 0 -1
  outer loop
    vertex 15 -25 -10
    vertex 17.47033841503386 -20.85251297925592 -10
    vertex 20 -25 -10
  endloop
endfacet
facet normal 0 0 -1
  outer loop
    vertex 5 -25 -10
    vertex 7.5 -20.66987298107781 -10
    vertex 10 -25 -10
  endloop
endfacet
facet normal 0 0 -1
  outer loop
    vertex 7.5 -20.66987298107781 -10
    vertex 12.46806591575817 -20.69248944917229 -10
    vertex 10 -25 -10
  endloop
endfacet
facet normal 0 0 -1
  outer loop
    vertex 0 -25 -10
    vertex 2.617387215012932 -20.64367146529339 -10
    vertex 5 -25 -10
  endloop
endfacet
facet normal 0 0 -1
  outer loop
    vertex -5 -25 -10
    vertex -2.140492046094463 -20.50302475901538 -10
    vertex 0 -25 -10
  endloop
endfacet
facet normal 0 0 -1
  outer loop
    vertex -2.140492046094463 -20.50302475901538 -10
    vertex 2.617387215012932 -20.64367146529339 -10
    vertex 0 -25 -10
  endloop
endfacet
facet normal 0 0 -1
  outer loop
    vertex -15 -25 -10
    vertex -12.9336282735329 -20.51851937522286 -10
    vertex -10 -25 -10
  endloop
endfacet
facet normal 0 0 -1
  outer loop
    vertex -12.9336282735329 -20.51851937522286 -10
    vertex -7.580449520222274 -19.8766586214116 -10
    vertex -10 -25 -10
  endloop
endfacet
facet normal 0 -0 -1
  outer loop
    vertex -12.01013890276698 -7.499885564872827 -10
    vertex -11.92286831067698 -12.32265640229887 -10
    vertex -16.34242003975681 -9.99941147648877 -10
  endloop
endfacet
facet normal 0 -0 -1
  outer loop
    vertex -12.00961894323341 -2.500000000000013 -10
    vertex -7.679578584233486 -4.99998092747882 -10
    vertex -12.01013890276698 -7.499885564872827 -10
  endloop
endfacet
facet normal 0 0 -1
  outer loop
    vertex -7.679578584233486 -4.99998092747882 -10
    vertex -7.679593027553867 -9.999977748725287 -10
    vertex -12.01013890276698 -7.499885564872827 -10
  endloop
endfacet
facet normal 0 0 -1
  outer loop
    vertex -7.679506367631596 3.178753514558134e-06 -10
    vertex -7.791986823939391 4.716984826706421 -10
    vertex -3.349364905389027 2.499999999999979 -10
  endloop
endfacet
facet normal 0 0 -1
  outer loop
    vertex -3.349364905389027 2.499999999999979 -10
    vertex 0.9807616454625978 5.000000103015134 -10
    vertex 0.9807593051097581 6.18090939615475e-07 -10
  endloop
endfacet
facet normal 0 -0 -1
  outer loop
    vertex 0.9807588370391871 -4.999999278893899 -10
    vertex 5.308690838554686 -7.49619581718335 -10
    vertex 0.9675756472697368 -9.9771756287501 -10
  endloop
endfacet
facet normal 0 0 -1
  outer loop
    vertex 9.641016060363828 5.000000020030699 -10
    vertex 9.641016045194876 2.336915253901376e-08 -10
    vertex 5.310888586373029 2.500000120184327 -10
  endloop
endfacet
facet normal 0 0 -1
  outer loop
    vertex 5.310889132455358 7.499999999999973 -10
    vertex 5.310889132455356 12.49999999999997 -10
    vertex 9.641016136208595 10.00000000333843 -10
  endloop
endfacet
facet normal 0 -0 -1
  outer loop
    vertex 13.97114317029975 -2.500000000000027 -10
    vertex 13.97114317029975 -7.500000000000025 -10
    vertex 9.641016133680438 -4.999999996105164 -10
  endloop
endfacet
facet normal 0 -0 -1
  outer loop
    vertex -16.34019164175581 -4.999901912748133 -10
    vertex -12.01013890276698 -7.499885564872827 -10
    vertex -16.34242003975681 -9.99941147648877 -10
  endloop
endfacet
facet normal 0 0 -1
  outer loop
    vertex -7.679506367631596 3.178753514558134e-06 -10
    vertex -12.0066529965819 2.415196796107637 -10
    vertex -7.791986823939391 4.716984826706421 -10
  endloop
endfacet
facet normal 0 0 -1
  outer loop
    vertex -3.349364905389027 2.499999999999979 -10
    vertex -3.95498030575284 7.884613282885837 -10
    vertex 0.9807616454625978 5.000000103015134 -10
  endloop
endfacet
facet normal 0 -0 -1
  outer loop
    vertex 0.9807616454625978 5.000000103015134 -10
    vertex 5.310888586373029 2.500000120184327 -10
    vertex 0.9807593051097581 6.18090939615475e-07 -10
  endloop
endfacet
facet normal 0 0 -1
  outer loop
    vertex 0.9807588370391871 -4.999999278893899 -10
    vertex 5.310521624325329 -2.499365721756332 -10
    vertex 5.308690838554686 -7.49619581718335 -10
  endloop
endfacet
facet normal 0 0 -1
  outer loop
    vertex 0.9807616454625978 5.000000103015134 -10
    vertex 5.310889132455358 7.499999999999973 -10
    vertex 5.310888586373029 2.500000120184327 -10
  endloop
endfacet
facet normal 0 -0 -1
  outer loop
    vertex 9.641016060363828 5.000000020030699 -10
    vertex 13.97114317029975 2.499999999999972 -10
    vertex 9.641016045194876 2.336915253901376e-08 -10
  endloop
endfacet
facet normal 0 -0 -1
  outer loop
    vertex 13.97114317029975 2.499999999999972 -10
    vertex 13.97114317029975 -2.500000000000027 -10
    vertex 9.641016045194876 2.336915253901376e-08 -10
  endloop
endfacet
facet normal 0 0 -1
  outer loop
    vertex -25 -15 -10
    vertex -20.68591744668498 -12.4964688589326 -10
    vertex -20.76613977472084 -17.47881315359562 -10
  endloop
endfacet
facet normal 0 0 -1
  outer loop
    vertex -25 -5 -10
    vertex -20.66995964100006 -2.499980927478805 -10
    vertex -20.66987298107781 -7.500000000000002 -10
  endloop
endfacet
facet normal 0 0 -1
  outer loop
    vertex -25 5 -10
    vertex -20.77287179570348 7.452771190588611 -10
    vertex -20.66987298107781 2.499999999999999 -10
  endloop
endfacet
facet normal 0 -0 -1
  outer loop
    vertex -15 25 -10
    vertex -12.4964688589326 20.68591744668498 -10
    vertex -17.47881315359562 20.76613977472084 -10
  endloop
endfacet
facet normal 0 -0 -1
  outer loop
    vertex -5 25 -10
    vertex -2.512726843807409 20.69457616462926 -10
    vertex -7.500000000000002 20.66987298107781 -10
  endloop
endfacet
facet normal 0 -0 -1
  outer loop
    vertex 5 25 -10
    vertex 7.5 20.66987298107781 -10
    vertex 2.499999999999999 20.77350269189625 -10
  endloop
endfacet
facet normal -0 0 -1
  outer loop
    vertex 25 15 -10
    vertex 20.92268749865723 12.2950057521039 -10
    vertex 20.22523585948801 17.22779727052849 -10
  endloop
endfacet
facet normal -0 0 -1
  outer loop
    vertex 25 5 -10
    vertex 20.66987298107781 2.5 -10
    vertex 20.66987298107781 7.5 -10
  endloop
endfacet
facet normal -0 0 -1
  outer loop
    vertex 25 -5 -10
    vertex 20.66987298107781 -7.5 -10
    vertex 20.66987298107781 -2.5 -10
  endloop
endfacet
facet normal 0 0 -1
  outer loop
    vertex 15 -25 -10
    vertex 12.46806591575817 -20.69248944917229 -10
    vertex 17.47033841503386 -20.85251297925592 -10
  endloop
endfacet
facet normal 0 0 -1
  outer loop
    vertex 5 -25 -10
    vertex 2.617387215012932 -20.64367146529339 -10
    vertex 7.5 -20.66987298107781 -10
  endloop
endfacet
facet normal 0 0 -1
  outer loop
    vertex -5 -25 -10
    vertex -7.580449520222274 -19.8766586214116 -10
    vertex -2.140492046094463 -20.50302475901538 -10
  endloop
endfacet
facet normal 0 0 -1
  outer loop
    vertex -20.66987298107781 -7.500000000000002 -10
    vertex -16.34019164175581 -4.999901912748133 -10
    vertex -16.34242003975681 -9.99941147648877 -10
  endloop
endfacet
facet normal 0 -0 -1
  outer loop
    vertex -7.500000000000002 20.66987298107781 -10
    vertex -5.076361062844443 16.38433535264593 -10
    vertex -9.999411476488772 16.34242003975681 -10
  endloop
endfacet
facet normal 0 -0 -1
  outer loop
    vertex -16.34242003975681 -9.99941147648877 -10
    vertex -15.91614250348776 -15.75101607668544 -10
    vertex -20.68591744668498 -12.4964688589326 -10
  endloop
endfacet
facet normal 0 0 -1
  outer loop
    vertex -16.33982024208897 1.634787530539287e-05 -10
    vertex -12.0066529965819 2.415196796107637 -10
    vertex -12.00961894323341 -2.500000000000013 -10
  endloop
endfacet
facet normal 0 0 -1
  outer loop
    vertex -7.791986823939391 4.716984826706421 -10
    vertex -3.95498030575284 7.884613282885837 -10
    vertex -3.349364905389027 2.499999999999979 -10
  endloop
endfacet
facet normal 0 0 -1
  outer loop
    vertex 0.9807616454625978 5.000000103015134 -10
    vertex 0.980762113533165 9.999999999999972 -10
    vertex 5.310889132455358 7.499999999999973 -10
  endloop
endfacet
facet normal 0 0 -1
  outer loop
    vertex 0.9807616454625978 5.000000103015134 -10
    vertex -3.95498030575284 7.884613282885837 -10
    vertex 0.980762113533165 9.999999999999972 -10
  endloop
endfacet
facet normal 0 0 -1
  outer loop
    vertex 0.980762113533165 9.999999999999972 -10
    vertex 5.310889132455356 12.49999999999997 -10
    vertex 5.310889132455358 7.499999999999973 -10
  endloop
endfacet
facet normal 0 0 -1
  outer loop
    vertex 9.641016136208595 10.00000000333843 -10
    vertex 9.822219168532081 15.7145372296634 -10
    vertex 13.91399102703821 12.40545439360054 -10
  endloop
endfacet
facet normal 0 0 -1
  outer loop
    vertex 9.838057079515165 -15.72989488450865 -10
    vertex 5.310889132455369 -12.50000000000003 -10
    vertex 9.641016148428037 -9.999999999350884 -10
  endloop
endfacet
facet normal 0 0 -1
  outer loop
    vertex -5.076361062844443 16.38433535264593 -10
    vertex -7.061453087808497 12.17309748373079 -10
    vertex -9.999411476488772 16.34242003975681 -10
  endloop
endfacet
facet normal 0 0 -1
  outer loop
    vertex -12.45863449006857 12.01463136566409 -10
    vertex -15.08119767642921 16.76814524800279 -10
    vertex -9.999411476488772 16.34242003975681 -10
  endloop
endfacet
facet normal 0 0 -1
  outer loop
    vertex -25 -10 -10
    vertex -20.68591744668498 -12.4964688589326 -10
    vertex -25 -15 -10
  endloop
endfacet
facet normal 0 0 -1
  outer loop
    vertex -25 10 -10
    vertex -20.77287179570348 7.452771190588611 -10
    vertex -25 5 -10
  endloop
endfacet
facet normal -0 0 -1
  outer loop
    vertex -10 25 -10
    vertex -12.4964688589326 20.68591744668498 -10
    vertex -15 25 -10
  endloop
endfacet
facet normal -0 0 -1
  outer loop
    vertex 10 25 -10
    vertex 7.5 20.66987298107781 -10
    vertex 5 25 -10
  endloop
endfacet
facet normal 0 0 -1
  outer loop
    vertex 25 10 -10
    vertex 20.92268749865723 12.2950057521039 -10
    vertex 25 15 -10
  endloop
endfacet
facet normal 0 0 -1
  outer loop
    vertex 25 -10 -10
    vertex 20.66987298107781 -7.5 -10
    vertex 25 -5 -10
  endloop
endfacet
facet normal 0 0 -1
  outer loop
    vertex 10 -25 -10
    vertex 12.46806591575817 -20.69248944917229 -10
    vertex 15 -25 -10
  endloop
endfacet
facet normal 0 0 -1
  outer loop
    vertex -10 -25 -10
    vertex -7.580449520222274 -19.8766586214116 -10
    vertex -5 -25 -10
  endloop
endfacet
facet normal 0 -0 -1
  outer loop
    vertex -20.68591744668498 -12.4964688589326 -10
    vertex -15.91614250348776 -15.75101607668544 -10
    vertex -20.76613977472084 -17.47881315359562 -10
  endloop
endfacet
facet normal -0 0 -1
  outer loop
    vertex -12.4964688589326 20.68591744668498 -10
    vertex -15.08119767642921 16.76814524800279 -10
    vertex -17.47881315359562 20.76613977472084 -10
  endloop
endfacet
facet normal 0 0 -1
  outer loop
    vertex -12.00961894323341 -2.500000000000013 -10
    vertex -12.0066529965819 2.415196796107637 -10
    vertex -7.679506367631596 3.178753514558134e-06 -10
  endloop
endfacet
facet normal 0 0 -1
  outer loop
    vertex -9.999411476488772 16.34242003975681 -10
    vertex -15.08119767642921 16.76814524800279 -10
    vertex -12.4964688589326 20.68591744668498 -10
  endloop
endfacet
facet normal 0 0 -1
  outer loop
    vertex 9.641016136208595 10.00000000333843 -10
    vertex 5.310889132455356 12.49999999999997 -10
    vertex 9.822219168532081 15.7145372296634 -10
  endloop
endfacet
facet normal -0 0 -1
  outer loop
    vertex -11.92286831067698 -12.32265640229887 -10
    vertex -15.91614250348776 -15.75101607668544 -10
    vertex -16.34242003975681 -9.99941147648877 -10
  endloop
endfacet
facet normal 0 0 -1
  outer loop
    vertex 20.22523585948801 17.22779727052849 -10
    vertex 17.43073616258956 13.84484225588986 -10
    vertex 14.99171452587717 16.90116389080628 -10
  endloop
endfacet
facet normal 0 0 -1
  outer loop
    vertex -7.580449520222274 -19.8766586214116 -10
    vertex -4.036188083325251 -16.64286456768321 -10
    vertex -2.140492046094463 -20.50302475901538 -10
  endloop
endfacet
facet normal 0 0 -1
  outer loop
    vertex -16.33974596215561 4.999999999999996 -10
    vertex -12.3003539310817 7.112423724442102 -10
    vertex -12.0066529965819 2.415196796107637 -10
  endloop
endfacet
facet normal 0 0 -1
  outer loop
    vertex -25 20 -10
    vertex -20.29278796740301 17.09080164542631 -10
    vertex -25 15 -10
  endloop
endfacet
facet normal -0 0 -1
  outer loop
    vertex 20 25 -10
    vertex 17.32576995094434 21.00540870587414 -10
    vertex 15 25 -10
  endloop
endfacet
facet normal 0 0 -1
  outer loop
    vertex 25 -20 -10
    vertex 20.30728280115161 -17.20466949304551 -10
    vertex 25 -15 -10
  endloop
endfacet
facet normal 0 0 -1
  outer loop
    vertex -20 -25 -10
    vertex -17.54371419592586 -20.8375637719526 -10
    vertex -15 -25 -10
  endloop
endfacet
facet normal 0 0 -1
  outer loop
    vertex -20.77287179570348 7.452771190588611 -10
    vertex -16.67022752644167 9.556901135633293 -10
    vertex -16.33974596215561 4.999999999999996 -10
  endloop
endfacet
facet normal -0 0 -1
  outer loop
    vertex 0.463401205536973 15.6554885206874 -10
    vertex -2.958754900577864 12.2744812085741 -10
    vertex -5.076361062844443 16.38433535264593 -10
  endloop
endfacet
facet normal 0 -0 -1
  outer loop
    vertex 2.499999999999999 20.77350269189625 -10
    vertex 5.060868316992289 17.01313446053501 -10
    vertex 0.463401205536973 15.6554885206874 -10
  endloop
endfacet
facet normal -0 0 -1
  outer loop
    vertex 9.838057079515165 -15.72989488450865 -10
    vertex 5.046484698000133 -16.98237706870869 -10
    vertex 5.310889132455369 -12.50000000000003 -10
  endloop
endfacet
facet normal 0 0 -1
  outer loop
    vertex 5.310889132455356 12.49999999999997 -10
    vertex 5.060868316992289 17.01313446053501 -10
    vertex 9.822219168532081 15.7145372296634 -10
  endloop
endfacet
facet normal 0 0 -1
  outer loop
    vertex -12.0066529965819 2.415196796107637 -10
    vertex -12.3003539310817 7.112423724442102 -10
    vertex -7.791986823939391 4.716984826706421 -10
  endloop
endfacet
facet normal 0 0 -1
  outer loop
    vertex -25 15 -10
    vertex -20.29278796740301 17.09080164542631 -10
    vertex -20.90733469879357 12.21662714353167 -10
  endloop
endfacet
facet normal 0 -0 -1
  outer loop
    vertex 15 25 -10
    vertex 17.32576995094434 21.00540870587414 -10
    vertex 12.39792335814524 20.56374511175445 -10
  endloop
endfacet
facet normal -0 0 -1
  outer loop
    vertex 25 -15 -10
    vertex 20.30728280115161 -17.20466949304551 -10
    vertex 21.02038715518301 -12.29894016161892 -10
  endloop
endfacet
facet normal 0 0 -1
  outer loop
    vertex -15 -25 -10
    vertex -17.54371419592586 -20.8375637719526 -10
    vertex -12.9336282735329 -20.51851937522286 -10
  endloop
endfacet
facet normal -0 0 -1
  outer loop
    vertex 0.6265446522030942 -15.66472318671821 -10
    vertex -4.036188083325251 -16.64286456768321 -10
    vertex -3.428445778109052 -12.36306211918123 -10
  endloop
endfacet
facet normal 0 -0 -1
  outer loop
    vertex -11.92286831067698 -12.32265640229887 -10
    vertex -11.20223726646469 -16.65514092554167 -10
    vertex -15.91614250348776 -15.75101607668544 -10
  endloop
endfacet
facet normal 0 0 -1
  outer loop
    vertex -20.90733469879357 12.21662714353167 -10
    vertex -16.67022752644167 9.556901135633293 -10
    vertex -20.77287179570348 7.452771190588611 -10
  endloop
endfacet
facet normal 0 0 -1
  outer loop
    vertex -3.95498030575284 7.884613282885837 -10
    vertex -2.958754900577864 12.2744812085741 -10
    vertex 0.980762113533165 9.999999999999972 -10
  endloop
endfacet
facet normal 0 0 -1
  outer loop
    vertex -7.061453087808497 12.17309748373079 -10
    vertex -8.48482618155087 8.527729358174478 -10
    vertex -12.45863449006857 12.01463136566409 -10
  endloop
endfacet
facet normal 0 0 -1
  outer loop
    vertex -25 -20 -10
    vertex -21.33974596215562 -21.33974596215562 -10
    vertex -25 -25 -10
  endloop
endfacet
facet normal 0 0 -1
  outer loop
    vertex -25 -25 -10
    vertex -21.33974596215562 -21.33974596215562 -10
    vertex -20 -25 -10
  endloop
endfacet
facet normal 0 0 -1
  outer loop
    vertex -25 25 -10
    vertex -21.33974596215562 21.33974596215562 -10
    vertex -25 20 -10
  endloop
endfacet
facet normal -0 0 -1
  outer loop
    vertex -20 25 -10
    vertex -21.33974596215562 21.33974596215562 -10
    vertex -25 25 -10
  endloop
endfacet
facet normal -0 0 -1
  outer loop
    vertex 25 25 -10
    vertex 21.33974596215562 21.33974596215562 -10
    vertex 20 25 -10
  endloop
endfacet
facet normal 0 0 -1
  outer loop
    vertex 25 20 -10
    vertex 21.33974596215562 21.33974596215562 -10
    vertex 25 25 -10
  endloop
endfacet
facet normal 0 0 -1
  outer loop
    vertex 25 -25 -10
    vertex 21.33974596215562 -21.33974596215562 -10
    vertex 25 -20 -10
  endloop
endfacet
facet normal 0 0 -1
  outer loop
    vertex 20 -25 -10
    vertex 21.33974596215562 -21.33974596215562 -10
    vertex 25 -25 -10
  endloop
endfacet
facet normal 0 0 -1
  outer loop
    vertex -7.791986823939391 4.716984826706421 -10
    vertex -8.48482618155087 8.527729358174478 -10
    vertex -3.95498030575284 7.884613282885837 -10
  endloop
endfacet
facet normal 0 0 -1
  outer loop
    vertex -12.45863449006857 12.01463136566409 -10
    vertex -8.48482618155087 8.527729358174478 -10
    vertex -12.3003539310817 7.112423724442102 -10
  endloop
endfacet
facet normal 0 -0 -1
  outer loop
    vertex -5.076361062844443 16.38433535264593 -10
    vertex -2.958754900577864 12.2744812085741 -10
    vertex -7.061453087808497 12.17309748373079 -10
  endloop
endfacet
facet normal 0 0 -1
  outer loop
    vertex 12.46806591575817 -20.69248944917229 -10
    vertex 14.99999999999999 -16.90265585019133 -10
    vertex 17.47033841503386 -20.85251297925592 -10
  endloop
endfacet
facet normal -0 0 -1
  outer loop
    vertex 7.5 20.66987298107781 -10
    vertex 5.060868316992289 17.01313446053501 -10
    vertex 2.499999999999999 20.77350269189625 -10
  endloop
endfacet
facet normal 0 0 -1
  outer loop
    vertex 5.310889132455369 -12.50000000000003 -10
    vertex 5.046484698000133 -16.98237706870869 -10
    vertex 0.6265446522030942 -15.66472318671821 -10
  endloop
endfacet
facet normal 0 0 -1
  outer loop
    vertex 2.617387215012932 -20.64367146529339 -10
    vertex 5.046484698000133 -16.98237706870869 -10
    vertex 7.5 -20.66987298107781 -10
  endloop
endfacet
facet normal 0 0 -1
  outer loop
    vertex -12.45863449006857 12.01463136566409 -10
    vertex -17.24242428084709 13.54495338957329 -10
    vertex -15.08119767642921 16.76814524800279 -10
  endloop
endfacet
facet normal 0 -0 -1
  outer loop
    vertex -20.29278796740301 17.09080164542631 -10
    vertex -17.24242428084709 13.54495338957329 -10
    vertex -20.90733469879357 12.21662714353167 -10
  endloop
endfacet
facet normal 0 0 -1
  outer loop
    vertex 17.32576995094434 21.00540870587414 -10
    vertex 14.99171452587717 16.90116389080628 -10
    vertex 12.39792335814524 20.56374511175445 -10
  endloop
endfacet
facet normal 0 0 -1
  outer loop
    vertex 20.92268749865723 12.2950057521039 -10
    vertex 17.43073616258956 13.84484225588986 -10
    vertex 20.22523585948801 17.22779727052849 -10
  endloop
endfacet
facet normal 0 0 -1
  outer loop
    vertex -3.428445778109052 -12.36306211918123 -10
    vertex -4.036188083325251 -16.64286456768321 -10
    vertex -7.658097724403558 -14.80685415208962 -10
  endloop
endfacet
facet normal -0 0 -1
  outer loop
    vertex 20.66987298107781 7.5 -10
    vertex 17.32050807568878 4.999999999999991 -10
    vertex 17.32050807568879 10.00000000000001 -10
  endloop
endfacet
facet normal 0 0 -1
  outer loop
    vertex 17.32050807568879 10.00000000000001 -10
    vertex 17.32050807568878 4.999999999999991 -10
    vertex 13.97114317029975 7.499999999999977 -10
  endloop
endfacet
facet normal 0 0 -1
  outer loop
    vertex 13.91399102703821 12.40545439360054 -10
    vertex 17.32050807568879 10.00000000000001 -10
    vertex 13.97114317029975 7.499999999999977 -10
  endloop
endfacet
facet normal 0 0 -1
  outer loop
    vertex 20.66987298107781 2.5 -10
    vertex 17.32050807568878 4.999999999999991 -10
    vertex 20.66987298107781 7.5 -10
  endloop
endfacet
facet normal 0 -0 -1
  outer loop
    vertex 17.32050807568878 -8.141635513917814e-15 -10
    vertex 17.32050807568879 -5.000000000000006 -10
    vertex 13.97114317029975 -2.500000000000027 -10
  endloop
endfacet
facet normal 0 -0 -1
  outer loop
    vertex 13.97114317029975 -7.500000000000025 -10
    vertex 17.32050807568879 -9.999999999999995 -10
    vertex 13.91449427572276 -12.40533815279636 -10
  endloop
endfacet
facet normal -0 0 -1
  outer loop
    vertex 20.66987298107781 -2.5 -10
    vertex 17.32050807568879 -5.000000000000006 -10
    vertex 17.32050807568878 -8.141635513917814e-15 -10
  endloop
endfacet
facet normal 0 0 -1
  outer loop
    vertex 13.97114317029975 2.499999999999972 -10
    vertex 17.32050807568878 -8.141635513917814e-15 -10
    vertex 13.97114317029975 -2.500000000000027 -10
  endloop
endfacet
facet normal 0 0 -1
  outer loop
    vertex 13.97114317029975 -2.500000000000027 -10
    vertex 17.32050807568879 -5.000000000000006 -10
    vertex 13.97114317029975 -7.500000000000025 -10
  endloop
endfacet
facet normal 0 0 -1
  outer loop
    vertex 20.66987298107781 -7.5 -10
    vertex 17.32050807568879 -5.000000000000006 -10
    vertex 20.66987298107781 -2.5 -10
  endloop
endfacet
facet normal 0 0 -1
  outer loop
    vertex 13.97114317029975 7.499999999999977 -10
    vertex 17.32050807568878 4.999999999999991 -10
    vertex 13.97114317029975 2.499999999999972 -10
  endloop
endfacet
facet normal 0 0 -1
  outer loop
    vertex 20.66987298107781 -2.5 -10
    vertex 17.32050807568878 -8.141635513917814e-15 -10
    vertex 20.66987298107781 2.5 -10
  endloop
endfacet
facet normal 0 0 -1
  outer loop
    vertex 20.66987298107781 7.5 -10
    vertex 17.32050807568879 10.00000000000001 -10
    vertex 20.92268749865723 12.2950057521039 -10
  endloop
endfacet
facet normal 0 0 -1
  outer loop
    vertex 21.02038715518301 -12.29894016161892 -10
    vertex 17.32050807568879 -9.999999999999995 -10
    vertex 20.66987298107781 -7.5 -10
  endloop
endfacet
facet normal 0 -0 -1
  outer loop
    vertex 17.32050807568879 -5.000000000000006 -10
    vertex 17.32050807568879 -9.999999999999995 -10
    vertex 13.97114317029975 -7.500000000000025 -10
  endloop
endfacet
facet normal -0 0 -1
  outer loop
    vertex 20.66987298107781 -7.5 -10
    vertex 17.32050807568879 -9.999999999999995 -10
    vertex 17.32050807568879 -5.000000000000006 -10
  endloop
endfacet
facet normal 0 -0 -1
  outer loop
    vertex 17.32050807568878 4.999999999999991 -10
    vertex 17.32050807568878 -8.141635513917814e-15 -10
    vertex 13.97114317029975 2.499999999999972 -10
  endloop
endfacet
facet normal -0 0 -1
  outer loop
    vertex 20.66987298107781 2.5 -10
    vertex 17.32050807568878 -8.141635513917814e-15 -10
    vertex 17.32050807568878 4.999999999999991 -10
  endloop
endfacet
facet normal 0 0 -1
  outer loop
    vertex -16.67022752644167 9.556901135633293 -10
    vertex -17.24242428084709 13.54495338957329 -10
    vertex -12.45863449006857 12.01463136566409 -10
  endloop
endfacet
facet normal -0 0 -1
  outer loop
    vertex -7.658097724403558 -14.80685415208962 -10
    vertex -11.20223726646469 -16.65514092554167 -10
    vertex -11.92286831067698 -12.32265640229887 -10
  endloop
endfacet
facet normal 0 0 -1
  outer loop
    vertex 20.30728280115161 -17.20466949304551 -10
    vertex 17.51253446154923 -13.76232073153042 -10
    vertex 21.02038715518301 -12.29894016161892 -10
  endloop
endfacet
facet normal 0 0 -1
  outer loop
    vertex -25 20 -10
    vertex -21.33974596215562 21.33974596215562 -10
    vertex -20.29278796740301 17.09080164542631 -10
  endloop
endfacet
facet normal 0 -0 -1
  outer loop
    vertex 20 25 -10
    vertex 21.33974596215562 21.33974596215562 -10
    vertex 17.32576995094434 21.00540870587414 -10
  endloop
endfacet
facet normal -0 0 -1
  outer loop
    vertex 25 -20 -10
    vertex 21.33974596215562 -21.33974596215562 -10
    vertex 20.30728280115161 -17.20466949304551 -10
  endloop
endfacet
facet normal 0 0 -1
  outer loop
    vertex -20 -25 -10
    vertex -21.33974596215562 -21.33974596215562 -10
    vertex -17.54371419592586 -20.8375637719526 -10
  endloop
endfacet
facet normal 0 0 -1
  outer loop
    vertex -20.76613977472084 -17.47881315359562 -10
    vertex -21.33974596215562 -21.33974596215562 -10
    vertex -25 -20 -10
  endloop
endfacet
facet normal 0 0 -1
  outer loop
    vertex -17.47881315359562 20.76613977472084 -10
    vertex -21.33974596215562 21.33974596215562 -10
    vertex -20 25 -10
  endloop
endfacet
facet normal 0 0 -1
  outer loop
    vertex 20.22523585948801 17.22779727052849 -10
    vertex 21.33974596215562 21.33974596215562 -10
    vertex 25 20 -10
  endloop
endfacet
facet normal 0 0 -1
  outer loop
    vertex 17.47033841503386 -20.85251297925592 -10
    vertex 21.33974596215562 -21.33974596215562 -10
    vertex 20 -25 -10
  endloop
endfacet
facet normal -0 0 -1
  outer loop
    vertex -17.54371419592586 -20.8375637719526 -10
    vertex -21.33974596215562 -21.33974596215562 -10
    vertex -20.76613977472084 -17.47881315359562 -10
  endloop
endfacet
facet normal 0 0 -1
  outer loop
    vertex -20.29278796740301 17.09080164542631 -10
    vertex -21.33974596215562 21.33974596215562 -10
    vertex -17.47881315359562 20.76613977472084 -10
  endloop
endfacet
facet normal 0 0 -1
  outer loop
    vertex 17.32576995094434 21.00540870587414 -10
    vertex 21.33974596215562 21.33974596215562 -10
    vertex 20.22523585948801 17.22779727052849 -10
  endloop
endfacet
facet normal 0 -0 -1
  outer loop
    vertex 20.30728280115161 -17.20466949304551 -10
    vertex 21.33974596215562 -21.33974596215562 -10
    vertex 17.47033841503386 -20.85251297925592 -10
  endloop
endfacet
facet normal 0 0 -1
  outer loop
    vertex -12.3003539310817 7.112423724442102 -10
    vertex -8.48482618155087 8.527729358174478 -10
    vertex -7.791986823939391 4.716984826706421 -10
  endloop
endfacet
facet normal 0 0 -1
  outer loop
    vertex -20.90733469879357 12.21662714353167 -10
    vertex -17.24242428084709 13.54495338957329 -10
    vertex -16.67022752644167 9.556901135633293 -10
  endloop
endfacet
facet normal 0 0 -1
  outer loop
    vertex 13.91449427572276 -12.40533815279636 -10
    vertex 17.51253446154923 -13.76232073153042 -10
    vertex 14.99999999999999 -16.90265585019133 -10
  endloop
endfacet
facet normal 0 -0 -1
  outer loop
    vertex 14.99171452587717 16.90116389080628 -10
    vertex 17.43073616258956 13.84484225588986 -10
    vertex 13.91399102703821 12.40545439360054 -10
  endloop
endfacet
facet normal 0 0 -1
  outer loop
    vertex 13.91399102703821 12.40545439360054 -10
    vertex 17.43073616258956 13.84484225588986 -10
    vertex 17.32050807568879 10.00000000000001 -10
  endloop
endfacet
facet normal 0 0 -1
  outer loop
    vertex 17.32050807568879 10.00000000000001 -10
    vertex 17.43073616258956 13.84484225588986 -10
    vertex 20.92268749865723 12.2950057521039 -10
  endloop
endfacet
facet normal 0 -0 -1
  outer loop
    vertex 17.32050807568879 -9.999999999999995 -10
    vertex 17.51253446154923 -13.76232073153042 -10
    vertex 13.91449427572276 -12.40533815279636 -10
  endloop
endfacet
facet normal -0 0 -1
  outer loop
    vertex 21.02038715518301 -12.29894016161892 -10
    vertex 17.51253446154923 -13.76232073153042 -10
    vertex 17.32050807568879 -9.999999999999995 -10
  endloop
endfacet
endsolid Created by Gmsh
