solid disk
facet normal 0.000000e+00 0.000000e+00 1.000000e+00
outer loop
vertex 4.000000e-03 0.000000e+00 9.803996e-03
vertex 3.991947e-03 2.536957e-04 9.803996e-03
vertex 0.000000e+00 0.000000e+00 9.803996e-03
endloop
endfacet
facet normal 0.000000e+00 0.000000e+00 1.000000e+00
outer loop
vertex 3.991947e-03 2.536957e-04 9.803996e-03
vertex 3.967819e-03 5.063698e-04 9.803996e-03
vertex 0.000000e+00 0.000000e+00 9.803996e-03
endloop
endfacet
facet normal 0.000000e+00 0.000000e+00 1.000000e+00
outer loop
vertex 3.967819e-03 5.063698e-04 9.803996e-03
vertex 3.927715e-03 7.570050e-04 9.803996e-03
vertex 0.000000e+00 0.000000e+00 9.803996e-03
endloop
endfacet
facet normal 0.000000e+00 0.000000e+00 1.000000e+00
outer loop
vertex 3.927715e-03 7.570050e-04 9.803996e-03
vertex 3.871795e-03 1.004592e-03 9.803996e-03
vertex 0.000000e+00 0.000000e+00 9.803996e-03
endloop
endfacet
facet normal 0.000000e+00 0.000000e+00 1.000000e+00
outer loop
vertex 3.871795e-03 1.004592e-03 9.803996e-03
vertex 3.800284e-03 1.248134e-03 9.803996e-03
vertex 0.000000e+00 0.000000e+00 9.803996e-03
endloop
endfacet
facet normal 0.000000e+00 0.000000e+00 1.000000e+00
outer loop
vertex 3.800284e-03 1.248134e-03 9.803996e-03
vertex 3.713472e-03 1.486650e-03 9.803996e-03
vertex 0.000000e+00 0.000000e+00 9.803996e-03
endloop
endfacet
facet normal 0.000000e+00 0.000000e+00 1.000000e+00
outer loop
vertex 3.713472e-03 1.486650e-03 9.803996e-03
vertex 3.611706e-03 1.719180e-03 9.803996e-03
vertex 0.000000e+00 0.000000e+00 9.803996e-03
endloop
endfacet
facet normal 0.000000e+00 0.000000e+00 1.000000e+00
outer loop
vertex 3.611706e-03 1.719180e-03 9.803996e-03
vertex 3.495398e-03 1.944787e-03 9.803996e-03
vertex 0.000000e+00 0.000000e+00 9.803996e-03
endloop
endfacet
facet normal 0.000000e+00 0.000000e+00 1.000000e+00
outer loop
vertex 3.495398e-03 1.944787e-03 9.803996e-03
vertex 3.365014e-03 2.162563e-03 9.803996e-03
vertex 0.000000e+00 0.000000e+00 9.803996e-03
endloop
endfacet
facet normal 0.000000e+00 0.000000e+00 1.000000e+00
outer loop
vertex 3.365014e-03 2.162563e-03 9.803996e-03
vertex 3.221081e-03 2.371632e-03 9.803996e-03
vertex 0.000000e+00 0.000000e+00 9.803996e-03
endloop
endfacet
facet normal 0.000000e+00 0.000000e+00 1.000000e+00
outer loop
vertex 3.221081e-03 2.371632e-03 9.803996e-03
vertex 3.064178e-03 2.571150e-03 9.803996e-03
vertex 0.000000e+00 0.000000e+00 9.803996e-03
endloop
endfacet
facet normal 0.000000e+00 0.000000e+00 1.000000e+00
outer loop
vertex 3.064178e-03 2.571150e-03 9.803996e-03
vertex 2.894936e-03 2.760316e-03 9.803996e-03
vertex 0.000000e+00 0.000000e+00 9.803996e-03
endloop
endfacet
facet normal 0.000000e+00 0.000000e+00 1.000000e+00
outer loop
vertex 2.894936e-03 2.760316e-03 9.803996e-03
vertex 2.714038e-03 2.938367e-03 9.803996e-03
vertex 0.000000e+00 0.000000e+00 9.803996e-03
endloop
endfacet
facet normal 0.000000e+00 0.000000e+00 1.000000e+00
outer loop
vertex 2.714038e-03 2.938367e-03 9.803996e-03
vertex 2.522211e-03 3.104586e-03 9.803996e-03
vertex 0.000000e+00 0.000000e+00 9.803996e-03
endloop
endfacet
facet normal 0.000000e+00 0.000000e+00 1.000000e+00
outer loop
vertex 2.522211e-03 3.104586e-03 9.803996e-03
vertex 2.320228e-03 3.258304e-03 9.803996e-03
vertex 0.000000e+00 0.000000e+00 9.803996e-03
endloop
endfacet
facet normal 0.000000e+00 0.000000e+00 1.000000e+00
outer loop
vertex 2.320228e-03 3.258304e-03 9.803996e-03
vertex 2.108902e-03 3.398902e-03 9.803996e-03
vertex 0.000000e+00 0.000000e+00 9.803996e-03
endloop
endfacet
facet normal 0.000000e+00 0.000000e+00 1.000000e+00
outer loop
vertex 2.108902e-03 3.398902e-03 9.803996e-03
vertex 1.889084e-03 3.525813e-03 9.803996e-03
vertex 0.000000e+00 0.000000e+00 9.803996e-03
endloop
endfacet
facet normal 0.000000e+00 0.000000e+00 1.000000e+00
outer loop
vertex 1.889084e-03 3.525813e-03 9.803996e-03
vertex 1.661660e-03 3.638528e-03 9.803996e-03
vertex 0.000000e+00 0.000000e+00 9.803996e-03
endloop
endfacet
facet normal 0.000000e+00 0.000000e+00 1.000000e+00
outer loop
vertex 1.661660e-03 3.638528e-03 9.803996e-03
vertex 1.427545e-03 3.736591e-03 9.803996e-03
vertex 0.000000e+00 0.000000e+00 9.803996e-03
endloop
endfacet
facet normal 0.000000e+00 0.000000e+00 1.000000e+00
outer loop
vertex 1.427545e-03 3.736591e-03 9.803996e-03
vertex 1.187682e-03 3.819609e-03 9.803996e-03
vertex 0.000000e+00 0.000000e+00 9.803996e-03
endloop
endfacet
facet normal 0.000000e+00 0.000000e+00 1.000000e+00
outer loop
vertex 1.187682e-03 3.819609e-03 9.803996e-03
vertex 9.430357e-04 3.887246e-03 9.803996e-03
vertex 0.000000e+00 0.000000e+00 9.803996e-03
endloop
endfacet
facet normal 0.000000e+00 0.000000e+00 1.000000e+00
outer loop
vertex 9.430357e-04 3.887246e-03 9.803996e-03
vertex 6.945927e-04 3.939231e-03 9.803996e-03
vertex 0.000000e+00 0.000000e+00 9.803996e-03
endloop
endfacet
facet normal 0.000000e+00 0.000000e+00 1.000000e+00
outer loop
vertex 6.945927e-04 3.939231e-03 9.803996e-03
vertex 4.433528e-04 3.975354e-03 9.803996e-03
vertex 0.000000e+00 0.000000e+00 9.803996e-03
endloop
endfacet
facet normal 0.000000e+00 0.000000e+00 1.000000e+00
outer loop
vertex 4.433528e-04 3.975354e-03 9.803996e-03
vertex 1.903277e-04 3.995469e-03 9.803996e-03
vertex 0.000000e+00 0.000000e+00 9.803996e-03
endloop
endfacet
facet normal 0.000000e+00 0.000000e+00 1.000000e+00
outer loop
vertex 1.903277e-04 3.995469e-03 9.803996e-03
vertex -6.346386e-05 3.999497e-03 9.803996e-03
vertex 0.000000e+00 0.000000e+00 9.803996e-03
endloop
endfacet
facet normal 0.000000e+00 0.000000e+00 1.000000e+00
outer loop
vertex -6.346386e-05 3.999497e-03 9.803996e-03
vertex -3.169998e-04 3.987419e-03 9.803996e-03
vertex 0.000000e+00 0.000000e+00 9.803996e-03
endloop
endfacet
facet normal 0.000000e+00 0.000000e+00 1.000000e+00
outer loop
vertex -3.169998e-04 3.987419e-03 9.803996e-03
vertex -5.692594e-04 3.959286e-03 9.803996e-03
vertex 0.000000e+00 0.000000e+00 9.803996e-03
endloop
endfacet
facet normal 0.000000e+00 0.000000e+00 1.000000e+00
outer loop
vertex -5.692594e-04 3.959286e-03 9.803996e-03
vertex -8.192267e-04 3.915210e-03 9.803996e-03
vertex 0.000000e+00 0.000000e+00 9.803996e-03
endloop
endfacet
facet normal 0.000000e+00 0.000000e+00 1.000000e+00
outer loop
vertex -8.192267e-04 3.915210e-03 9.803996e-03
vertex -1.065895e-03 3.855369e-03 9.803996e-03
vertex 0.000000e+00 0.000000e+00 9.803996e-03
endloop
endfacet
facet normal 0.000000e+00 0.000000e+00 1.000000e+00
outer loop
vertex -1.065895e-03 3.855369e-03 9.803996e-03
vertex -1.308272e-03 3.780003e-03 9.803996e-03
vertex 0.000000e+00 0.000000e+00 9.803996e-03
endloop
endfacet
facet normal 0.000000e+00 0.000000e+00 1.000000e+00
outer loop
vertex -1.308272e-03 3.780003e-03 9.803996e-03
vertex -1.545381e-03 3.689417e-03 9.803996e-03
vertex 0.000000e+00 0.000000e+00 9.803996e-03
endloop
endfacet
facet normal 0.000000e+00 0.000000e+00 1.000000e+00
outer loop
vertex -1.545381e-03 3.689417e-03 9.803996e-03
vertex -1.776266e-03 3.583975e-03 9.803996e-03
vertex 0.000000e+00 0.000000e+00 9.803996e-03
endloop
endfacet
facet normal 0.000000e+00 0.000000e+00 1.000000e+00
outer loop
vertex -1.776266e-03 3.583975e-03 9.803996e-03
vertex -2.000000e-03 3.464102e-03 9.803996e-03
vertex 0.000000e+00 0.000000e+00 9.803996e-03
endloop
endfacet
facet normal 0.000000e+00 0.000000e+00 1.000000e+00
outer loop
vertex -2.000000e-03 3.464102e-03 9.803996e-03
vertex -2.215680e-03 3.330279e-03 9.803996e-03
vertex 0.000000e+00 0.000000e+00 9.803996e-03
endloop
endfacet
facet normal 0.000000e+00 0.000000e+00 1.000000e+00
outer loop
vertex -2.215680e-03 3.330279e-03 9.803996e-03
vertex -2.422439e-03 3.183047e-03 9.803996e-03
vertex 0.000000e+00 0.000000e+00 9.803996e-03
endloop
endfacet
facet normal 0.000000e+00 0.000000e+00 1.000000e+00
outer loop
vertex -2.422439e-03 3.183047e-03 9.803996e-03
vertex -2.619443e-03 3.022998e-03 9.803996e-03
vertex 0.000000e+00 0.000000e+00 9.803996e-03
endloop
endfacet
facet normal 0.000000e+00 0.000000e+00 1.000000e+00
outer loop
vertex -2.619443e-03 3.022998e-03 9.803996e-03
vertex -2.805900e-03 2.850777e-03 9.803996e-03
vertex 0.000000e+00 0.000000e+00 9.803996e-03
endloop
endfacet
facet normal 0.000000e+00 0.000000e+00 1.000000e+00
outer loop
vertex -2.805900e-03 2.850777e-03 9.803996e-03
vertex -2.981058e-03 2.667076e-03 9.803996e-03
vertex 0.000000e+00 0.000000e+00 9.803996e-03
endloop
endfacet
facet normal 0.000000e+00 0.000000e+00 1.000000e+00
outer loop
vertex -2.981058e-03 2.667076e-03 9.803996e-03
vertex -3.144212e-03 2.472636e-03 9.803996e-03
vertex 0.000000e+00 0.000000e+00 9.803996e-03
endloop
endfacet
facet normal 0.000000e+00 0.000000e+00 1.000000e+00
outer loop
vertex -3.144212e-03 2.472636e-03 9.803996e-03
vertex -3.294706e-03 2.268239e-03 9.803996e-03
vertex 0.000000e+00 0.000000e+00 9.803996e-03
endloop
endfacet
facet normal 0.000000e+00 0.000000e+00 1.000000e+00
outer loop
vertex -3.294706e-03 2.268239e-03 9.803996e-03
vertex -3.431934e-03 2.054710e-03 9.803996e-03
vertex 0.000000e+00 0.000000e+00 9.803996e-03
endloop
endfacet
facet normal 0.000000e+00 0.000000e+00 1.000000e+00
outer loop
vertex -3.431934e-03 2.054710e-03 9.803996e-03
vertex -3.555342e-03 1.832906e-03 9.803996e-03
vertex 0.000000e+00 0.000000e+00 9.803996e-03
endloop
endfacet
facet normal 0.000000e+00 0.000000e+00 1.000000e+00
outer loop
vertex -3.555342e-03 1.832906e-03 9.803996e-03
vertex -3.664434e-03 1.603722e-03 9.803996e-03
vertex 0.000000e+00 0.000000e+00 9.803996e-03
endloop
endfacet
facet normal 0.000000e+00 0.000000e+00 1.000000e+00
outer loop
vertex -3.664434e-03 1.603722e-03 9.803996e-03
vertex -3.758770e-03 1.368081e-03 9.803996e-03
vertex 0.000000e+00 0.000000e+00 9.803996e-03
endloop
endfacet
facet normal 0.000000e+00 0.000000e+00 1.000000e+00
outer loop
vertex -3.758770e-03 1.368081e-03 9.803996e-03
vertex -3.837972e-03 1.126930e-03 9.803996e-03
vertex 0.000000e+00 0.000000e+00 9.803996e-03
endloop
endfacet
facet normal 0.000000e+00 0.000000e+00 1.000000e+00
outer loop
vertex -3.837972e-03 1.126930e-03 9.803996e-03
vertex -3.901719e-03 8.812421e-04 9.803996e-03
vertex 0.000000e+00 0.000000e+00 9.803996e-03
endloop
endfacet
facet normal 0.000000e+00 0.000000e+00 1.000000e+00
outer loop
vertex -3.901719e-03 8.812421e-04 9.803996e-03
vertex -3.949756e-03 6.320056e-04 9.803996e-03
vertex 0.000000e+00 0.000000e+00 9.803996e-03
endloop
endfacet
facet normal 0.000000e+00 0.000000e+00 1.000000e+00
outer loop
vertex -3.949756e-03 6.320056e-04 9.803996e-03
vertex -3.981888e-03 3.802242e-04 9.803996e-03
vertex 0.000000e+00 0.000000e+00 9.803996e-03
endloop
endfacet
facet normal 0.000000e+00 0.000000e+00 1.000000e+00
outer loop
vertex -3.981888e-03 3.802242e-04 9.803996e-03
vertex -3.997986e-03 1.269117e-04 9.803996e-03
vertex 0.000000e+00 0.000000e+00 9.803996e-03
endloop
endfacet
facet normal 0.000000e+00 0.000000e+00 1.000000e+00
outer loop
vertex -3.997986e-03 1.269117e-04 9.803996e-03
vertex -3.997986e-03 -1.269117e-04 9.803996e-03
vertex 0.000000e+00 0.000000e+00 9.803996e-03
endloop
endfacet
facet normal -0.000000e+00 0.000000e+00 1.000000e+00
outer loop
vertex -3.997986e-03 -1.269117e-04 9.803996e-03
vertex -3.981888e-03 -3.802242e-04 9.803996e-03
vertex 0.000000e+00 0.000000e+00 9.803996e-03
endloop
endfacet
facet normal -0.000000e+00 0.000000e+00 1.000000e+00
outer loop
vertex -3.981888e-03 -3.802242e-04 9.803996e-03
vertex -3.949756e-03 -6.320056e-04 9.803996e-03
vertex 0.000000e+00 0.000000e+00 9.803996e-03
endloop
endfacet
facet normal -0.000000e+00 0.000000e+00 1.000000e+00
outer loop
vertex -3.949756e-03 -6.320056e-04 9.803996e-03
vertex -3.901719e-03 -8.812421e-04 9.803996e-03
vertex 0.000000e+00 0.000000e+00 9.803996e-03
endloop
endfacet
facet normal -0.000000e+00 0.000000e+00 1.000000e+00
outer loop
vertex -3.901719e-03 -8.812421e-04 9.803996e-03
vertex -3.837972e-03 -1.126930e-03 9.803996e-03
vertex 0.000000e+00 0.000000e+00 9.803996e-03
endloop
endfacet
facet normal -0.000000e+00 0.000000e+00 1.000000e+00
outer loop
vertex -3.837972e-03 -1.126930e-03 9.803996e-03
vertex -3.758770e-03 -1.368081e-03 9.803996e-03
vertex 0.000000e+00 0.000000e+00 9.803996e-03
endloop
endfacet
facet normal -0.000000e+00 0.000000e+00 1.000000e+00
outer loop
vertex -3.758770e-03 -1.368081e-03 9.803996e-03
vertex -3.664434e-03 -1.603722e-03 9.803996e-03
vertex 0.000000e+00 0.000000e+00 9.803996e-03
endloop
endfacet
facet normal -0.000000e+00 0.000000e+00 1.000000e+00
outer loop
vertex -3.664434e-03 -1.603722e-03 9.803996e-03
vertex -3.555342e-03 -1.832906e-03 9.803996e-03
vertex 0.000000e+00 0.000000e+00 9.803996e-03
endloop
endfacet
facet normal -0.000000e+00 0.000000e+00 1.000000e+00
outer loop
vertex -3.555342e-03 -1.832906e-03 9.803996e-03
vertex -3.431934e-03 -2.054710e-03 9.803996e-03
vertex 0.000000e+00 0.000000e+00 9.803996e-03
endloop
endfacet
facet normal -0.000000e+00 0.000000e+00 1.000000e+00
outer loop
vertex -3.431934e-03 -2.054710e-03 9.803996e-03
vertex -3.294706e-03 -2.268239e-03 9.803996e-03
vertex 0.000000e+00 0.000000e+00 9.803996e-03
endloop
endfacet
facet normal -0.000000e+00 0.000000e+00 1.000000e+00
outer loop
vertex -3.294706e-03 -2.268239e-03 9.803996e-03
vertex -3.144212e-03 -2.472636e-03 9.803996e-03
vertex 0.000000e+00 0.000000e+00 9.803996e-03
endloop
endfacet
facet normal -0.000000e+00 0.000000e+00 1.000000e+00
outer loop
vertex -3.144212e-03 -2.472636e-03 9.803996e-03
vertex -2.981058e-03 -2.667076e-03 9.803996e-03
vertex 0.000000e+00 0.000000e+00 9.803996e-03
endloop
endfacet
facet normal -0.000000e+00 0.000000e+00 1.000000e+00
outer loop
vertex -2.981058e-03 -2.667076e-03 9.803996e-03
vertex -2.805900e-03 -2.850777e-03 9.803996e-03
vertex 0.000000e+00 0.000000e+00 9.803996e-03
endloop
endfacet
facet normal -0.000000e+00 0.000000e+00 1.000000e+00
outer loop
vertex -2.805900e-03 -2.850777e-03 9.803996e-03
vertex -2.619443e-03 -3.022998e-03 9.803996e-03
vertex 0.000000e+00 0.000000e+00 9.803996e-03
endloop
endfacet
facet normal -0.000000e+00 0.000000e+00 1.000000e+00
outer loop
vertex -2.619443e-03 -3.022998e-03 9.803996e-03
vertex -2.422439e-03 -3.183047e-03 9.803996e-03
vertex 0.000000e+00 0.000000e+00 9.803996e-03
endloop
endfacet
facet normal -0.000000e+00 0.000000e+00 1.000000e+00
outer loop
vertex -2.422439e-03 -3.183047e-03 9.803996e-03
vertex -2.215680e-03 -3.330279e-03 9.803996e-03
vertex 0.000000e+00 0.000000e+00 9.803996e-03
endloop
endfacet
facet normal -0.000000e+00 0.000000e+00 1.000000e+00
outer loop
vertex -2.215680e-03 -3.330279e-03 9.803996e-03
vertex -2.000000e-03 -3.464102e-03 9.803996e-03
vertex 0.000000e+00 0.000000e+00 9.803996e-03
endloop
endfacet
facet normal -0.000000e+00 0.000000e+00 1.000000e+00
outer loop
vertex -2.000000e-03 -3.464102e-03 9.803996e-03
vertex -1.776266e-03 -3.583975e-03 9.803996e-03
vertex 0.000000e+00 0.000000e+00 9.803996e-03
endloop
endfacet
facet normal -0.000000e+00 0.000000e+00 1.000000e+00
outer loop
vertex -1.776266e-03 -3.583975e-03 9.803996e-03
vertex -1.545381e-03 -3.689417e-03 9.803996e-03
vertex 0.000000e+00 0.000000e+00 9.803996e-03
endloop
endfacet
facet normal -0.000000e+00 0.000000e+00 1.000000e+00
outer loop
vertex -1.545381e-03 -3.689417e-03 9.803996e-03
vertex -1.308272e-03 -3.780003e-03 9.803996e-03
vertex 0.000000e+00 0.000000e+00 9.803996e-03
endloop
endfacet
facet normal -0.000000e+00 0.000000e+00 1.000000e+00
outer loop
vertex -1.308272e-03 -3.780003e-03 9.803996e-03
vertex -1.065895e-03 -3.855369e-03 9.803996e-03
vertex 0.000000e+00 0.000000e+00 9.803996e-03
endloop
endfacet
facet normal -0.000000e+00 0.000000e+00 1.000000e+00
outer loop
vertex -1.065895e-03 -3.855369e-03 9.803996e-03
vertex -8.192267e-04 -3.915210e-03 9.803996e-03
vertex 0.000000e+00 0.000000e+00 9.803996e-03
endloop
endfacet
facet normal -0.000000e+00 0.000000e+00 1.000000e+00
outer loop
vertex -8.192267e-04 -3.915210e-03 9.803996e-03
vertex -5.692594e-04 -3.959286e-03 9.803996e-03
vertex 0.000000e+00 0.000000e+00 9.803996e-03
endloop
endfacet
facet normal -0.000000e+00 0.000000e+00 1.000000e+00
outer loop
vertex -5.692594e-04 -3.959286e-03 9.803996e-03
vertex -3.169998e-04 -3.987419e-03 9.803996e-03
vertex 0.000000e+00 0.000000e+00 9.803996e-03
endloop
endfacet
facet normal -0.000000e+00 0.000000e+00 1.000000e+00
outer loop
vertex -3.169998e-04 -3.987419e-03 9.803996e-03
vertex -6.346386e-05 -3.999497e-03 9.803996e-03
vertex 0.000000e+00 0.000000e+00 9.803996e-03
endloop
endfacet
facet normal 0.000000e+00 0.000000e+00 1.000000e+00
outer loop
vertex -6.346386e-05 -3.999497e-03 9.803996e-03
vertex 1.903277e-04 -3.995469e-03 9.803996e-03
vertex 0.000000e+00 0.000000e+00 9.803996e-03
endloop
endfacet
facet normal 0.000000e+00 -0.000000e+00 1.000000e+00
outer loop
vertex 1.903277e-04 -3.995469e-03 9.803996e-03
vertex 4.433528e-04 -3.975354e-03 9.803996e-03
vertex 0.000000e+00 0.000000e+00 9.803996e-03
endloop
endfacet
facet normal 0.000000e+00 -0.000000e+00 1.000000e+00
outer loop
vertex 4.433528e-04 -3.975354e-03 9.803996e-03
vertex 6.945927e-04 -3.939231e-03 9.803996e-03
vertex 0.000000e+00 0.000000e+00 9.803996e-03
endloop
endfacet
facet normal 0.000000e+00 -0.000000e+00 1.000000e+00
outer loop
vertex 6.945927e-04 -3.939231e-03 9.803996e-03
vertex 9.430357e-04 -3.887246e-03 9.803996e-03
vertex 0.000000e+00 0.000000e+00 9.803996e-03
endloop
endfacet
facet normal 0.000000e+00 -0.000000e+00 1.000000e+00
outer loop
vertex 9.430357e-04 -3.887246e-03 9.803996e-03
vertex 1.187682e-03 -3.819609e-03 9.803996e-03
vertex 0.000000e+00 0.000000e+00 9.803996e-03
endloop
endfacet
facet normal 0.000000e+00 -0.000000e+00 1.000000e+00
outer loop
vertex 1.187682e-03 -3.819609e-03 9.803996e-03
vertex 1.427545e-03 -3.736591e-03 9.803996e-03
vertex 0.000000e+00 0.000000e+00 9.803996e-03
endloop
endfacet
facet normal 0.000000e+00 -0.000000e+00 1.000000e+00
outer loop
vertex 1.427545e-03 -3.736591e-03 9.803996e-03
vertex 1.661660e-03 -3.638528e-03 9.803996e-03
vertex 0.000000e+00 0.000000e+00 9.803996e-03
endloop
endfacet
facet normal 0.000000e+00 -0.000000e+00 1.000000e+00
outer loop
vertex 1.661660e-03 -3.638528e-03 9.803996e-03
vertex 1.889084e-03 -3.525813e-03 9.803996e-03
vertex 0.000000e+00 0.000000e+00 9.803996e-03
endloop
endfacet
facet normal 0.000000e+00 -0.000000e+00 1.000000e+00
outer loop
vertex 1.889084e-03 -3.525813e-03 9.803996e-03
vertex 2.108902e-03 -3.398902e-03 9.803996e-03
vertex 0.000000e+00 0.000000e+00 9.803996e-03
endloop
endfacet
facet normal 0.000000e+00 -0.000000e+00 1.000000e+00
outer loop
vertex 2.108902e-03 -3.398902e-03 9.803996e-03
vertex 2.320228e-03 -3.258304e-03 9.803996e-03
vertex 0.000000e+00 0.000000e+00 9.803996e-03
endloop
endfacet
facet normal 0.000000e+00 -0.000000e+00 1.000000e+00
outer loop
vertex 2.320228e-03 -3.258304e-03 9.803996e-03
vertex 2.522211e-03 -3.104586e-03 9.803996e-03
vertex 0.000000e+00 0.000000e+00 9.803996e-03
endloop
endfacet
facet normal 0.000000e+00 -0.000000e+00 1.000000e+00
outer loop
vertex 2.522211e-03 -3.104586e-03 9.803996e-03
vertex 2.714038e-03 -2.938367e-03 9.803996e-03
vertex 0.000000e+00 0.000000e+00 9.803996e-03
endloop
endfacet
facet normal 0.000000e+00 -0.000000e+00 1.000000e+00
outer loop
vertex 2.714038e-03 -2.938367e-03 9.803996e-03
vertex 2.894936e-03 -2.760316e-03 9.803996e-03
vertex 0.000000e+00 0.000000e+00 9.803996e-03
endloop
endfacet
facet normal 0.000000e+00 -0.000000e+00 1.000000e+00
outer loop
vertex 2.894936e-03 -2.760316e-03 9.803996e-03
vertex 3.064178e-03 -2.571150e-03 9.803996e-03
vertex 0.000000e+00 0.000000e+00 9.803996e-03
endloop
endfacet
facet normal 0.000000e+00 -0.000000e+00 1.000000e+00
outer loop
vertex 3.064178e-03 -2.571150e-03 9.803996e-03
vertex 3.221081e-03 -2.371632e-03 9.803996e-03
vertex 0.000000e+00 0.000000e+00 9.803996e-03
endloop
endfacet
facet normal 0.000000e+00 -0.000000e+00 1.000000e+00
outer loop
vertex 3.221081e-03 -2.371632e-03 9.803996e-03
vertex 3.365014e-03 -2.162563e-03 9.803996e-03
vertex 0.000000e+00 0.000000e+00 9.803996e-03
endloop
endfacet
facet normal 0.000000e+00 -0.000000e+00 1.000000e+00
outer loop
vertex 3.365014e-03 -2.162563e-03 9.803996e-03
vertex 3.495398e-03 -1.944787e-03 9.803996e-03
vertex 0.000000e+00 0.000000e+00 9.803996e-03
endloop
endfacet
facet normal 0.000000e+00 -0.000000e+00 1.000000e+00
outer loop
vertex 3.495398e-03 -1.944787e-03 9.803996e-03
vertex 3.611706e-03 -1.719180e-03 9.803996e-03
vertex 0.000000e+00 0.000000e+00 9.803996e-03
endloop
endfacet
facet normal 0.000000e+00 -0.000000e+00 1.000000e+00
outer loop
vertex 3.611706e-03 -1.719180e-03 9.803996e-03
vertex 3.713472e-03 -1.486650e-03 9.803996e-03
vertex 0.000000e+00 0.000000e+00 9.803996e-03
endloop
endfacet
facet normal 0.000000e+00 -0.000000e+00 1.000000e+00
outer loop
vertex 3.713472e-03 -1.486650e-03 9.803996e-03
vertex 3.800284e-03 -1.248134e-03 9.803996e-03
vertex 0.000000e+00 0.000000e+00 9.803996e-03
endloop
endfacet
facet normal 0.000000e+00 -0.000000e+00 1.000000e+00
outer loop
vertex 3.800284e-03 -1.248134e-03 9.803996e-03
vertex 3.871795e-03 -1.004592e-03 9.803996e-03
vertex 0.000000e+00 0.000000e+00 9.803996e-03
endloop
endfacet
facet normal 0.000000e+00 -0.000000e+00 1.000000e+00
outer loop
vertex 3.871795e-03 -1.004592e-03 9.803996e-03
vertex 3.927715e-03 -7.570050e-04 9.803996e-03
vertex 0.000000e+00 0.000000e+00 9.803996e-03
endloop
endfacet
facet normal 0.000000e+00 -0.000000e+00 1.000000e+00
outer loop
vertex 3.927715e-03 -7.570050e-04 9.803996e-03
vertex 3.967819e-03 -5.063698e-04 9.803996e-03
vertex 0.000000e+00 0.000000e+00 9.803996e-03
endloop
endfacet
facet normal 0.000000e+00 -0.000000e+00 1.000000e+00
outer loop
vertex 3.967819e-03 -5.063698e-04 9.803996e-03
vertex 3.991947e-03 -2.536957e-04 9.803996e-03
vertex 0.000000e+00 0.000000e+00 9.803996e-03
endloop
endfacet
facet normal 0.000000e+00 -0.000000e+00 1.000000e+00
outer loop
vertex 3.991947e-03 -2.536957e-04 9.803996e-03
vertex 4.000000e-03 -9.797174e-19 9.803996e-03
vertex 0.000000e+00 0.000000e+00 9.803996e-03
endloop
endfacet
facet normal 0.000000e+00 -0.000000e+00 1.000000e+00
outer loop
vertex 4.000000e-03 -9.797174e-19 9.803996e-03
vertex 4.000000e-03 0.000000e+00 9.803996e-03
vertex 0.000000e+00 0.000000e+00 9.803996e-03
endloop
endfacet
endsolid disk
