solid Created by Gmsh
facet normal 0 -0 -1
  outer loop
    vertex -0.003762059407316382 0.001369277643804322 0
    vertex -0.003254277149278895 0.0009071699421820096 0
    vertex -0.003916013919537789 0.0008323744541889099 0
  endloop
endfacet
facet normal 0 0 -1
  outer loop
    vertex -0.0001193593207075113 -0.003471598593052277 0
    vertex -0.0001597379785029721 -0.00287417714992338 0
    vertex 0.0004521634493171525 -0.003025148531130643 0
  endloop
endfacet
facet normal 0 0 -1
  outer loop
    vertex -0.002436045881295896 0.001685392035174295 0
    vertex -0.002688167729261217 0.002262722965027281 0
    vertex -0.002045949267384772 0.002084993193489213 0
  endloop
endfacet
facet normal -0 0 -1
  outer loop
    vertex -0.001897903366816066 -0.001961401878144711 0
    vertex -0.002263107515424893 -0.002495931188810299 0
    vertex -0.002414965141329177 -0.001836647791740197 0
  endloop
endfacet
facet normal 0 0 -1
  outer loop
    vertex -0.003238899536980117 -0.002353198257552896 0
    vertex -0.002983282071741862 -0.001666503041923252 0
    vertex -0.002714464801725323 -0.002241370822664083 0
  endloop
endfacet
facet normal 0 0 -1
  outer loop
    vertex -0.0001193593207075113 -0.003471598593052277 0
    vertex 0.0004521634493171525 -0.003025148531130643 0
    vertex 0.0004053820280125328 -0.003568803102387419 0
  endloop
endfacet
facet normal 0 0 -1
  outer loop
    vertex -0.003993747675215207 -0.0002792700426345896 0
    vertex -0.003372025464466163 -0.00047890031068013 0
    vertex -0.003916013919537795 -0.0008323744541888793 0
  endloop
endfacet
facet normal 0 0 -1
  outer loop
    vertex 0.003066858928026819 -0.002573400195380072 0
    vertex 0.002663104124899266 -0.002091683537398234 0
    vertex 0.003395160552962243 -0.002121531774357649 0
  endloop
endfacet
facet normal 0 0 -1
  outer loop
    vertex -0.002879876890655811 -0.002781064786132574 0
    vertex -0.002263107515424893 -0.002495931188810299 0
    vertex -0.002464800716466297 -0.003154801052064493 0
  endloop
endfacet
facet normal 0 0 -1
  outer loop
    vertex 0.001995249881733219 0.002059116338403102 0
    vertex 0.001865367728469127 0.002562932796444241 0
    vertex 0.002461126854568363 0.002444125128001458 0
  endloop
endfacet
facet normal 0 0 -1
  outer loop
    vertex 0.003848411199689057 -0.001103514154013366 0
    vertex 0.003323098515904066 -0.0007408710858948527 0
    vertex 0.003964538213206877 -0.0005571795096936238 0
  endloop
endfacet
facet normal 0 0 -1
  outer loop
    vertex 0.003395160552962243 -0.002121531774357649 0
    vertex 0.002663104124899266 -0.002091683537398234 0
    vertex 0.003080548824425305 -0.00162906100184379 0
  endloop
endfacet
facet normal -0 0 -1
  outer loop
    vertex 0.003476668380609123 0.0001787125931763236 0
    vertex 0.003084487070021896 -0.0002128604005173806 0
    vertex 0.002982041938447326 0.0003219552398066218 0
  endloop
endfacet
facet normal 0 0 -1
  outer loop
    vertex -0.003214171755129877 0.001429873237721059 0
    vertex -0.003254277149278895 0.0009071699421820096 0
    vertex -0.003762059407316382 0.001369277643804322 0
  endloop
endfacet
facet normal 0 0 -1
  outer loop
    vertex -0.003534880688010725 -0.001879529401613292 0
    vertex -0.002983282071741862 -0.001666503041923252 0
    vertex -0.003238899536980117 -0.002353198257552896 0
  endloop
endfacet
facet normal 0 0 -1
  outer loop
    vertex -0.001705997866914225 -0.002526934896097683 0
    vertex -0.001211932020097631 -0.002613028811200339 0
    vertex -0.001508859271422184 -0.003084097197541948 0
  endloop
endfacet
facet normal 0 -0 -1
  outer loop
    vertex -0.002414965141329177 -0.001836647791740197 0
    vertex -0.002263107515424893 -0.002495931188810299 0
    vertex -0.002714464801725323 -0.002241370822664083 0
  endloop
endfacet
facet normal 0 0 -1
  outer loop
    vertex 0.003551022632969761 -0.0002565172971278247 0
    vertex 0.003084487070021896 -0.0002128604005173806 0
    vertex 0.003476668380609123 0.0001787125931763236 0
  endloop
endfacet
facet normal 0 0 -1
  outer loop
    vertex -0.002045949267384772 0.002084993193489213 0
    vertex -0.002688167729261217 0.002262722965027281 0
    vertex -0.002304780833363763 0.002620029773230303 0
  endloop
endfacet
facet normal -0 0 -1
  outer loop
    vertex -0.001697193778874505 0.002464500907449696 0
    vertex -0.002045949267384772 0.002084993193489213 0
    vertex -0.002304780833363763 0.002620029773230303 0
  endloop
endfacet
facet normal 0 0 -1
  outer loop
    vertex 0.0003668988543541327 0.003490809418161951 0
    vertex 0.0008736141691755277 0.003491487798514161 0
    vertex 0.0007539386825963289 0.002961946620803479 0
  endloop
endfacet
facet normal 0 0 -1
  outer loop
    vertex 0.003964538213206877 0.0005571795096936217 0
    vertex 0.003389751997418762 0.0007063769094153381 0
    vertex 0.00384841119968906 0.001103514154013356 0
  endloop
endfacet
facet normal 0 0 -1
  outer loop
    vertex 0.0007539386825963289 0.002961946620803479 0
    vertex 0.0001642915958672966 0.003012362312484364 0
    vertex 0.0003668988543541327 0.003490809418161951 0
  endloop
endfacet
facet normal -0 0 -1
  outer loop
    vertex 0.003964538213206877 -0.0005571795096936238 0
    vertex 0.003323098515904066 -0.0007408710858948527 0
    vertex 0.003551022632969761 -0.0002565172971278247 0
  endloop
endfacet
facet normal 0 0 -1
  outer loop
    vertex 0.001865367728469127 0.002562932796444241 0
    vertex 0.002227734939229407 0.002851370694210839 0
    vertex 0.002461126854568363 0.002444125128001458 0
  endloop
endfacet
facet normal 0 0 -1
  outer loop
    vertex -0.001508859271422184 -0.003084097197541948 0
    vertex -0.001986661702201354 -0.002946013517045677 0
    vertex -0.001705997866914225 -0.002526934896097683 0
  endloop
endfacet
facet normal 0 0 -1
  outer loop
    vertex -0.003254277149278895 0.0009071699421820096 0
    vertex -0.003538879498439012 0.0004851854190400649 0
    vertex -0.003916013919537789 0.0008323744541889099 0
  endloop
endfacet
facet normal 0 -0 -1
  outer loop
    vertex 0.001173009651210666 -0.002295265514918844 0
    vertex 0.001536990410660544 -0.002774192791198726 0
    vertex 0.001006173057376747 -0.002868892947612454 0
  endloop
endfacet
facet normal 0 0 -1
  outer loop
    vertex -0.002304780833363763 0.002620029773230303 0
    vertex -0.001933341629792483 0.0029400776430899 0
    vertex -0.001697193778874505 0.002464500907449696 0
  endloop
endfacet
facet normal 0 0 -1
  outer loop
    vertex 0.0007539386825963289 0.002961946620803479 0
    vertex 0.0008736141691755277 0.003491487798514161 0
    vertex 0.001314883292657519 0.003254450351433354 0
  endloop
endfacet
facet normal 0 0 -1
  outer loop
    vertex -0.003374064861847253 -0.0009674975303856102 0
    vertex -0.003372025464466163 -0.00047890031068013 0
    vertex -0.002823994030113236 -0.0007337203668150479 0
  endloop
endfacet
facet normal 0 0 -1
  outer loop
    vertex -0.003916013919537795 -0.0008323744541888793 0
    vertex -0.003372025464466163 -0.00047890031068013 0
    vertex -0.003374064861847253 -0.0009674975303856102 0
  endloop
endfacet
facet normal 0 -0 -1
  outer loop
    vertex -0.003469931853528669 3.094521463942613e-05 0
    vertex -0.003372025464466163 -0.00047890031068013 0
    vertex -0.003993747675215207 -0.0002792700426345896 0
  endloop
endfacet
facet normal 0 0 -1
  outer loop
    vertex 0.001314883292657519 0.003254450351433354 0
    vertex 0.001303616090398193 0.002725313692195817 0
    vertex 0.0007539386825963289 0.002961946620803479 0
  endloop
endfacet
facet normal 0 0 -1
  outer loop
    vertex 0.002115543884584829 -0.00277459514281447 0
    vertex 0.001536990410660544 -0.002774192791198726 0
    vertex 0.001764227249032823 -0.002326319374289692 0
  endloop
endfacet
facet normal 0 -0 -1
  outer loop
    vertex -0.002714464801725323 -0.002241370822664083 0
    vertex -0.002263107515424893 -0.002495931188810299 0
    vertex -0.002879876890655811 -0.002781064786132574 0
  endloop
endfacet
facet normal 0 0 -1
  outer loop
    vertex 0.002825659022784957 0.0008489815634375693 0
    vertex 0.002685417517802474 0.001364773716703986 0
    vertex 0.00324119322977523 0.001227918396364537 0
  endloop
endfacet
facet normal 0 -0 -1
  outer loop
    vertex -0.003238899536980101 0.002353198257552918 0
    vertex -0.002929589775041917 0.001824617158586397 0
    vertex -0.003534880688010711 0.00187952940161332 0
  endloop
endfacet
facet normal 0 0 -1
  outer loop
    vertex -0.002464800716466297 -0.003154801052064493 0
    vertex -0.002263107515424893 -0.002495931188810299 0
    vertex -0.001986661702201354 -0.002946013517045677 0
  endloop
endfacet
facet normal 0 0 -1
  outer loop
    vertex -0.0003634107513395395 0.00309932074126491 0
    vertex -0.0001234098545635106 0.003541290753327753 0
    vertex 0.0001642915958672966 0.003012362312484364 0
  endloop
endfacet
facet normal 0 0 -1
  outer loop
    vertex -0.002823994030113236 -0.0007337203668150479 0
    vertex -0.00301823040937476 -0.001203077693343276 0
    vertex -0.003374064861847253 -0.0009674975303856102 0
  endloop
endfacet
facet normal 0 0 -1
  outer loop
    vertex 0.0001642915958672966 0.003012362312484364 0
    vertex -0.0001234098545635106 0.003541290753327753 0
    vertex 0.0003668988543541327 0.003490809418161951 0
  endloop
endfacet
facet normal 0 0 -1
  outer loop
    vertex -0.002436045881295896 0.001685392035174295 0
    vertex -0.002929589775041917 0.001824617158586397 0
    vertex -0.002688167729261217 0.002262722965027281 0
  endloop
endfacet
facet normal -0 0 -1
  outer loop
    vertex 0.003080548824425305 -0.00162906100184379 0
    vertex 0.002663104124899266 -0.002091683537398234 0
    vertex 0.002510006926491253 -0.001538723978193903 0
  endloop
endfacet
facet normal 0 0 -1
  outer loop
    vertex 0.001006173057376747 -0.002868892947612454 0
    vertex 0.0007098333685870656 -0.0025257415118231 0
    vertex 0.001173009651210666 -0.002295265514918844 0
  endloop
endfacet
facet normal 0 0 -1
  outer loop
    vertex -0.002714464801725323 -0.002241370822664083 0
    vertex -0.002983282071741862 -0.001666503041923252 0
    vertex -0.002414965141329177 -0.001836647791740197 0
  endloop
endfacet
facet normal 0 -0 -1
  outer loop
    vertex 0.002461126854568363 0.002444125128001458 0
    vertex 0.002534492277244362 0.001886231249932848 0
    vertex 0.001995249881733219 0.002059116338403102 0
  endloop
endfacet
facet normal -0 0 -1
  outer loop
    vertex 0.00384841119968906 0.001103514154013356 0
    vertex 0.003389751997418762 0.0007063769094153381 0
    vertex 0.00324119322977523 0.001227918396364537 0
  endloop
endfacet
facet normal 0 0 -1
  outer loop
    vertex -0.003469931853528669 3.094521463942613e-05 0
    vertex -0.003059449727842105 0.0003447667238248023 0
    vertex -0.002915405614659705 -0.0001569264635373635 0
  endloop
endfacet
facet normal -0 0 -1
  outer loop
    vertex 0.002115543884584829 -0.00277459514281447 0
    vertex 0.001800203751092514 -0.003144905883757594 0
    vertex 0.001536990410660544 -0.002774192791198726 0
  endloop
endfacet
facet normal 0 0 -1
  outer loop
    vertex -0.0001193593207075113 -0.003471598593052277 0
    vertex -0.0006118794324177571 -0.003177574175658853 0
    vertex -0.0001597379785029721 -0.00287417714992338 0
  endloop
endfacet
facet normal 0 0 -1
  outer loop
    vertex -0.0001597379785029721 -0.00287417714992338 0
    vertex 0.000246412560146964 -0.00246733733578751 0
    vertex 0.0004521634493171525 -0.003025148531130643 0
  endloop
endfacet
facet normal 0 0 -1
  outer loop
    vertex -0.001933341629792483 0.0029400776430899 0
    vertex -0.001268842279803557 0.002880291752147631 0
    vertex -0.001697193778874505 0.002464500907449696 0
  endloop
endfacet
facet normal 0 0 -1
  outer loop
    vertex -0.001705997866914225 -0.002526934896097683 0
    vertex -0.002263107515424893 -0.002495931188810299 0
    vertex -0.001897903366816066 -0.001961401878144711 0
  endloop
endfacet
facet normal 0 0 -1
  outer loop
    vertex 0.002685417517802474 0.001364773716703986 0
    vertex 0.003096294385654366 0.001700553475514921 0
    vertex 0.00324119322977523 0.001227918396364537 0
  endloop
endfacet
facet normal -0 0 -1
  outer loop
    vertex 0.003848411199689057 -0.001103514154013366 0
    vertex 0.003359161148489526 -0.001246825500466535 0
    vertex 0.003323098515904066 -0.0007408710858948527 0
  endloop
endfacet
facet normal 0 0 -1
  outer loop
    vertex -0.001933341629792483 0.0029400776430899 0
    vertex -0.001562882688717521 0.003279038762950756 0
    vertex -0.001268842279803557 0.002880291752147631 0
  endloop
endfacet
facet normal 0 0 -1
  outer loop
    vertex 0.001303616090398193 0.002725313692195817 0
    vertex 0.001786686276225469 0.003083981832058946 0
    vertex 0.001865367728469127 0.002562932796444241 0
  endloop
endfacet
facet normal 0 0 -1
  outer loop
    vertex 0.003476668380609123 0.0001787125931763236 0
    vertex 0.003389751997418762 0.0007063769094153381 0
    vertex 0.003964538213206877 0.0005571795096936217 0
  endloop
endfacet
facet normal 0 0 -1
  outer loop
    vertex -0.002823994030113236 -0.0007337203668150479 0
    vertex -0.003372025464466163 -0.00047890031068013 0
    vertex -0.002915405614659705 -0.0001569264635373635 0
  endloop
endfacet
facet normal 0 0 -1
  outer loop
    vertex 0.002534492277244362 0.001886231249932848 0
    vertex 0.003096294385654366 0.001700553475514921 0
    vertex 0.002685417517802474 0.001364773716703986 0
  endloop
endfacet
facet normal -0 0 -1
  outer loop
    vertex -0.002436045881295896 0.001685392035174295 0
    vertex -0.002771256937107072 0.001240606947707605 0
    vertex -0.002929589775041917 0.001824617158586397 0
  endloop
endfacet
facet normal -0 0 -1
  outer loop
    vertex 0.001764227249032823 -0.002326319374289692 0
    vertex 0.001536990410660544 -0.002774192791198726 0
    vertex 0.001173009651210666 -0.002295265514918844 0
  endloop
endfacet
facet normal 0 0 -1
  outer loop
    vertex -0.003534880688010711 0.00187952940161332 0
    vertex -0.002929589775041917 0.001824617158586397 0
    vertex -0.003214171755129877 0.001429873237721059 0
  endloop
endfacet
facet normal 0 0 -1
  outer loop
    vertex 0.002510006926491253 -0.001538723978193903 0
    vertex 0.002886367962757054 -0.001132311110026693 0
    vertex 0.003080548824425305 -0.00162906100184379 0
  endloop
endfacet
facet normal 0 -0 -1
  outer loop
    vertex 0.001314883292657519 0.003254450351433354 0
    vertex 0.001786686276225469 0.003083981832058946 0
    vertex 0.001303616090398193 0.002725313692195817 0
  endloop
endfacet
facet normal 0 0 -1
  outer loop
    vertex -0.0001597379785029721 -0.00287417714992338 0
    vertex -0.0002869753546189375 -0.002335625943469935 0
    vertex 0.000246412560146964 -0.00246733733578751 0
  endloop
endfacet
facet normal 0 -0 -1
  outer loop
    vertex -0.001211932020097631 -0.002613028811200339 0
    vertex -0.001019529655059815 -0.002995909973888533 0
    vertex -0.001508859271422184 -0.003084097197541948 0
  endloop
endfacet
facet normal -0 0 -1
  outer loop
    vertex -0.002915405614659705 -0.0001569264635373635 0
    vertex -0.003372025464466163 -0.00047890031068013 0
    vertex -0.003469931853528669 3.094521463942613e-05 0
  endloop
endfacet
facet normal 0 0 -1
  outer loop
    vertex -0.0002869753546189375 -0.002335625943469935 0
    vertex 0.0001043198580691104 -0.001942191779228391 0
    vertex 0.000246412560146964 -0.00246733733578751 0
  endloop
endfacet
facet normal 0 -0 -1
  outer loop
    vertex 0.000885184410257349 -0.001145864935480329 0
    vertex 0.001031520684267855 -0.001691421082740854 0
    vertex 0.0004928271775903386 -0.001542170447861516 0
  endloop
endfacet
facet normal 0 0 -1
  outer loop
    vertex 0.0001043198580691104 -0.001942191779228391 0
    vertex 0.0006311224377238055 -0.002064043252770866 0
    vertex 0.000246412560146964 -0.00246733733578751 0
  endloop
endfacet
facet normal 0 0 -1
  outer loop
    vertex -0.0002869753546189375 -0.002335625943469935 0
    vertex -0.0004356688463529666 -0.001808410173455978 0
    vertex 0.0001043198580691104 -0.001942191779228391 0
  endloop
endfacet
facet normal 0 0 -1
  outer loop
    vertex -0.0002869753546189375 -0.002335625943469935 0
    vertex -0.0008223121837527445 -0.002201472103492027 0
    vertex -0.0004356688463529666 -0.001808410173455978 0
  endloop
endfacet
facet normal 0 0 -1
  outer loop
    vertex -0.0004356688463529666 -0.001808410173455978 0
    vertex -4.623262614274793e-05 -0.001409043234954961 0
    vertex 0.0001043198580691104 -0.001942191779228391 0
  endloop
endfacet
facet normal 0 0 -1
  outer loop
    vertex -0.0004356688463529666 -0.001808410173455978 0
    vertex -0.0005873792140613436 -0.00127360326099597 0
    vertex -4.623262614274793e-05 -0.001409043234954961 0
  endloop
endfacet
facet normal 0 0 -1
  outer loop
    vertex -0.0005873792140613436 -0.00127360326099597 0
    vertex -0.0001983986623083345 -0.0008730435503849768 0
    vertex -4.623262614274793e-05 -0.001409043234954961 0
  endloop
endfacet
facet normal 0 0 -1
  outer loop
    vertex 0.0004928271775903386 -0.001542170447861516 0
    vertex 0.001031520684267855 -0.001691421082740854 0
    vertex 0.0006311224377238055 -0.002064043252770866 0
  endloop
endfacet
facet normal 0 0 -1
  outer loop
    vertex -0.0005873792140613436 -0.00127360326099597 0
    vertex -0.0007399580029852804 -0.0007370416530508032 0
    vertex -0.0001983986623083345 -0.0008730435503849768 0
  endloop
endfacet
facet normal 0 0 -1
  outer loop
    vertex -0.0008927660267496101 -0.0001999849837967026 0
    vertex -0.001434415181863787 -6.384178199395107e-05 0
    vertex -0.001045621409649539 0.0003371674273844515 0
  endloop
endfacet
facet normal 0 0 -1
  outer loop
    vertex -0.0005873792140613436 -0.00127360326099597 0
    vertex -0.001128723390483572 -0.001138033743548271 0
    vertex -0.0007399580029852804 -0.0007370416530508032 0
  endloop
endfacet
facet normal 0 0 -1
  outer loop
    vertex -0.0007399580029852804 -0.0007370416530508032 0
    vertex -0.0003511118939665919 -0.0003361446464387843 0
    vertex -0.0001983986623083345 -0.0008730435503849768 0
  endloop
endfacet
facet normal 0 0 -1
  outer loop
    vertex -0.001128723390483572 -0.001138033743548271 0
    vertex -0.00128153811629377 -0.0006010301514951808 0
    vertex -0.0007399580029852804 -0.0007370416530508032 0
  endloop
endfacet
facet normal 0 0 -1
  outer loop
    vertex -0.0003511118939665919 -0.0003361446464387843 0
    vertex 0.0001906049087660379 -0.0004724208850023176 0
    vertex -0.0001983986623083345 -0.0008730435503849768 0
  endloop
endfacet
facet normal 0 0 -1
  outer loop
    vertex -0.001128723390483572 -0.001138033743548271 0
    vertex -0.001670340197821856 -0.001002012974657926 0
    vertex -0.00128153811629377 -0.0006010301514951808 0
  endloop
endfacet
facet normal 0 0 -1
  outer loop
    vertex -0.0003511118939665919 -0.0003361446464387843 0
    vertex 3.772601194368218e-05 6.477911797885177e-05 0
    vertex 0.0001906049087660379 -0.0004724208850023176 0
  endloop
endfacet
facet normal -0 0 -1
  outer loop
    vertex 0.001204122224982333 0.001267773849029815 0
    vertex 0.0008153219574660957 0.0008667459868600652 0
    vertex 0.0006624103706231604 0.001403844752570823 0
  endloop
endfacet
facet normal 0 0 -1
  outer loop
    vertex 0.0002736489617646169 0.001002971190093153 0
    vertex 0.0001207215924895605 0.001540008033330079 0
    vertex 0.0006624103706231604 0.001403844752570823 0
  endloop
endfacet
facet normal 0 0 -1
  outer loop
    vertex -0.0002680307176067342 0.001139176453727031 0
    vertex 0.0001207215924895605 0.001540008033330079 0
    vertex 0.0002736489617646169 0.001002971190093153 0
  endloop
endfacet
facet normal -0 0 -1
  outer loop
    vertex -0.001128723390483572 -0.001138033743548271 0
    vertex -0.001517490396808884 -0.001539132702495601 0
    vertex -0.001670340197821856 -0.001002012974657926 0
  endloop
endfacet
facet normal 0 0 -1
  outer loop
    vertex -0.0003511118939665919 -0.0003361446464387843 0
    vertex -0.0005039515557386919 0.0002009809028140526 0
    vertex 3.772601194368218e-05 6.477911797885177e-05 0
  endloop
endfacet
facet normal 0 0 -1
  outer loop
    vertex 3.772601194368218e-05 6.477911797885177e-05 0
    vertex 0.0005794166466665414 -7.144686779671919e-05 0
    vertex 0.0001906049087660379 -0.0004724208850023176 0
  endloop
endfacet
facet normal 0 0 -1
  outer loop
    vertex -0.001517490396808884 -0.001539132702495601 0
    vertex -0.002058105836226779 -0.001398951177840723 0
    vertex -0.001670340197821856 -0.001002012974657926 0
  endloop
endfacet
facet normal 0 0 -1
  outer loop
    vertex -0.0005039515557386919 0.0002009809028140526 0
    vertex -0.0001151496400999043 0.0006019727353367688 0
    vertex 3.772601194368218e-05 6.477911797885177e-05 0
  endloop
endfacet
facet normal 0 -0 -1
  outer loop
    vertex 0.0005794166466665414 -7.144686779671919e-05 0
    vertex 0.0007322978665107571 -0.0006086499114137699 0
    vertex 0.0001906049087660379 -0.0004724208850023176 0
  endloop
endfacet
facet normal -0 0 -1
  outer loop
    vertex -0.001517490396808884 -0.001539132702495601 0
    vertex -0.001897903366816066 -0.001961401878144711 0
    vertex -0.002058105836226779 -0.001398951177840723 0
  endloop
endfacet
facet normal 0 0 -1
  outer loop
    vertex -0.0005039515557386919 0.0002009809028140526 0
    vertex -0.00065682687269508 0.0007381734013014946 0
    vertex -0.0001151496400999043 0.0006019727353367688 0
  endloop
endfacet
facet normal 0 0 -1
  outer loop
    vertex 0.0005794166466665414 -7.144686779671919e-05 0
    vertex 0.001121094814120634 -0.0002076490613625291 0
    vertex 0.0007322978665107571 -0.0006086499114137699 0
  endloop
endfacet
facet normal 0 0 -1
  outer loop
    vertex -0.0005039515557386919 0.0002009809028140526 0
    vertex -0.001045621409649539 0.0003371674273844515 0
    vertex -0.00065682687269508 0.0007381734013014946 0
  endloop
endfacet
facet normal 0 0 -1
  outer loop
    vertex -0.00065682687269508 0.0007381734013014946 0
    vertex -0.0002680307176067342 0.001139176453727031 0
    vertex -0.0001151496400999043 0.0006019727353367688 0
  endloop
endfacet
facet normal 0 0 -1
  outer loop
    vertex 0.0005794166466665414 -7.144686779671919e-05 0
    vertex 0.0009682113103083229 0.0003295591326993833 0
    vertex 0.001121094814120634 -0.0002076490613625291 0
  endloop
endfacet
facet normal 0 -0 -1
  outer loop
    vertex 0.001121094814120634 -0.0002076490613625291 0
    vertex 0.001273978621711993 -0.0007448579284801032 0
    vertex 0.0007322978665107571 -0.0006086499114137699 0
  endloop
endfacet
facet normal 0 0 -1
  outer loop
    vertex -0.001045621409649539 0.0003371674273844515 0
    vertex -0.00119850300054454 0.0008743718601287177 0
    vertex -0.00065682687269508 0.0007381734013014946 0
  endloop
endfacet
facet normal 0 0 -1
  outer loop
    vertex -0.0002680307176067342 0.001139176453727031 0
    vertex 0.0002736489617646169 0.001002971190093153 0
    vertex -0.0001151496400999043 0.0006019727353367688 0
  endloop
endfacet
facet normal -0 0 -1
  outer loop
    vertex 0.001273978621711993 -0.0007448579284801032 0
    vertex 0.000885184410257349 -0.001145864935480329 0
    vertex 0.0007322978665107571 -0.0006086499114137699 0
  endloop
endfacet
facet normal 0 0 -1
  outer loop
    vertex 0.0009682113103083229 0.0003295591326993833 0
    vertex 0.001509889965147378 0.0001933558321232121 0
    vertex 0.001121094814120634 -0.0002076490613625291 0
  endloop
endfacet
facet normal 0 0 -1
  outer loop
    vertex 0.0009682113103083229 0.0003295591326993833 0
    vertex 0.001357006096732206 0.0007305648451583755 0
    vertex 0.001509889965147378 0.0001933558321232121 0
  endloop
endfacet
facet normal 0 -0 -1
  outer loop
    vertex 0.001273978621711993 -0.0007448579284801032 0
    vertex 0.001427083984472499 -0.001282005023806807 0
    vertex 0.000885184410257349 -0.001145864935480329 0
  endloop
endfacet
facet normal 0 0 -1
  outer loop
    vertex -0.001045621409649539 0.0003371674273844515 0
    vertex -0.001587297765367943 0.0004733660525619084 0
    vertex -0.00119850300054454 0.0008743718601287177 0
  endloop
endfacet
facet normal 0 0 -1
  outer loop
    vertex -0.001587297765367943 0.0004733660525619084 0
    vertex -0.001740181599372455 0.001010575099538942 0
    vertex -0.00119850300054454 0.0008743718601287177 0
  endloop
endfacet
facet normal 0 0 -1
  outer loop
    vertex 0.001357006096732206 0.0007305648451583755 0
    vertex 0.001898684716894493 0.0005943616235783705 0
    vertex 0.001509889965147378 0.0001933558321232121 0
  endloop
endfacet
facet normal 0 0 -1
  outer loop
    vertex -0.001587297765367943 0.0004733660525619084 0
    vertex -0.002128976364194187 0.0006095692919749324 0
    vertex -0.001740181599372455 0.001010575099538942 0
  endloop
endfacet
facet normal 0 0 -1
  outer loop
    vertex -0.001740181599372455 0.001010575099538942 0
    vertex -0.001351386834595155 0.001411580907091702 0
    vertex -0.00119850300054454 0.0008743718601287177 0
  endloop
endfacet
facet normal 0 -0 -1
  outer loop
    vertex 0.001898684716894493 0.0005943616235783705 0
    vertex 0.002051568594359296 5.715259843024236e-05 0
    vertex 0.001509889965147378 0.0001933558321232121 0
  endloop
endfacet
facet normal 0 0 -1
  outer loop
    vertex 0.001357006096732206 0.0007305648451583755 0
    vertex 0.001745800834193703 0.001131570662089842 0
    vertex 0.001898684716894493 0.0005943616235783705 0
  endloop
endfacet
facet normal 0 0 -1
  outer loop
    vertex 0.001357006096732206 0.0007305648451583755 0
    vertex 0.001204122224982333 0.001267773849029815 0
    vertex 0.001745800834193703 0.001131570662089842 0
  endloop
endfacet
facet normal 0 0 -1
  outer loop
    vertex -0.001740181599372455 0.001010575099538942 0
    vertex -0.001893065433385619 0.001547784146512198 0
    vertex -0.001351386834595155 0.001411580907091702 0
  endloop
endfacet
facet normal -0 0 -1
  outer loop
    vertex -0.001587297765367943 0.0004733660525619084 0
    vertex -0.001976092605160417 7.236097778582769e-05 0
    vertex -0.002128976364194187 0.0006095692919749324 0
  endloop
endfacet
facet normal 0 0 -1
  outer loop
    vertex 0.001898684716894493 0.0005943616235783705 0
    vertex 0.002440363327058705 0.0004581584330946051 0
    vertex 0.002051568594359296 5.715259843024236e-05 0
  endloop
endfacet
facet normal 0 0 -1
  outer loop
    vertex 0.001204122224982333 0.001267773849029815 0
    vertex 0.001592916954361584 0.001668779691528671 0
    vertex 0.001745800834193703 0.001131570662089842 0
  endloop
endfacet
facet normal 0 0 -1
  outer loop
    vertex -0.001893065433385619 0.001547784146512198 0
    vertex -0.001504270668566651 0.001948789954076837 0
    vertex -0.001351386834595155 0.001411580907091702 0
  endloop
endfacet
facet normal 0 -0 -1
  outer loop
    vertex 0.002440363327058705 0.0004581584330946051 0
    vertex 0.002576143818214801 -8.391804002355327e-05 0
    vertex 0.002051568594359296 5.715259843024236e-05 0
  endloop
endfacet
facet normal 0 0 -1
  outer loop
    vertex -0.001976092605160417 7.236097778582769e-05 0
    vertex -0.002517771141511304 0.0002085636065430138 0
    vertex -0.002128976364194187 0.0006095692919749324 0
  endloop
endfacet
facet normal 0 0 -1
  outer loop
    vertex 0.001204122224982333 0.001267773849029815 0
    vertex 0.001051238344909936 0.001804982887131621 0
    vertex 0.001592916954361584 0.001668779691528671 0
  endloop
endfacet
facet normal 0 0 -1
  outer loop
    vertex -0.002517771141511304 0.0002085636065430138 0
    vertex -0.002659622507787369 0.0007350760441951909 0
    vertex -0.002128976364194187 0.0006095692919749324 0
  endloop
endfacet
facet normal -0 0 -1
  outer loop
    vertex -0.001976092605160417 7.236097778582769e-05 0
    vertex -0.002364886838015453 -0.0003286440653617687 0
    vertex -0.002517771141511304 0.0002085636065430138 0
  endloop
endfacet
facet normal 0 0 -1
  outer loop
    vertex 0.001592916954361584 0.001668779691528671 0
    vertex 0.002133400593000604 0.001527824108781036 0
    vertex 0.001745800834193703 0.001131570662089842 0
  endloop
endfacet
facet normal 0 0 -1
  outer loop
    vertex -0.001504270668566651 0.001948789954076837 0
    vertex -0.0009625920949134022 0.001812586703591457 0
    vertex -0.001351386834595155 0.001411580907091702 0
  endloop
endfacet
facet normal -0 0 -1
  outer loop
    vertex 0.002576143818214801 -8.391804002355327e-05 0
    vertex 0.002201601913498709 -0.0004808676816884693 0
    vertex 0.002051568594359296 5.715259843024236e-05 0
  endloop
endfacet
facet normal 0 0 -1
  outer loop
    vertex 0.002440363327058705 0.0004581584330946051 0
    vertex 0.002982041938447326 0.0003219552398066218 0
    vertex 0.002576143818214801 -8.391804002355327e-05 0
  endloop
endfacet
facet normal 0 0 -1
  outer loop
    vertex 0.002238728789045115 -0.003319051921724123 0
    vertex 0.002115543884584829 -0.00277459514281447 0
    vertex 0.002678864382557677 -0.002975180308798759 0
  endloop
endfacet
facet normal 0 0 -1
  outer loop
    vertex -0.002364886838015453 -0.0003286440653617687 0
    vertex -0.002915405614659705 -0.0001569264635373635 0
    vertex -0.002517771141511304 0.0002085636065430138 0
  endloop
endfacet
facet normal 0 0 -1
  outer loop
    vertex 0.001051238344909936 0.001804982887131621 0
    vertex 0.001439006622857461 0.002201906541655483 0
    vertex 0.001592916954361584 0.001668779691528671 0
  endloop
endfacet
facet normal 0 0 -1
  outer loop
    vertex 0.003395160552962243 -0.002121531774357649 0
    vertex 0.003080548824425305 -0.00162906100184379 0
    vertex 0.003657379239672149 -0.001628370150553976 0
  endloop
endfacet
facet normal 0 0 -1
  outer loop
    vertex 0.002440363327058705 0.0004581584330946051 0
    vertex 0.002825659022784957 0.0008489815634375693 0
    vertex 0.002982041938447326 0.0003219552398066218 0
  endloop
endfacet
facet normal 0 0 -1
  outer loop
    vertex -0.001504270668566651 0.001948789954076837 0
    vertex -0.001117045160375248 0.002343554906190297 0
    vertex -0.0009625920949134022 0.001812586703591457 0
  endloop
endfacet
facet normal 0 0 -1
  outer loop
    vertex -0.003916013919537795 -0.0008323744541888793 0
    vertex -0.003374064861847253 -0.0009674975303856102 0
    vertex -0.003762059407316391 -0.001369277643804295 0
  endloop
endfacet
facet normal 0 -0 -1
  outer loop
    vertex 0.002576143818214801 -8.391804002355327e-05 0
    vertex 0.002723182949310126 -0.0006206885362931628 0
    vertex 0.002201601913498709 -0.0004808676816884693 0
  endloop
endfacet
facet normal 0 0 -1
  outer loop
    vertex 0.003964538213206877 -0.0005571795096936238 0
    vertex 0.003551022632969761 -0.0002565172971278247 0
    vertex 0.0040035 0 0
  endloop
endfacet
facet normal 0 -0 -1
  outer loop
    vertex -0.003534880688010711 0.00187952940161332 0
    vertex -0.003214171755129877 0.001429873237721059 0
    vertex -0.003762059407316382 0.001369277643804322 0
  endloop
endfacet
facet normal 0 0 -1
  outer loop
    vertex 0.001051238344909936 0.001804982887131621 0
    vertex 0.0008971569370203839 0.002337429369638179 0
    vertex 0.001439006622857461 0.002201906541655483 0
  endloop
endfacet
facet normal 0 0 -1
  outer loop
    vertex -0.0004184797026920891 -0.003981568408106879 0
    vertex -0.0001193593207075113 -0.003471598593052277 0
    vertex 0.0001397201350484248 -0.004001061175970952 0
  endloop
endfacet
facet normal 0 0 -1
  outer loop
    vertex -0.0009685343090332691 0.003884578940145952 0
    vertex -0.001110742037250959 0.003395711153707117 0
    vertex -0.001499737496740604 0.003711980561758134 0
  endloop
endfacet
facet normal 0 0 -1
  outer loop
    vertex -0.001504270668566651 0.001948789954076837 0
    vertex -0.001697193778874505 0.002464500907449696 0
    vertex -0.001117045160375248 0.002343554906190297 0
  endloop
endfacet
facet normal 0 0 -1
  outer loop
    vertex -0.00200175000000003 -0.003467132704050983 0
    vertex -0.001508859271422184 -0.003084097197541948 0
    vertex -0.001499737496740638 -0.00371198056175812 0
  endloop
endfacet
facet normal 0 0 -1
  outer loop
    vertex 0.0005093601488267864 0.001940392330186257 0
    vertex -3.239579324099447e-05 0.002076287872170491 0
    vertex 0.0003552137612097726 0.002472580389182631 0
  endloop
endfacet
facet normal -0 0 -1
  outer loop
    vertex -0.002364886838015453 -0.0003286440653617687 0
    vertex -0.002823994030113236 -0.0007337203668150479 0
    vertex -0.002915405614659705 -0.0001569264635373635 0
  endloop
endfacet
facet normal 0 0 -1
  outer loop
    vertex 0.00384841119968906 0.001103514154013356 0
    vertex 0.00324119322977523 0.001227918396364537 0
    vertex 0.003657379239672153 0.001628370150553965 0
  endloop
endfacet
facet normal -0 0 -1
  outer loop
    vertex 0.003066858928026829 0.002573400195380059 0
    vertex 0.002461126854568363 0.002444125128001458 0
    vertex 0.00267886438255769 0.002975180308798747 0
  endloop
endfacet
facet normal 0 0 -1
  outer loop
    vertex 0.001051238344909936 0.001804982887131621 0
    vertex 0.0005093601488267864 0.001940392330186257 0
    vertex 0.0008971569370203839 0.002337429369638179 0
  endloop
endfacet
facet normal 0 0 -1
  outer loop
    vertex -3.239579324099447e-05 0.002076287872170491 0
    vertex -0.0001865217888807257 0.002608556909563967 0
    vertex 0.0003552137612097726 0.002472580389182631 0
  endloop
endfacet
facet normal 0 -0 -1
  outer loop
    vertex -0.003993747675215206 0.000279270042634619 0
    vertex -0.003469931853528669 3.094521463942613e-05 0
    vertex -0.003993747675215207 -0.0002792700426345896 0
  endloop
endfacet
facet normal 0 0 -1
  outer loop
    vertex -0.003238899536980117 -0.002353198257552896 0
    vertex -0.002714464801725323 -0.002241370822664083 0
    vertex -0.002879876890655811 -0.002781064786132574 0
  endloop
endfacet
facet normal 0 0 -1
  outer loop
    vertex 0.0005093601488267864 0.001940392330186257 0
    vertex 0.0003552137612097726 0.002472580389182631 0
    vertex 0.0008971569370203839 0.002337429369638179 0
  endloop
endfacet
facet normal 0 0 -1
  outer loop
    vertex 0.0003552137612097726 0.002472580389182631 0
    vertex 0.0007539386825963289 0.002961946620803479 0
    vertex 0.0008971569370203839 0.002337429369638179 0
  endloop
endfacet
facet normal -0 0 -1
  outer loop
    vertex 0.001755018886170072 0.003598321964358715 0
    vertex 0.001314883292657519 0.003254450351433354 0
    vertex 0.001237149536980103 0.003807554762987647 0
  endloop
endfacet
facet normal -0 0 -1
  outer loop
    vertex 0.0006952004792895559 0.003942677839184375 0
    vertex 0.0003668988543541327 0.003490809418161951 0
    vertex 0.0001397201350484631 0.00400106117597095 0
  endloop
endfacet
facet normal 0 0 -1
  outer loop
    vertex 0.0006952004792895261 -0.00394267783918438 0
    vertex 0.0008491549915109369 -0.003405774649568966 0
    vertex 0.001237149536980074 -0.003807554762987656 0
  endloop
endfacet
facet normal 0 -0 -1
  outer loop
    vertex -0.002464800716466274 0.00315480105206451 0
    vertex -0.002304780833363763 0.002620029773230303 0
    vertex -0.002879876890655789 0.002781064786132596 0
  endloop
endfacet
facet normal -0 0 -1
  outer loop
    vertex 0.002723182949310126 -0.0006206885362931628 0
    vertex 0.002353056539814154 -0.001016717558631843 0
    vertex 0.002201601913498709 -0.0004808676816884693 0
  endloop
endfacet
facet normal 0 0 -1
  outer loop
    vertex -0.001893065433385619 0.001547784146512198 0
    vertex -0.002045949267384772 0.002084993193489213 0
    vertex -0.001504270668566651 0.001948789954076837 0
  endloop
endfacet
facet normal 0 0 -1
  outer loop
    vertex -0.001893065433385619 0.001547784146512198 0
    vertex -0.002436045881295896 0.001685392035174295 0
    vertex -0.002045949267384772 0.002084993193489213 0
  endloop
endfacet
facet normal 0 0 -1
  outer loop
    vertex 0.001439006622857461 0.002201906541655483 0
    vertex 0.001865367728469127 0.002562932796444241 0
    vertex 0.001995249881733219 0.002059116338403102 0
  endloop
endfacet
facet normal 0 0 -1
  outer loop
    vertex 0.001592916954361584 0.001668779691528671 0
    vertex 0.001995249881733219 0.002059116338403102 0
    vertex 0.002133400593000604 0.001527824108781036 0
  endloop
endfacet
facet normal 0 0 -1
  outer loop
    vertex -0.001504270668566651 0.001948789954076837 0
    vertex -0.002045949267384772 0.002084993193489213 0
    vertex -0.001697193778874505 0.002464500907449696 0
  endloop
endfacet
facet normal 0 0 -1
  outer loop
    vertex -0.002517771141511304 0.0002085636065430138 0
    vertex -0.003059449727842105 0.0003447667238248023 0
    vertex -0.002659622507787369 0.0007350760441951909 0
  endloop
endfacet
facet normal 0 0 -1
  outer loop
    vertex 0.001439006622857461 0.002201906541655483 0
    vertex 0.001995249881733219 0.002059116338403102 0
    vertex 0.001592916954361584 0.001668779691528671 0
  endloop
endfacet
facet normal 0 0 -1
  outer loop
    vertex -0.002915405614659705 -0.0001569264635373635 0
    vertex -0.003059449727842105 0.0003447667238248023 0
    vertex -0.002517771141511304 0.0002085636065430138 0
  endloop
endfacet
facet normal 0 0 -1
  outer loop
    vertex -0.002128976364194187 0.0006095692919749324 0
    vertex -0.002270191840122137 0.001135489038002524 0
    vertex -0.001740181599372455 0.001010575099538942 0
  endloop
endfacet
facet normal 0 0 -1
  outer loop
    vertex -0.001740181599372455 0.001010575099538942 0
    vertex -0.002270191840122137 0.001135489038002524 0
    vertex -0.001893065433385619 0.001547784146512198 0
  endloop
endfacet
facet normal 0 0 -1
  outer loop
    vertex 0.001745800834193703 0.001131570662089842 0
    vertex 0.00228669711168349 0.0009928782829844226 0
    vertex 0.001898684716894493 0.0005943616235783705 0
  endloop
endfacet
facet normal 0 0 -1
  outer loop
    vertex 0.001898684716894493 0.0005943616235783705 0
    vertex 0.00228669711168349 0.0009928782829844226 0
    vertex 0.002440363327058705 0.0004581584330946051 0
  endloop
endfacet
facet normal 0 0 -1
  outer loop
    vertex -0.002659622507787369 0.0007350760441951909 0
    vertex -0.002270191840122137 0.001135489038002524 0
    vertex -0.002128976364194187 0.0006095692919749324 0
  endloop
endfacet
facet normal 0 0 -1
  outer loop
    vertex 0.002440363327058705 0.0004581584330946051 0
    vertex 0.00228669711168349 0.0009928782829844226 0
    vertex 0.002825659022784957 0.0008489815634375693 0
  endloop
endfacet
facet normal 0 -0 -1
  outer loop
    vertex 0.002133400593000604 0.001527824108781036 0
    vertex 0.00228669711168349 0.0009928782829844226 0
    vertex 0.001745800834193703 0.001131570662089842 0
  endloop
endfacet
facet normal -0 0 -1
  outer loop
    vertex -0.001893065433385619 0.001547784146512198 0
    vertex -0.002270191840122137 0.001135489038002524 0
    vertex -0.002436045881295896 0.001685392035174295 0
  endloop
endfacet
facet normal 0 -0 -1
  outer loop
    vertex 0.0006624103706231604 0.001403844752570823 0
    vertex 0.0008153219574660957 0.0008667459868600652 0
    vertex 0.0002736489617646169 0.001002971190093153 0
  endloop
endfacet
facet normal 0 0 -1
  outer loop
    vertex 0.00228669711168349 0.0009928782829844226 0
    vertex 0.002685417517802474 0.001364773716703986 0
    vertex 0.002825659022784957 0.0008489815634375693 0
  endloop
endfacet
facet normal 0 0 -1
  outer loop
    vertex 0.002133400593000604 0.001527824108781036 0
    vertex 0.002685417517802474 0.001364773716703986 0
    vertex 0.00228669711168349 0.0009928782829844226 0
  endloop
endfacet
facet normal -0 0 -1
  outer loop
    vertex 0.00210680886986888 -0.001933076994674382 0
    vertex 0.001764227249032823 -0.002326319374289692 0
    vertex 0.001579896444352475 -0.001819177321606762 0
  endloop
endfacet
facet normal 0 0 -1
  outer loop
    vertex -0.00065682687269508 0.0007381734013014946 0
    vertex -0.0008097088424886346 0.001275378795207534 0
    vertex -0.0002680307176067342 0.001139176453727031 0
  endloop
endfacet
facet normal 0 0 -1
  outer loop
    vertex 0.001121094814120634 -0.0002076490613625291 0
    vertex 0.001662298609755987 -0.0003439880875964628 0
    vertex 0.001273978621711993 -0.0007448579284801032 0
  endloop
endfacet
facet normal 0 0 -1
  outer loop
    vertex 0.002201601913498709 -0.0004808676816884693 0
    vertex 0.001662298609755987 -0.0003439880875964628 0
    vertex 0.002051568594359296 5.715259843024236e-05 0
  endloop
endfacet
facet normal 0 -0 -1
  outer loop
    vertex -0.0009625920949134022 0.001812586703591457 0
    vertex -0.0008097088424886346 0.001275378795207534 0
    vertex -0.001351386834595155 0.001411580907091702 0
  endloop
endfacet
facet normal 0 0 -1
  outer loop
    vertex -0.00119850300054454 0.0008743718601287177 0
    vertex -0.0008097088424886346 0.001275378795207534 0
    vertex -0.00065682687269508 0.0007381734013014946 0
  endloop
endfacet
facet normal 0 -0 -1
  outer loop
    vertex 0.001509889965147378 0.0001933558321232121 0
    vertex 0.001662298609755987 -0.0003439880875964628 0
    vertex 0.001121094814120634 -0.0002076490613625291 0
  endloop
endfacet
facet normal 0 0 -1
  outer loop
    vertex -0.001351386834595155 0.001411580907091702 0
    vertex -0.0008097088424886346 0.001275378795207534 0
    vertex -0.00119850300054454 0.0008743718601287177 0
  endloop
endfacet
facet normal -0 0 -1
  outer loop
    vertex 0.002051568594359296 5.715259843024236e-05 0
    vertex 0.001662298609755987 -0.0003439880875964628 0
    vertex 0.001509889965147378 0.0001933558321232121 0
  endloop
endfacet
facet normal 0 0 -1
  outer loop
    vertex 0.002353056539814154 -0.001016717558631843 0
    vertex 0.0018144268833279 -0.0008811179327596929 0
    vertex 0.002201601913498709 -0.0004808676816884693 0
  endloop
endfacet
facet normal 0 -0 -1
  outer loop
    vertex 0.001967660010363229 -0.001418178755128024 0
    vertex 0.00210680886986888 -0.001933076994674382 0
    vertex 0.001579896444352475 -0.001819177321606762 0
  endloop
endfacet
facet normal -0 0 -1
  outer loop
    vertex 0.002201601913498709 -0.0004808676816884693 0
    vertex 0.0018144268833279 -0.0008811179327596929 0
    vertex 0.001662298609755987 -0.0003439880875964628 0
  endloop
endfacet
facet normal 0 -0 -1
  outer loop
    vertex 0.001662298609755987 -0.0003439880875964628 0
    vertex 0.0018144268833279 -0.0008811179327596929 0
    vertex 0.001273978621711993 -0.0007448579284801032 0
  endloop
endfacet
facet normal 0 0 -1
  outer loop
    vertex 0.001273978621711993 -0.0007448579284801032 0
    vertex 0.0018144268833279 -0.0008811179327596929 0
    vertex 0.001427083984472499 -0.001282005023806807 0
  endloop
endfacet
facet normal -0 0 -1
  outer loop
    vertex 0.001967660010363229 -0.001418178755128024 0
    vertex 0.001579896444352475 -0.001819177321606762 0
    vertex 0.001427083984472499 -0.001282005023806807 0
  endloop
endfacet
facet normal -0 0 -1
  outer loop
    vertex 0.002353056539814154 -0.001016717558631843 0
    vertex 0.001967660010363229 -0.001418178755128024 0
    vertex 0.0018144268833279 -0.0008811179327596929 0
  endloop
endfacet
facet normal 0 -0 -1
  outer loop
    vertex 0.0018144268833279 -0.0008811179327596929 0
    vertex 0.001967660010363229 -0.001418178755128024 0
    vertex 0.001427083984472499 -0.001282005023806807 0
  endloop
endfacet
facet normal 0 -0 -1
  outer loop
    vertex 0.002510006926491253 -0.001538723978193903 0
    vertex 0.002663104124899266 -0.002091683537398234 0
    vertex 0.00210680886986888 -0.001933076994674382 0
  endloop
endfacet
facet normal 0 0 -1
  outer loop
    vertex -0.00128153811629377 -0.0006010301514951808 0
    vertex -0.001434415181863787 -6.384178199395107e-05 0
    vertex -0.0008927660267496101 -0.0001999849837967026 0
  endloop
endfacet
facet normal 0 0 -1
  outer loop
    vertex 0.001967660010363229 -0.001418178755128024 0
    vertex 0.002510006926491253 -0.001538723978193903 0
    vertex 0.00210680886986888 -0.001933076994674382 0
  endloop
endfacet
facet normal 0 -0 -1
  outer loop
    vertex 0.002353056539814154 -0.001016717558631843 0
    vertex 0.002510006926491253 -0.001538723978193903 0
    vertex 0.001967660010363229 -0.001418178755128024 0
  endloop
endfacet
facet normal 0 0 -1
  outer loop
    vertex 3.772601194368218e-05 6.477911797885177e-05 0
    vertex 0.0004265327803859361 0.0004657621516088418 0
    vertex 0.0005794166466665414 -7.144686779671919e-05 0
  endloop
endfacet
facet normal 0 0 -1
  outer loop
    vertex 0.001204122224982333 0.001267773849029815 0
    vertex 0.0006624103706231604 0.001403844752570823 0
    vertex 0.001051238344909936 0.001804982887131621 0
  endloop
endfacet
facet normal 0 0 -1
  outer loop
    vertex -0.0001151496400999043 0.0006019727353367688 0
    vertex 0.0004265327803859361 0.0004657621516088418 0
    vertex 3.772601194368218e-05 6.477911797885177e-05 0
  endloop
endfacet
facet normal 0 -0 -1
  outer loop
    vertex 0.0002736489617646169 0.001002971190093153 0
    vertex 0.0004265327803859361 0.0004657621516088418 0
    vertex -0.0001151496400999043 0.0006019727353367688 0
  endloop
endfacet
facet normal 0 0 -1
  outer loop
    vertex 0.0005794166466665414 -7.144686779671919e-05 0
    vertex 0.0004265327803859361 0.0004657621516088418 0
    vertex 0.0009682113103083229 0.0003295591326993833 0
  endloop
endfacet
facet normal 0 0 -1
  outer loop
    vertex 0.001357006096732206 0.0007305648451583755 0
    vertex 0.0008153219574660957 0.0008667459868600652 0
    vertex 0.001204122224982333 0.001267773849029815 0
  endloop
endfacet
facet normal -0 0 -1
  outer loop
    vertex 0.001051238344909936 0.001804982887131621 0
    vertex 0.0006624103706231604 0.001403844752570823 0
    vertex 0.0005093601488267864 0.001940392330186257 0
  endloop
endfacet
facet normal 0 0 -1
  outer loop
    vertex 0.0002736489617646169 0.001002971190093153 0
    vertex 0.0008153219574660957 0.0008667459868600652 0
    vertex 0.0004265327803859361 0.0004657621516088418 0
  endloop
endfacet
facet normal 0 0 -1
  outer loop
    vertex 0.0004265327803859361 0.0004657621516088418 0
    vertex 0.0008153219574660957 0.0008667459868600652 0
    vertex 0.0009682113103083229 0.0003295591326993833 0
  endloop
endfacet
facet normal 0 0 -1
  outer loop
    vertex 0.0006624103706231604 0.001403844752570823 0
    vertex 0.0001207215924895605 0.001540008033330079 0
    vertex 0.0005093601488267864 0.001940392330186257 0
  endloop
endfacet
facet normal 0 0 -1
  outer loop
    vertex 0.0009682113103083229 0.0003295591326993833 0
    vertex 0.0008153219574660957 0.0008667459868600652 0
    vertex 0.001357006096732206 0.0007305648451583755 0
  endloop
endfacet
facet normal 0 0 -1
  outer loop
    vertex -0.0008097088424886346 0.001275378795207534 0
    vertex -0.0004209672079630064 0.001676171723956236 0
    vertex -0.0002680307176067342 0.001139176453727031 0
  endloop
endfacet
facet normal -0 0 -1
  outer loop
    vertex 0.0005093601488267864 0.001940392330186257 0
    vertex 0.0001207215924895605 0.001540008033330079 0
    vertex -3.239579324099447e-05 0.002076287872170491 0
  endloop
endfacet
facet normal 0 0 -1
  outer loop
    vertex -0.0009625920949134022 0.001812586703591457 0
    vertex -0.0004209672079630064 0.001676171723956236 0
    vertex -0.0008097088424886346 0.001275378795207534 0
  endloop
endfacet
facet normal 0 0 -1
  outer loop
    vertex -0.0002680307176067342 0.001139176453727031 0
    vertex -0.0004209672079630064 0.001676171723956236 0
    vertex 0.0001207215924895605 0.001540008033330079 0
  endloop
endfacet
facet normal 0 0 -1
  outer loop
    vertex -0.0009625920949134022 0.001812586703591457 0
    vertex -0.0005743672059663632 0.002211326572259848 0
    vertex -0.0004209672079630064 0.001676171723956236 0
  endloop
endfacet
facet normal 0 0 -1
  outer loop
    vertex -0.0004209672079630064 0.001676171723956236 0
    vertex -0.0005743672059663632 0.002211326572259848 0
    vertex -3.239579324099447e-05 0.002076287872170491 0
  endloop
endfacet
facet normal 0 0 -1
  outer loop
    vertex -0.001117045160375248 0.002343554906190297 0
    vertex -0.0005743672059663632 0.002211326572259848 0
    vertex -0.0009625920949134022 0.001812586703591457 0
  endloop
endfacet
facet normal 0 0 -1
  outer loop
    vertex -0.0001983986623083345 -0.0008730435503849768 0
    vertex 0.0003431743943934688 -0.001009182966294311 0
    vertex -4.623262614274793e-05 -0.001409043234954961 0
  endloop
endfacet
facet normal 0 0 -1
  outer loop
    vertex -3.239579324099447e-05 0.002076287872170491 0
    vertex -0.0005743672059663632 0.002211326572259848 0
    vertex -0.0001865217888807257 0.002608556909563967 0
  endloop
endfacet
facet normal 0 0 -1
  outer loop
    vertex 0.0001207215924895605 0.001540008033330079 0
    vertex -0.0004209672079630064 0.001676171723956236 0
    vertex -3.239579324099447e-05 0.002076287872170491 0
  endloop
endfacet
facet normal 0 0 -1
  outer loop
    vertex -0.0007048378066116268 0.002718845116423759 0
    vertex -0.0003634107513395395 0.00309932074126491 0
    vertex -0.0001865217888807257 0.002608556909563967 0
  endloop
endfacet
facet normal 0 0 -1
  outer loop
    vertex -0.001117045160375248 0.002343554906190297 0
    vertex -0.0007048378066116268 0.002718845116423759 0
    vertex -0.0005743672059663632 0.002211326572259848 0
  endloop
endfacet
facet normal 0 0 -1
  outer loop
    vertex -0.0005743672059663632 0.002211326572259848 0
    vertex -0.0007048378066116268 0.002718845116423759 0
    vertex -0.0001865217888807257 0.002608556909563967 0
  endloop
endfacet
facet normal -0 0 -1
  outer loop
    vertex -0.0005039515557386919 0.0002009809028140526 0
    vertex -0.0008927660267496101 -0.0001999849837967026 0
    vertex -0.001045621409649539 0.0003371674273844515 0
  endloop
endfacet
facet normal 0 0 -1
  outer loop
    vertex -0.0007399580029852804 -0.0007370416530508032 0
    vertex -0.0008927660267496101 -0.0001999849837967026 0
    vertex -0.0003511118939665919 -0.0003361446464387843 0
  endloop
endfacet
facet normal -0 0 -1
  outer loop
    vertex -0.001045621409649539 0.0003371674273844515 0
    vertex -0.001434415181863787 -6.384178199395107e-05 0
    vertex -0.001587297765367943 0.0004733660525619084 0
  endloop
endfacet
facet normal 0 0 -1
  outer loop
    vertex -0.00128153811629377 -0.0006010301514951808 0
    vertex -0.0008927660267496101 -0.0001999849837967026 0
    vertex -0.0007399580029852804 -0.0007370416530508032 0
  endloop
endfacet
facet normal 0 0 -1
  outer loop
    vertex -0.0003511118939665919 -0.0003361446464387843 0
    vertex -0.0008927660267496101 -0.0001999849837967026 0
    vertex -0.0005039515557386919 0.0002009809028140526 0
  endloop
endfacet
facet normal 0 -0 -1
  outer loop
    vertex -0.001976092605160417 7.236097778582769e-05 0
    vertex -0.00182321239523252 -0.0004648362768780614 0
    vertex -0.002364886838015453 -0.0003286440653617687 0
  endloop
endfacet
facet normal 0 -0 -1
  outer loop
    vertex -0.001587297765367943 0.0004733660525619084 0
    vertex -0.001434415181863787 -6.384178199395107e-05 0
    vertex -0.001976092605160417 7.236097778582769e-05 0
  endloop
endfacet
facet normal 0 -0 -1
  outer loop
    vertex -0.002364886838015453 -0.0003286440653617687 0
    vertex -0.002223554813929753 -0.0008658352109043563 0
    vertex -0.002823994030113236 -0.0007337203668150479 0
  endloop
endfacet
facet normal 0 0 -1
  outer loop
    vertex -0.001670340197821856 -0.001002012974657926 0
    vertex -0.00182321239523252 -0.0004648362768780614 0
    vertex -0.00128153811629377 -0.0006010301514951808 0
  endloop
endfacet
facet normal 0 0 -1
  outer loop
    vertex 0.000885184410257349 -0.001145864935480329 0
    vertex 0.0003431743943934688 -0.001009182966294311 0
    vertex 0.0007322978665107571 -0.0006086499114137699 0
  endloop
endfacet
facet normal 0 -0 -1
  outer loop
    vertex 0.0001906049087660379 -0.0004724208850023176 0
    vertex 0.0003431743943934688 -0.001009182966294311 0
    vertex -0.0001983986623083345 -0.0008730435503849768 0
  endloop
endfacet
facet normal 0 0 -1
  outer loop
    vertex -0.00128153811629377 -0.0006010301514951808 0
    vertex -0.00182321239523252 -0.0004648362768780614 0
    vertex -0.001434415181863787 -6.384178199395107e-05 0
  endloop
endfacet
facet normal -0 0 -1
  outer loop
    vertex -0.00182321239523252 -0.0004648362768780614 0
    vertex -0.002223554813929753 -0.0008658352109043563 0
    vertex -0.002364886838015453 -0.0003286440653617687 0
  endloop
endfacet
facet normal -0 0 -1
  outer loop
    vertex -0.001434415181863787 -6.384178199395107e-05 0
    vertex -0.00182321239523252 -0.0004648362768780614 0
    vertex -0.001976092605160417 7.236097778582769e-05 0
  endloop
endfacet
facet normal -0 0 -1
  outer loop
    vertex 0.0007322978665107571 -0.0006086499114137699 0
    vertex 0.0003431743943934688 -0.001009182966294311 0
    vertex 0.0001906049087660379 -0.0004724208850023176 0
  endloop
endfacet
facet normal 0 0 -1
  outer loop
    vertex -0.002058105836226779 -0.001398951177840723 0
    vertex -0.002223554813929753 -0.0008658352109043563 0
    vertex -0.001670340197821856 -0.001002012974657926 0
  endloop
endfacet
facet normal 0 0 -1
  outer loop
    vertex -0.001670340197821856 -0.001002012974657926 0
    vertex -0.002223554813929753 -0.0008658352109043563 0
    vertex -0.00182321239523252 -0.0004648362768780614 0
  endloop
endfacet
facet normal -0 0 -1
  outer loop
    vertex -0.002223554813929753 -0.0008658352109043563 0
    vertex -0.002584134115261003 -0.001254558094395137 0
    vertex -0.002823994030113236 -0.0007337203668150479 0
  endloop
endfacet
facet normal 0 0 -1
  outer loop
    vertex -0.002058105836226779 -0.001398951177840723 0
    vertex -0.002584134115261003 -0.001254558094395137 0
    vertex -0.002223554813929753 -0.0008658352109043563 0
  endloop
endfacet
facet normal -0 0 -1
  outer loop
    vertex -0.0009760642919331058 -0.001672814263785555 0
    vertex -0.001363641886945418 -0.00207716705116254 0
    vertex -0.001517490396808884 -0.001539132702495601 0
  endloop
endfacet
facet normal 0 0 -1
  outer loop
    vertex -0.0008223121837527445 -0.002201472103492027 0
    vertex -0.0009760642919331058 -0.001672814263785555 0
    vertex -0.0004356688463529666 -0.001808410173455978 0
  endloop
endfacet
facet normal 0 -0 -1
  outer loop
    vertex -0.001128723390483572 -0.001138033743548271 0
    vertex -0.0009760642919331058 -0.001672814263785555 0
    vertex -0.001517490396808884 -0.001539132702495601 0
  endloop
endfacet
facet normal 0 0 -1
  outer loop
    vertex -0.0004356688463529666 -0.001808410173455978 0
    vertex -0.0009760642919331058 -0.001672814263785555 0
    vertex -0.0005873792140613436 -0.00127360326099597 0
  endloop
endfacet
facet normal 0 0 -1
  outer loop
    vertex -0.0008223121837527445 -0.002201472103492027 0
    vertex -0.001363641886945418 -0.00207716705116254 0
    vertex -0.0009760642919331058 -0.001672814263785555 0
  endloop
endfacet
facet normal 0 0 -1
  outer loop
    vertex 0.001764227249032823 -0.002326319374289692 0
    vertex 0.001173009651210666 -0.002295265514918844 0
    vertex 0.001579896444352475 -0.001819177321606762 0
  endloop
endfacet
facet normal -0 0 -1
  outer loop
    vertex -0.001363641886945418 -0.00207716705116254 0
    vertex -0.001705997866914225 -0.002526934896097683 0
    vertex -0.001897903366816066 -0.001961401878144711 0
  endloop
endfacet
facet normal -0 0 -1
  outer loop
    vertex -0.0005873792140613436 -0.00127360326099597 0
    vertex -0.0009760642919331058 -0.001672814263785555 0
    vertex -0.001128723390483572 -0.001138033743548271 0
  endloop
endfacet
facet normal 0 -0 -1
  outer loop
    vertex -0.001517490396808884 -0.001539132702495601 0
    vertex -0.001363641886945418 -0.00207716705116254 0
    vertex -0.001897903366816066 -0.001961401878144711 0
  endloop
endfacet
facet normal 0 0 -1
  outer loop
    vertex 0.0001043198580691104 -0.001942191779228391 0
    vertex 0.0004928271775903386 -0.001542170447861516 0
    vertex 0.0006311224377238055 -0.002064043252770866 0
  endloop
endfacet
facet normal 0 -0 -1
  outer loop
    vertex -0.001363641886945418 -0.00207716705116254 0
    vertex -0.001211932020097631 -0.002613028811200339 0
    vertex -0.001705997866914225 -0.002526934896097683 0
  endloop
endfacet
facet normal -0 0 -1
  outer loop
    vertex 0.000885184410257349 -0.001145864935480329 0
    vertex 0.0004928271775903386 -0.001542170447861516 0
    vertex 0.0003431743943934688 -0.001009182966294311 0
  endloop
endfacet
facet normal 0 0 -1
  outer loop
    vertex -4.623262614274793e-05 -0.001409043234954961 0
    vertex 0.0004928271775903386 -0.001542170447861516 0
    vertex 0.0001043198580691104 -0.001942191779228391 0
  endloop
endfacet
facet normal -0 0 -1
  outer loop
    vertex -0.0008223121837527445 -0.002201472103492027 0
    vertex -0.001211932020097631 -0.002613028811200339 0
    vertex -0.001363641886945418 -0.00207716705116254 0
  endloop
endfacet
facet normal -0 0 -1
  outer loop
    vertex 0.001427083984472499 -0.001282005023806807 0
    vertex 0.001031520684267855 -0.001691421082740854 0
    vertex 0.000885184410257349 -0.001145864935480329 0
  endloop
endfacet
facet normal 0 0 -1
  outer loop
    vertex 0.0006311224377238055 -0.002064043252770866 0
    vertex 0.001031520684267855 -0.001691421082740854 0
    vertex 0.001173009651210666 -0.002295265514918844 0
  endloop
endfacet
facet normal 0 0 -1
  outer loop
    vertex 0.001173009651210666 -0.002295265514918844 0
    vertex 0.001031520684267855 -0.001691421082740854 0
    vertex 0.001579896444352475 -0.001819177321606762 0
  endloop
endfacet
facet normal 0 -0 -1
  outer loop
    vertex 0.0003431743943934688 -0.001009182966294311 0
    vertex 0.0004928271775903386 -0.001542170447861516 0
    vertex -4.623262614274793e-05 -0.001409043234954961 0
  endloop
endfacet
facet normal 0 0 -1
  outer loop
    vertex 0.001579896444352475 -0.001819177321606762 0
    vertex 0.001031520684267855 -0.001691421082740854 0
    vertex 0.001427083984472499 -0.001282005023806807 0
  endloop
endfacet
facet normal 0 -0 -1
  outer loop
    vertex -0.002001750000000001 0.003467132704051 0
    vertex -0.001933341629792483 0.0029400776430899 0
    vertex -0.002464800716466274 0.00315480105206451 0
  endloop
endfacet
facet normal 0 0 -1
  outer loop
    vertex -0.002464800716466274 0.00315480105206451 0
    vertex -0.001933341629792483 0.0029400776430899 0
    vertex -0.002304780833363763 0.002620029773230303 0
  endloop
endfacet
facet normal 0 0 -1
  outer loop
    vertex 0.002353056539814154 -0.001016717558631843 0
    vertex 0.002886367962757054 -0.001132311110026693 0
    vertex 0.002510006926491253 -0.001538723978193903 0
  endloop
endfacet
facet normal 0 0 -1
  outer loop
    vertex -0.003059449727842105 0.0003447667238248023 0
    vertex -0.003254277149278895 0.0009071699421820096 0
    vertex -0.002659622507787369 0.0007350760441951909 0
  endloop
endfacet
facet normal 0 -0 -1
  outer loop
    vertex -0.002929589775041917 0.001824617158586397 0
    vertex -0.002771256937107072 0.001240606947707605 0
    vertex -0.003214171755129877 0.001429873237721059 0
  endloop
endfacet
facet normal 0 0 -1
  outer loop
    vertex -0.001897903366816066 -0.001961401878144711 0
    vertex -0.002414965141329177 -0.001836647791740197 0
    vertex -0.002058105836226779 -0.001398951177840723 0
  endloop
endfacet
facet normal 0 0 -1
  outer loop
    vertex 0.0007539386825963289 0.002961946620803479 0
    vertex 0.001303616090398193 0.002725313692195817 0
    vertex 0.0008971569370203839 0.002337429369638179 0
  endloop
endfacet
facet normal 0 0 -1
  outer loop
    vertex 0.001439006622857461 0.002201906541655483 0
    vertex 0.001303616090398193 0.002725313692195817 0
    vertex 0.001865367728469127 0.002562932796444241 0
  endloop
endfacet
facet normal 0 0 -1
  outer loop
    vertex 0.003066858928026819 -0.002573400195380072 0
    vertex 0.002550581822269206 -0.002542481132377449 0
    vertex 0.002663104124899266 -0.002091683537398234 0
  endloop
endfacet
facet normal 0 0 -1
  outer loop
    vertex 0.002723182949310126 -0.0006206885362931628 0
    vertex 0.003323098515904066 -0.0007408710858948527 0
    vertex 0.002886367962757054 -0.001132311110026693 0
  endloop
endfacet
facet normal 0 0 -1
  outer loop
    vertex 0.0004521634493171525 -0.003025148531130643 0
    vertex 0.001006173057376747 -0.002868892947612454 0
    vertex 0.0008491549915109369 -0.003405774649568966 0
  endloop
endfacet
facet normal 0 0 -1
  outer loop
    vertex 0.001995249881733219 0.002059116338403102 0
    vertex 0.002534492277244362 0.001886231249932848 0
    vertex 0.002133400593000604 0.001527824108781036 0
  endloop
endfacet
facet normal 0 0 -1
  outer loop
    vertex 0.002534492277244362 0.001886231249932848 0
    vertex 0.00292766978229107 0.002127076604790658 0
    vertex 0.003096294385654366 0.001700553475514921 0
  endloop
endfacet
facet normal 0 0 -1
  outer loop
    vertex 0.0003552137612097726 0.002472580389182631 0
    vertex 0.0001642915958672966 0.003012362312484364 0
    vertex 0.0007539386825963289 0.002961946620803479 0
  endloop
endfacet
facet normal 0 0 -1
  outer loop
    vertex -0.0003634107513395395 0.00309932074126491 0
    vertex 0.0001642915958672966 0.003012362312484364 0
    vertex -0.0001865217888807257 0.002608556909563967 0
  endloop
endfacet
facet normal 0 -0 -1
  outer loop
    vertex 0.002723182949310126 -0.0006206885362931628 0
    vertex 0.002886367962757054 -0.001132311110026693 0
    vertex 0.002353056539814154 -0.001016717558631843 0
  endloop
endfacet
facet normal 0 0 -1
  outer loop
    vertex 0.001237149536980074 -0.003807554762987656 0
    vertex 0.001354736785002037 -0.003258367598691924 0
    vertex 0.001755018886170046 -0.003598321964358728 0
  endloop
endfacet
facet normal 0 0 -1
  outer loop
    vertex 0.0008491549915109369 -0.003405774649568966 0
    vertex 0.001354736785002037 -0.003258367598691924 0
    vertex 0.001237149536980074 -0.003807554762987656 0
  endloop
endfacet
facet normal -0 0 -1
  outer loop
    vertex -0.002688167729261217 0.002262722965027281 0
    vertex -0.002929589775041917 0.001824617158586397 0
    vertex -0.003238899536980101 0.002353198257552918 0
  endloop
endfacet
facet normal 0 0 -1
  outer loop
    vertex -0.0006118794324177571 -0.003177574175658853 0
    vertex -0.0006587854579877222 -0.002700340490311711 0
    vertex -0.0001597379785029721 -0.00287417714992338 0
  endloop
endfacet
facet normal 0 0 -1
  outer loop
    vertex -0.001117045160375248 0.002343554906190297 0
    vertex -0.001268842279803557 0.002880291752147631 0
    vertex -0.0007048378066116268 0.002718845116423759 0
  endloop
endfacet
facet normal 0 0 -1
  outer loop
    vertex -0.002414965141329177 -0.001836647791740197 0
    vertex -0.002983282071741862 -0.001666503041923252 0
    vertex -0.002584134115261003 -0.001254558094395137 0
  endloop
endfacet
facet normal 0 0 -1
  outer loop
    vertex -0.001268842279803557 0.002880291752147631 0
    vertex -0.0008140253186064636 0.003123883950310604 0
    vertex -0.0007048378066116268 0.002718845116423759 0
  endloop
endfacet
facet normal 0 -0 -1
  outer loop
    vertex -0.0008223121837527445 -0.002201472103492027 0
    vertex -0.0006587854579877222 -0.002700340490311711 0
    vertex -0.001211932020097631 -0.002613028811200339 0
  endloop
endfacet
facet normal 0 0 -1
  outer loop
    vertex -0.0001597379785029721 -0.00287417714992338 0
    vertex -0.0006587854579877222 -0.002700340490311711 0
    vertex -0.0002869753546189375 -0.002335625943469935 0
  endloop
endfacet
facet normal -0 0 -1
  outer loop
    vertex -0.002058105836226779 -0.001398951177840723 0
    vertex -0.002414965141329177 -0.001836647791740197 0
    vertex -0.002584134115261003 -0.001254558094395137 0
  endloop
endfacet
facet normal 0 0 -1
  outer loop
    vertex 0.0008971569370203839 0.002337429369638179 0
    vertex 0.001303616090398193 0.002725313692195817 0
    vertex 0.001439006622857461 0.002201906541655483 0
  endloop
endfacet
facet normal 0 0 -1
  outer loop
    vertex 0.00324119322977523 0.001227918396364537 0
    vertex 0.003096294385654366 0.001700553475514921 0
    vertex 0.003657379239672153 0.001628370150553965 0
  endloop
endfacet
facet normal 0 0 -1
  outer loop
    vertex 0.003657379239672153 0.001628370150553965 0
    vertex 0.003096294385654366 0.001700553475514921 0
    vertex 0.003395160552962252 0.002121531774357635 0
  endloop
endfacet
facet normal 0 0 -1
  outer loop
    vertex 0.002133400593000604 0.001527824108781036 0
    vertex 0.002534492277244362 0.001886231249932848 0
    vertex 0.002685417517802474 0.001364773716703986 0
  endloop
endfacet
facet normal 0 0 -1
  outer loop
    vertex -0.0001865217888807257 0.002608556909563967 0
    vertex 0.0001642915958672966 0.003012362312484364 0
    vertex 0.0003552137612097726 0.002472580389182631 0
  endloop
endfacet
facet normal 0 0 -1
  outer loop
    vertex 0.002982041938447326 0.0003219552398066218 0
    vertex 0.003389751997418762 0.0007063769094153381 0
    vertex 0.003476668380609123 0.0001787125931763236 0
  endloop
endfacet
facet normal 0 -0 -1
  outer loop
    vertex 0.00324119322977523 0.001227918396364537 0
    vertex 0.003389751997418762 0.0007063769094153381 0
    vertex 0.002825659022784957 0.0008489815634375693 0
  endloop
endfacet
facet normal 0 -0 -1
  outer loop
    vertex -0.001110742037250959 0.003395711153707117 0
    vertex -0.0008140253186064636 0.003123883950310604 0
    vertex -0.001268842279803557 0.002880291752147631 0
  endloop
endfacet
facet normal 0 0 -1
  outer loop
    vertex -0.002270191840122137 0.001135489038002524 0
    vertex -0.002771256937107072 0.001240606947707605 0
    vertex -0.002436045881295896 0.001685392035174295 0
  endloop
endfacet
facet normal 0 0 -1
  outer loop
    vertex -0.00200175000000003 -0.003467132704050983 0
    vertex -0.001986661702201354 -0.002946013517045677 0
    vertex -0.001508859271422184 -0.003084097197541948 0
  endloop
endfacet
facet normal 0 0 -1
  outer loop
    vertex -0.002464800716466297 -0.003154801052064493 0
    vertex -0.001986661702201354 -0.002946013517045677 0
    vertex -0.00200175000000003 -0.003467132704050983 0
  endloop
endfacet
facet normal 0 0 -1
  outer loop
    vertex -0.001697193778874505 0.002464500907449696 0
    vertex -0.001268842279803557 0.002880291752147631 0
    vertex -0.001117045160375248 0.002343554906190297 0
  endloop
endfacet
facet normal 0 -0 -1
  outer loop
    vertex -0.003214171755129877 0.001429873237721059 0
    vertex -0.002771256937107072 0.001240606947707605 0
    vertex -0.003254277149278895 0.0009071699421820096 0
  endloop
endfacet
facet normal 0 0 -1
  outer loop
    vertex -0.003254277149278895 0.0009071699421820096 0
    vertex -0.002771256937107072 0.001240606947707605 0
    vertex -0.002659622507787369 0.0007350760441951909 0
  endloop
endfacet
facet normal 0 -0 -1
  outer loop
    vertex 0.002982041938447326 0.0003219552398066218 0
    vertex 0.003084487070021896 -0.0002128604005173806 0
    vertex 0.002576143818214801 -8.391804002355327e-05 0
  endloop
endfacet
facet normal 0 -0 -1
  outer loop
    vertex 0.001006173057376747 -0.002868892947612454 0
    vertex 0.001354736785002037 -0.003258367598691924 0
    vertex 0.0008491549915109369 -0.003405774649568966 0
  endloop
endfacet
facet normal 0 0 -1
  outer loop
    vertex 0.003323098515904066 -0.0007408710858948527 0
    vertex 0.003084487070021896 -0.0002128604005173806 0
    vertex 0.003551022632969761 -0.0002565172971278247 0
  endloop
endfacet
facet normal 0 0 -1
  outer loop
    vertex 0.002723182949310126 -0.0006206885362931628 0
    vertex 0.003084487070021896 -0.0002128604005173806 0
    vertex 0.003323098515904066 -0.0007408710858948527 0
  endloop
endfacet
facet normal 0 0 -1
  outer loop
    vertex 0.000246412560146964 -0.00246733733578751 0
    vertex 0.0007098333685870656 -0.0025257415118231 0
    vertex 0.0004521634493171525 -0.003025148531130643 0
  endloop
endfacet
facet normal -0 0 -1
  outer loop
    vertex 0.001173009651210666 -0.002295265514918844 0
    vertex 0.0007098333685870656 -0.0025257415118231 0
    vertex 0.0006311224377238055 -0.002064043252770866 0
  endloop
endfacet
facet normal 0 0 -1
  outer loop
    vertex 0.002825659022784957 0.0008489815634375693 0
    vertex 0.003389751997418762 0.0007063769094153381 0
    vertex 0.002982041938447326 0.0003219552398066218 0
  endloop
endfacet
facet normal -0 0 -1
  outer loop
    vertex -0.0002869753546189375 -0.002335625943469935 0
    vertex -0.0006587854579877222 -0.002700340490311711 0
    vertex -0.0008223121837527445 -0.002201472103492027 0
  endloop
endfacet
facet normal 0 0 -1
  outer loop
    vertex 0.0004053820280125328 -0.003568803102387419 0
    vertex 0.0004521634493171525 -0.003025148531130643 0
    vertex 0.0008491549915109369 -0.003405774649568966 0
  endloop
endfacet
facet normal 0 0 -1
  outer loop
    vertex -0.002983282071741862 -0.001666503041923252 0
    vertex -0.00301823040937476 -0.001203077693343276 0
    vertex -0.002584134115261003 -0.001254558094395137 0
  endloop
endfacet
facet normal 0 0 -1
  outer loop
    vertex -0.003534880688010725 -0.001879529401613292 0
    vertex -0.003325676967910447 -0.001393109433197331 0
    vertex -0.002983282071741862 -0.001666503041923252 0
  endloop
endfacet
facet normal 0 0 -1
  outer loop
    vertex -0.003469931853528669 3.094521463942613e-05 0
    vertex -0.003538879498439012 0.0004851854190400649 0
    vertex -0.003059449727842105 0.0003447667238248023 0
  endloop
endfacet
facet normal 0 0 -1
  outer loop
    vertex 0.0004521634493171525 -0.003025148531130643 0
    vertex 0.0007098333685870656 -0.0025257415118231 0
    vertex 0.001006173057376747 -0.002868892947612454 0
  endloop
endfacet
facet normal 0 -0 -1
  outer loop
    vertex -0.003916013919537789 0.0008323744541889099 0
    vertex -0.003538879498439012 0.0004851854190400649 0
    vertex -0.003993747675215206 0.000279270042634619 0
  endloop
endfacet
facet normal 0 0 -1
  outer loop
    vertex -0.003993747675215206 0.000279270042634619 0
    vertex -0.003538879498439012 0.0004851854190400649 0
    vertex -0.003469931853528669 3.094521463942613e-05 0
  endloop
endfacet
facet normal 0 0 -1
  outer loop
    vertex 0.0001397201350484248 -0.004001061175970952 0
    vertex 0.0004053820280125328 -0.003568803102387419 0
    vertex 0.0006952004792895261 -0.00394267783918438 0
  endloop
endfacet
facet normal 0 -0 -1
  outer loop
    vertex -0.002879876890655789 0.002781064786132596 0
    vertex -0.002688167729261217 0.002262722965027281 0
    vertex -0.003238899536980101 0.002353198257552918 0
  endloop
endfacet
facet normal 0 0 -1
  outer loop
    vertex -0.0001193593207075113 -0.003471598593052277 0
    vertex 0.0004053820280125328 -0.003568803102387419 0
    vertex 0.0001397201350484248 -0.004001061175970952 0
  endloop
endfacet
facet normal -0 0 -1
  outer loop
    vertex -0.002304780833363763 0.002620029773230303 0
    vertex -0.002688167729261217 0.002262722965027281 0
    vertex -0.002879876890655789 0.002781064786132596 0
  endloop
endfacet
facet normal 0 0 -1
  outer loop
    vertex 0.0006952004792895261 -0.00394267783918438 0
    vertex 0.0004053820280125328 -0.003568803102387419 0
    vertex 0.0008491549915109369 -0.003405774649568966 0
  endloop
endfacet
facet normal -0 0 -1
  outer loop
    vertex 0.001237149536980103 0.003807554762987647 0
    vertex 0.0008736141691755277 0.003491487798514161 0
    vertex 0.0006952004792895559 0.003942677839184375 0
  endloop
endfacet
facet normal 0 0 -1
  outer loop
    vertex 0.001314883292657519 0.003254450351433354 0
    vertex 0.0008736141691755277 0.003491487798514161 0
    vertex 0.001237149536980103 0.003807554762987647 0
  endloop
endfacet
facet normal 0 -0 -1
  outer loop
    vertex 0.0006952004792895559 0.003942677839184375 0
    vertex 0.0008736141691755277 0.003491487798514161 0
    vertex 0.0003668988543541327 0.003490809418161951 0
  endloop
endfacet
facet normal 0 0 -1
  outer loop
    vertex -0.001499737496740638 -0.00371198056175812 0
    vertex -0.001106192093373783 -0.003404509194729813 0
    vertex -0.000968534309033308 -0.003884578940145943 0
  endloop
endfacet
facet normal 0 0 -1
  outer loop
    vertex 0.0040035 0 0
    vertex 0.003476668380609123 0.0001787125931763236 0
    vertex 0.003964538213206877 0.0005571795096936217 0
  endloop
endfacet
facet normal 0 0 -1
  outer loop
    vertex -0.001508859271422184 -0.003084097197541948 0
    vertex -0.001106192093373783 -0.003404509194729813 0
    vertex -0.001499737496740638 -0.00371198056175812 0
  endloop
endfacet
facet normal 0 0 -1
  outer loop
    vertex 0.003551022632969761 -0.0002565172971278247 0
    vertex 0.003476668380609123 0.0001787125931763236 0
    vertex 0.0040035 0 0
  endloop
endfacet
facet normal -0 0 -1
  outer loop
    vertex 0.002238728789045136 0.003319051921724109 0
    vertex 0.001786686276225469 0.003083981832058946 0
    vertex 0.001755018886170072 0.003598321964358715 0
  endloop
endfacet
facet normal 0 0 -1
  outer loop
    vertex -0.003059449727842105 0.0003447667238248023 0
    vertex -0.003538879498439012 0.0004851854190400649 0
    vertex -0.003254277149278895 0.0009071699421820096 0
  endloop
endfacet
facet normal 0 -0 -1
  outer loop
    vertex 0.001755018886170072 0.003598321964358715 0
    vertex 0.001786686276225469 0.003083981832058946 0
    vertex 0.001314883292657519 0.003254450351433354 0
  endloop
endfacet
facet normal 0 0 -1
  outer loop
    vertex 0.0003668988543541327 0.003490809418161951 0
    vertex -0.0001234098545635106 0.003541290753327753 0
    vertex 0.0001397201350484631 0.00400106117597095 0
  endloop
endfacet
facet normal 0 -0 -1
  outer loop
    vertex -0.0009685343090332691 0.003884578940145952 0
    vertex -0.000622293718026635 0.003525250988009603 0
    vertex -0.001110742037250959 0.003395711153707117 0
  endloop
endfacet
facet normal -0 0 -1
  outer loop
    vertex -0.0001193593207075113 -0.003471598593052277 0
    vertex -0.0006424404549815437 -0.003606021465267093 0
    vertex -0.0006118794324177571 -0.003177574175658853 0
  endloop
endfacet
facet normal 0 0 -1
  outer loop
    vertex 0.003657379239672149 -0.001628370150553976 0
    vertex 0.003359161148489526 -0.001246825500466535 0
    vertex 0.003848411199689057 -0.001103514154013366 0
  endloop
endfacet
facet normal 0 0 -1
  outer loop
    vertex 0.003080548824425305 -0.00162906100184379 0
    vertex 0.003359161148489526 -0.001246825500466535 0
    vertex 0.003657379239672149 -0.001628370150553976 0
  endloop
endfacet
facet normal 0 0 -1
  outer loop
    vertex 0.002461126854568363 0.002444125128001458 0
    vertex 0.002227734939229407 0.002851370694210839 0
    vertex 0.00267886438255769 0.002975180308798747 0
  endloop
endfacet
facet normal 0 0 -1
  outer loop
    vertex -0.001499737496740604 0.003711980561758134 0
    vertex -0.001562882688717521 0.003279038762950756 0
    vertex -0.002001750000000001 0.003467132704051 0
  endloop
endfacet
facet normal 0 0 -1
  outer loop
    vertex 0.003066858928026829 0.002573400195380059 0
    vertex 0.00292766978229107 0.002127076604790658 0
    vertex 0.002461126854568363 0.002444125128001458 0
  endloop
endfacet
facet normal 0 0 -1
  outer loop
    vertex 0.0001397201350484631 0.00400106117597095 0
    vertex -0.0001234098545635106 0.003541290753327753 0
    vertex -0.0004184797026920501 0.003981568408106883 0
  endloop
endfacet
facet normal 0 0 -1
  outer loop
    vertex 0.002238728789045115 -0.003319051921724123 0
    vertex 0.001800203751092514 -0.003144905883757594 0
    vertex 0.002115543884584829 -0.00277459514281447 0
  endloop
endfacet
facet normal 0 0 -1
  outer loop
    vertex -0.002659622507787369 0.0007350760441951909 0
    vertex -0.002771256937107072 0.001240606947707605 0
    vertex -0.002270191840122137 0.001135489038002524 0
  endloop
endfacet
facet normal 0 0 -1
  outer loop
    vertex -0.001508859271422184 -0.003084097197541948 0
    vertex -0.001019529655059815 -0.002995909973888533 0
    vertex -0.001106192093373783 -0.003404509194729813 0
  endloop
endfacet
facet normal -0 0 -1
  outer loop
    vertex 0.002663104124899266 -0.002091683537398234 0
    vertex 0.002240053190131001 -0.002333631236310845 0
    vertex 0.00210680886986888 -0.001933076994674382 0
  endloop
endfacet
facet normal 0 0 -1
  outer loop
    vertex 0.002678864382557677 -0.002975180308798759 0
    vertex 0.002550581822269206 -0.002542481132377449 0
    vertex 0.003066858928026819 -0.002573400195380072 0
  endloop
endfacet
facet normal 0 0 -1
  outer loop
    vertex 0.001764227249032823 -0.002326319374289692 0
    vertex 0.002240053190131001 -0.002333631236310845 0
    vertex 0.002115543884584829 -0.00277459514281447 0
  endloop
endfacet
facet normal 0 0 -1
  outer loop
    vertex -0.003325676967910447 -0.001393109433197331 0
    vertex -0.00301823040937476 -0.001203077693343276 0
    vertex -0.002983282071741862 -0.001666503041923252 0
  endloop
endfacet
facet normal 0 0 -1
  outer loop
    vertex -0.0004184797026920501 0.003981568408106883 0
    vertex -0.000622293718026635 0.003525250988009603 0
    vertex -0.0009685343090332691 0.003884578940145952 0
  endloop
endfacet
facet normal 0 -0 -1
  outer loop
    vertex 0.003323098515904066 -0.0007408710858948527 0
    vertex 0.003359161148489526 -0.001246825500466535 0
    vertex 0.002886367962757054 -0.001132311110026693 0
  endloop
endfacet
facet normal 0 0 -1
  outer loop
    vertex -0.003762059407316391 -0.001369277643804295 0
    vertex -0.003325676967910447 -0.001393109433197331 0
    vertex -0.003534880688010725 -0.001879529401613292 0
  endloop
endfacet
facet normal -0 0 -1
  outer loop
    vertex -0.001110742037250959 0.003395711153707117 0
    vertex -0.001562882688717521 0.003279038762950756 0
    vertex -0.001499737496740604 0.003711980561758134 0
  endloop
endfacet
facet normal 0 0 -1
  outer loop
    vertex 0.002886367962757054 -0.001132311110026693 0
    vertex 0.003359161148489526 -0.001246825500466535 0
    vertex 0.003080548824425305 -0.00162906100184379 0
  endloop
endfacet
facet normal 0 0 -1
  outer loop
    vertex -0.0004184797026920891 -0.003981568408106879 0
    vertex -0.0006424404549815437 -0.003606021465267093 0
    vertex -0.0001193593207075113 -0.003471598593052277 0
  endloop
endfacet
facet normal 0 0 -1
  outer loop
    vertex 0.001755018886170046 -0.003598321964358728 0
    vertex 0.001800203751092514 -0.003144905883757594 0
    vertex 0.002238728789045115 -0.003319051921724123 0
  endloop
endfacet
facet normal 0 0 -1
  outer loop
    vertex 0.002576143818214801 -8.391804002355327e-05 0
    vertex 0.003084487070021896 -0.0002128604005173806 0
    vertex 0.002723182949310126 -0.0006206885362931628 0
  endloop
endfacet
facet normal 0 0 -1
  outer loop
    vertex 0.002461126854568363 0.002444125128001458 0
    vertex 0.00292766978229107 0.002127076604790658 0
    vertex 0.002534492277244362 0.001886231249932848 0
  endloop
endfacet
facet normal 0 0 -1
  outer loop
    vertex 0.001006173057376747 -0.002868892947612454 0
    vertex 0.001536990410660544 -0.002774192791198726 0
    vertex 0.001354736785002037 -0.003258367598691924 0
  endloop
endfacet
facet normal -0 0 -1
  outer loop
    vertex 0.00267886438255769 0.002975180308798747 0
    vertex 0.002227734939229407 0.002851370694210839 0
    vertex 0.002238728789045136 0.003319051921724109 0
  endloop
endfacet
facet normal 0 0 -1
  outer loop
    vertex 0.003395160552962252 0.002121531774357635 0
    vertex 0.00292766978229107 0.002127076604790658 0
    vertex 0.003066858928026829 0.002573400195380059 0
  endloop
endfacet
facet normal 0 0 -1
  outer loop
    vertex -0.002001750000000001 0.003467132704051 0
    vertex -0.001562882688717521 0.003279038762950756 0
    vertex -0.001933341629792483 0.0029400776430899 0
  endloop
endfacet
facet normal 0 0 -1
  outer loop
    vertex -0.001986661702201354 -0.002946013517045677 0
    vertex -0.002263107515424893 -0.002495931188810299 0
    vertex -0.001705997866914225 -0.002526934896097683 0
  endloop
endfacet
facet normal 0 0 -1
  outer loop
    vertex 0.002115543884584829 -0.00277459514281447 0
    vertex 0.002550581822269206 -0.002542481132377449 0
    vertex 0.002678864382557677 -0.002975180308798759 0
  endloop
endfacet
facet normal 0 0 -1
  outer loop
    vertex -0.001268842279803557 0.002880291752147631 0
    vertex -0.001562882688717521 0.003279038762950756 0
    vertex -0.001110742037250959 0.003395711153707117 0
  endloop
endfacet
facet normal 0 -0 -1
  outer loop
    vertex 0.0006311224377238055 -0.002064043252770866 0
    vertex 0.0007098333685870656 -0.0025257415118231 0
    vertex 0.000246412560146964 -0.00246733733578751 0
  endloop
endfacet
facet normal 0 0 -1
  outer loop
    vertex 0.001354736785002037 -0.003258367598691924 0
    vertex 0.001800203751092514 -0.003144905883757594 0
    vertex 0.001755018886170046 -0.003598321964358728 0
  endloop
endfacet
facet normal 0 0 -1
  outer loop
    vertex -0.0006118794324177571 -0.003177574175658853 0
    vertex -0.0006424404549815437 -0.003606021465267093 0
    vertex -0.001106192093373783 -0.003404509194729813 0
  endloop
endfacet
facet normal -0 0 -1
  outer loop
    vertex -0.0006587854579877222 -0.002700340490311711 0
    vertex -0.001019529655059815 -0.002995909973888533 0
    vertex -0.001211932020097631 -0.002613028811200339 0
  endloop
endfacet
facet normal 0 0 -1
  outer loop
    vertex 0.002238728789045136 0.003319051921724109 0
    vertex 0.002227734939229407 0.002851370694210839 0
    vertex 0.001786686276225469 0.003083981832058946 0
  endloop
endfacet
facet normal 0 0 -1
  outer loop
    vertex -0.0003634107513395395 0.00309932074126491 0
    vertex -0.000622293718026635 0.003525250988009603 0
    vertex -0.0001234098545635106 0.003541290753327753 0
  endloop
endfacet
facet normal -0 0 -1
  outer loop
    vertex -0.0001234098545635106 0.003541290753327753 0
    vertex -0.000622293718026635 0.003525250988009603 0
    vertex -0.0004184797026920501 0.003981568408106883 0
  endloop
endfacet
facet normal 0 -0 -1
  outer loop
    vertex -0.003374064861847253 -0.0009674975303856102 0
    vertex -0.003325676967910447 -0.001393109433197331 0
    vertex -0.003762059407316391 -0.001369277643804295 0
  endloop
endfacet
facet normal 0 0 -1
  outer loop
    vertex 0.001786686276225469 0.003083981832058946 0
    vertex 0.002227734939229407 0.002851370694210839 0
    vertex 0.001865367728469127 0.002562932796444241 0
  endloop
endfacet
facet normal 0 -0 -1
  outer loop
    vertex 0.00210680886986888 -0.001933076994674382 0
    vertex 0.002240053190131001 -0.002333631236310845 0
    vertex 0.001764227249032823 -0.002326319374289692 0
  endloop
endfacet
facet normal 0 0 -1
  outer loop
    vertex 0.003096294385654366 0.001700553475514921 0
    vertex 0.00292766978229107 0.002127076604790658 0
    vertex 0.003395160552962252 0.002121531774357635 0
  endloop
endfacet
facet normal 0 0 -1
  outer loop
    vertex -0.000968534309033308 -0.003884578940145943 0
    vertex -0.0006424404549815437 -0.003606021465267093 0
    vertex -0.0004184797026920891 -0.003981568408106879 0
  endloop
endfacet
facet normal 0 0 -1
  outer loop
    vertex -0.002584134115261003 -0.001254558094395137 0
    vertex -0.00301823040937476 -0.001203077693343276 0
    vertex -0.002823994030113236 -0.0007337203668150479 0
  endloop
endfacet
facet normal 0 0 -1
  outer loop
    vertex -0.0007048378066116268 0.002718845116423759 0
    vertex -0.0008140253186064636 0.003123883950310604 0
    vertex -0.0003634107513395395 0.00309932074126491 0
  endloop
endfacet
facet normal 0 0 -1
  outer loop
    vertex 0.002550581822269206 -0.002542481132377449 0
    vertex 0.002240053190131001 -0.002333631236310845 0
    vertex 0.002663104124899266 -0.002091683537398234 0
  endloop
endfacet
facet normal 0 0 -1
  outer loop
    vertex -0.001106192093373783 -0.003404509194729813 0
    vertex -0.0006424404549815437 -0.003606021465267093 0
    vertex -0.000968534309033308 -0.003884578940145943 0
  endloop
endfacet
facet normal 0 -0 -1
  outer loop
    vertex 0.001536990410660544 -0.002774192791198726 0
    vertex 0.001800203751092514 -0.003144905883757594 0
    vertex 0.001354736785002037 -0.003258367598691924 0
  endloop
endfacet
facet normal 0 0 -1
  outer loop
    vertex -0.001106192093373783 -0.003404509194729813 0
    vertex -0.001019529655059815 -0.002995909973888533 0
    vertex -0.0006118794324177571 -0.003177574175658853 0
  endloop
endfacet
facet normal 0 0 -1
  outer loop
    vertex -0.0006118794324177571 -0.003177574175658853 0
    vertex -0.001019529655059815 -0.002995909973888533 0
    vertex -0.0006587854579877222 -0.002700340490311711 0
  endloop
endfacet
facet normal 0 0 -1
  outer loop
    vertex -0.000622293718026635 0.003525250988009603 0
    vertex -0.0008140253186064636 0.003123883950310604 0
    vertex -0.001110742037250959 0.003395711153707117 0
  endloop
endfacet
facet normal 0 0 -1
  outer loop
    vertex -0.003374064861847253 -0.0009674975303856102 0
    vertex -0.00301823040937476 -0.001203077693343276 0
    vertex -0.003325676967910447 -0.001393109433197331 0
  endloop
endfacet
facet normal 0 0 -1
  outer loop
    vertex -0.0003634107513395395 0.00309932074126491 0
    vertex -0.0008140253186064636 0.003123883950310604 0
    vertex -0.000622293718026635 0.003525250988009603 0
  endloop
endfacet
facet normal 0 0 -1
  outer loop
    vertex 0.002115543884584829 -0.00277459514281447 0
    vertex 0.002240053190131001 -0.002333631236310845 0
    vertex 0.002550581822269206 -0.002542481132377449 0
  endloop
endfacet
endsolid Created by Gmsh
